<svg width="73" height="49" viewBox="0 0 73 49" fill="none" xmlns="http://www.w3.org/2000/svg">
<g id="Group 116">
<path id="Vector" d="M71.267 8.86171C71.267 8.79725 71.2831 8.73279 71.2831 8.67638C71.3234 8.67638 71.3476 8.6925 71.3959 8.68444L71.267 8.86171ZM71.1542 11.1582C71.0978 11.3194 71.0494 11.4805 70.993 11.6497C71.0736 10.852 71.1461 10.0543 71.2267 9.25655C71.5168 9.94146 71.3556 10.5377 71.1542 11.1663M70.7513 13.4305C70.7674 13.366 70.7916 13.3016 70.8077 13.2371C70.8077 13.3258 70.8077 13.4063 70.8077 13.503L70.7432 13.4305H70.7513ZM56.0296 21.5931C56.1585 21.3997 56.2874 21.2144 56.4325 21.0371C56.3358 21.2063 56.1988 21.3917 56.0296 21.5931ZM70.6385 13.7931C70.5901 14.1074 70.4773 14.3975 70.3081 14.5828C70.429 14.3249 70.5418 14.059 70.6385 13.7931ZM72.7577 1.1987C72.6529 0.908615 72.4595 0.586302 72.0808 0.400971C72.0405 0.384855 71.9922 0.360682 71.9519 0.344566C72.0002 0.280103 71.9761 0.215641 72.1372 0.280103C71.7263 0.0303101 71.2428 -0.0422105 70.8157 0.0222522C70.3887 0.0786572 69.9616 0.223698 69.5426 0.44126C69.1236 0.658822 68.7207 0.940847 68.3581 1.31151C68.1728 1.48878 68.0116 1.69828 67.8666 1.89973C67.7296 2.09312 67.649 2.24622 67.5523 2.42349L67.4878 2.37514C66.7788 4.15593 66.1341 5.88031 65.6829 7.69332C65.4573 8.58774 65.2881 9.49022 65.1914 10.3766C65.143 10.8037 65.1108 11.2952 65.0947 11.6658C65.0624 12.0526 64.998 12.4313 64.861 12.802C63.6765 14.2041 62.5 15.5256 61.2108 17.1129C59.9215 18.7084 58.4872 20.4005 56.7145 22.5117L57.2705 21.6334C56.9804 21.9879 56.6984 22.4553 56.3438 22.407C56.1505 22.3908 55.9812 22.2539 55.9974 22.0766C56.0054 21.9074 56.094 21.7382 56.1827 21.5609C56.36 21.2063 56.6178 20.8357 56.8918 20.465C57.3833 19.8446 57.8748 19.2241 58.3583 18.5956C58.4631 18.4667 58.5759 18.3297 58.6726 18.2008C59.8087 16.7423 60.5742 15.7512 60.9288 14.9212C61.1383 14.5586 61.2833 14.2605 61.3639 13.9543C61.4042 13.8012 61.4283 13.6481 61.4283 13.495C61.4283 13.3258 61.4283 13.2291 61.3397 12.8987C61.0093 11.7142 59.6798 11.1501 58.7048 11.4886C57.9796 11.7222 57.4317 12.1735 56.9321 12.657C56.9079 12.6731 56.8837 12.6892 56.8595 12.7134C56.1182 13.3258 55.4736 14.0268 54.8854 14.7681C54.7806 14.8809 54.6759 14.9937 54.5631 15.0985C53.58 15.727 53.1288 16.9196 52.5567 18.0154C51.767 19.0468 50.8726 19.9896 49.8653 20.8034C48.9065 21.2305 48.0201 21.5528 47.0854 22.0363C46.1265 22.5601 45.2562 23.2369 44.4988 24.0346C43.4835 25.1063 42.6213 26.4036 42.1298 27.7977C41.7027 28.5793 41.3804 29.4173 41.2273 30.352C40.9292 32.2053 40.6794 34.1069 40.9775 35.9441C41.3401 38.2003 40.9372 40.3437 40.5505 42.5113C40.4538 43.0592 40.3651 43.5991 40.2684 44.147C40.067 44.6386 39.8414 45.1462 39.6802 45.7183C39.6158 46.0084 39.5996 46.3226 39.7447 46.5886C39.8978 46.8545 40.1879 46.9753 40.4779 47.0076L40.5263 46.8222C40.7519 47.1687 41.2998 46.9431 41.743 46.7819C41.8881 46.7255 42.025 46.6772 42.1459 46.645C42.2507 46.645 42.3554 46.645 42.4602 46.645C42.5488 46.6772 42.6133 46.7578 42.6374 46.9109L42.5488 46.9512C42.6858 47.1848 43.0081 46.8948 43.2982 46.6369C43.7978 46.6369 44.3054 46.6369 44.805 46.6369C44.9017 46.6772 45.0387 46.653 45.1757 46.6369C45.2965 46.6369 45.4093 46.6369 45.5302 46.6369C45.6672 46.6772 45.7558 46.79 45.7397 47.0881C45.4657 47.0881 46.1426 47.491 45.5141 47.7005C45.6833 47.8053 46.5536 47.7569 46.473 47.3218C46.5133 47.0801 46.6019 46.8545 46.6261 46.6369C48.4472 46.6369 50.2763 46.6208 52.0974 46.645C52.8064 46.645 53.0804 46.4113 52.9837 45.67C52.8467 44.6224 52.8709 43.5669 53.016 42.5113C53.5397 38.5871 55.385 35.3881 58.0602 32.6404C57.5364 33.285 57.0368 33.9538 56.5775 34.6629C56.5775 34.6065 56.5292 34.5421 56.5292 34.4776C56.5131 34.6629 56.5533 34.8966 56.4405 35.0175C56.368 35.0175 56.36 34.8966 56.368 34.8402C55.5703 35.0981 55.53 36.6049 55.0304 36.7741C54.9901 36.9594 55.1191 37.1286 55.2963 37.1125C54.2407 39.2398 53.6364 41.8344 53.9668 44.1551C53.9023 44.2679 53.7734 44.284 53.6122 44.2518L53.7492 44.6224C53.7895 44.7675 53.8378 44.9609 53.8943 45.1784C54.0071 45.6055 54.0796 46.0567 54.0312 46.4355C53.999 46.8142 53.8137 47.2171 53.4833 47.4588C53.1932 47.6844 52.7259 47.8375 52.46 47.7972C51.2271 47.8133 49.954 47.7247 48.7453 47.6764C48.6889 47.8778 49.0354 47.8859 48.8339 48.0873C49.7122 48.321 50.1554 47.5958 50.9854 47.9342L50.9612 48.1195C51.5414 48.2324 50.8806 47.6522 51.5252 47.8859C51.8073 48.039 51.5736 48.1195 51.6783 48.1357C51.9523 48.1115 52.2343 48.1034 52.5244 48.0954C52.6775 48.0873 52.7903 48.1115 52.9676 48.0712C53.161 48.0148 53.3383 47.9423 53.4994 47.8375C53.8298 47.6522 54.1199 47.3057 54.2166 46.9431C54.3294 46.5805 54.3052 46.1937 54.1763 45.7747C54.41 45.678 54.3294 45.122 54.3133 44.7111C54.2972 44.3968 54.3052 44.1793 54.5067 44.01C54.3455 43.7844 54.4019 43.5588 54.1279 43.446C54.3697 41.8747 54.692 40.2873 55.2721 38.7644C55.8443 37.2415 56.6662 35.7669 57.7701 34.4937C57.9715 33.6235 58.6162 32.995 59.3575 32.439C60.1149 31.8507 60.9529 31.2786 61.5653 30.497C61.5976 30.5051 61.6137 30.5293 61.6217 30.5615C61.944 29.9652 62.5564 29.2481 63.1769 28.7807L63.4025 28.0877C64.3533 27.3867 65.28 26.7179 66.1261 25.8074C66.5451 25.3481 66.948 24.8324 67.2622 24.228C67.4153 23.9379 67.5523 23.5834 67.649 23.2853L67.9149 22.4714C68.6482 20.3119 69.5748 18.1846 70.7029 16.1379C71.0011 15.5417 71.3153 15.0179 71.6296 14.3249C71.7746 13.9865 71.9116 13.6078 72.0002 13.1968L72.0566 12.8906L72.0889 12.657L72.1614 12.1896C72.3467 10.9406 72.5321 9.7239 72.669 8.49911C72.806 7.27431 72.9108 6.04952 72.943 4.80861V3.8739C72.9672 3.38237 72.9833 2.89085 72.9994 2.39932C73.0075 1.91585 72.9027 1.51295 72.798 1.22287" fill="#E77622"/>
<path id="Vector_2" d="M12.8073 11.7062C12.7509 11.7223 12.7025 11.7303 12.6461 11.7545C12.63 11.7223 12.63 11.69 12.6058 11.6498C12.6784 11.6578 12.7428 11.69 12.8073 11.7062ZM14.1368 11.5531C14.4914 11.6739 14.7815 11.8995 15.0393 12.1655C15.1682 12.2944 15.2891 12.4314 15.41 12.5684C15.0796 12.3105 14.7251 12.0768 14.3383 11.8995C13.9676 11.7303 13.5889 11.6256 13.2263 11.6417C13.5164 11.4725 13.8629 11.4644 14.1449 11.5611M16.6912 13.7931C16.6509 13.7529 16.6186 13.7045 16.5784 13.6562C16.5622 13.64 16.5461 13.6239 16.53 13.6078C16.6186 13.6642 16.6912 13.7287 16.7879 13.777L16.6912 13.7931ZM17.5292 14.7923C17.3197 14.5264 17.0941 14.2686 16.8684 14.0107C17.1827 14.2363 17.4486 14.5103 17.5292 14.7923ZM33.2662 43.6152C33.1614 42.6805 33.0083 41.7216 32.8391 40.7628L32.5732 39.3768C32.5007 39.0223 32.4523 38.6677 32.4523 38.3051C32.4281 37.6685 32.6135 36.621 32.6135 35.7185C32.6618 34.7919 32.6376 33.8491 32.5893 32.9144C32.1219 32.0683 32.0333 31.1417 31.8883 30.1345C31.7513 29.1353 31.5095 28.0555 30.9052 27.1692C30.9213 27.145 30.9536 27.1289 30.9777 27.1289C30.7199 26.871 30.4379 26.5487 30.18 26.1942C29.8899 25.8638 29.6482 25.4851 29.4226 25.1386L28.7135 24.8405C28.0366 23.8493 27.1825 22.9307 26.1994 22.2217C25.724 21.8429 25.1761 21.5287 24.6846 21.2144C24.2172 20.9324 23.7579 20.6343 23.3228 20.3039C22.4525 19.6431 21.6548 18.8696 20.9538 18.0074C20.6073 17.5723 20.2769 17.121 19.9788 16.6537L19.036 15.1307C18.2463 13.9704 17.4808 12.9068 16.4414 11.8995C15.9015 11.4 15.3052 10.9487 14.5236 10.6184C14.1207 10.4572 13.6292 10.3283 13.0893 10.3524C12.5494 10.3686 12.0015 10.5539 11.5583 10.844C11.1071 11.1341 10.7284 11.5369 10.4866 12.0124C10.2449 12.4878 10.1482 13.0438 10.1724 13.5595C10.1965 14.0349 10.2932 14.4055 10.398 14.7681C10.5108 15.1307 10.6558 15.4772 10.8251 15.8076C11.1635 16.4603 11.5905 17.0405 12.0498 17.54C12.5091 18.0155 12.9765 18.4506 13.4841 18.9018C13.4197 18.9421 13.4036 19.0066 13.2988 18.9179C13.7178 19.3611 14.0643 19.8365 14.3866 20.3119C13.2344 18.9985 12.1063 17.677 10.7767 16.6456C10.124 15.856 9.44716 15.0421 8.75419 14.2122C8.39964 13.8012 8.0451 13.3903 7.69055 12.9712C7.35212 12.6086 7.17485 12.1413 7.08621 11.6175C6.73972 9.44191 6.28043 7.19377 5.37795 5.19542L5.53105 5.14707C5.13621 4.3574 4.74944 3.58385 4.31431 2.82641C3.8953 2.09315 3.25068 1.24707 2.38043 0.779719C1.95336 0.546041 1.47795 0.360711 0.994479 0.409058C0.752743 0.441289 0.519066 0.554099 0.365967 0.73943C0.212868 0.92476 0.124231 1.13426 0.0678263 1.35988C-0.0610992 1.82724 0.0275371 2.26236 0.0597685 2.7136C0.100058 3.16484 0.156463 3.61608 0.228983 4.08344C0.212868 5.85616 0.607702 7.87868 0.994479 9.73199C1.14758 10.4411 1.2765 11.1341 1.4296 11.819C1.56659 12.802 1.80026 13.7529 2.16287 14.6795C2.20316 14.8165 2.23539 14.9535 2.27568 15.0824C2.39654 16.2347 3.13787 17.2338 3.83084 18.2733C4.36266 19.4578 4.83807 20.6584 5.25708 21.8913C5.28931 22.3748 5.31349 22.834 5.38601 23.3256C5.49076 23.8977 5.71638 24.4376 6.00646 24.9291C6.61886 25.9121 7.37629 26.6374 8.15791 27.3706C9.25377 28.3537 10.4544 29.1997 11.6792 30.0217C12.3319 30.634 12.9846 31.2464 13.6292 31.8669C17.1908 35.2754 19.447 39.2398 19.4872 44.1229C19.3825 44.5983 19.2455 45.0657 19.1246 45.525C19.0843 45.7425 18.9554 46.0568 19.1246 46.4677C19.2052 46.6772 19.4228 46.8626 19.6162 46.9351C19.8096 47.0076 19.9707 47.0157 20.1238 47.0157L20.0593 46.8061C20.5589 47.209 21.0908 46.7417 21.5339 46.6047C21.6548 46.6047 21.7757 46.6047 21.9046 46.6047C21.9932 46.645 22.0819 46.7256 22.1544 46.8706L22.0819 46.9109C22.2753 47.1446 22.5009 46.8626 22.7023 46.6047C23.2261 46.6047 23.7498 46.6047 24.2736 46.6047C24.3461 46.6208 24.4267 46.6128 24.5073 46.6047C24.6604 46.6047 24.8054 46.6047 24.9585 46.6047C25.0794 46.653 25.168 46.7739 25.1761 47.0559C24.9182 47.0559 25.5709 47.4588 25.0069 47.6764C25.168 47.7811 25.9496 47.7328 25.8771 47.2896C25.9093 47.0479 26.006 46.8223 26.0302 46.6047C27.7868 46.6047 29.5434 46.6047 31.3 46.6047C32.4523 46.6047 32.5732 46.4838 32.3798 45.3799C32.0575 43.5024 31.7432 41.6169 31.3806 39.7475C31.2275 38.9659 31.2114 38.2165 31.3323 37.4268C31.6626 35.2593 31.6788 33.2367 31.3484 31.3673C31.574 32.1731 31.7352 33.0111 31.8077 33.8814C31.7755 33.833 31.6949 33.8169 31.6546 33.7686C31.7593 33.9136 31.9366 34.0909 31.9124 34.2601C31.848 34.3004 31.7835 34.2117 31.7513 34.1553C31.292 34.808 31.9769 36.1376 31.5498 36.5324C31.574 36.7258 31.7593 36.8305 31.9205 36.7419C31.8802 37.3946 31.7916 37.9667 31.8399 38.5388C31.8722 39.119 32.0252 39.6427 32.1864 40.3518C32.5007 41.6814 32.8552 43.0351 33.2742 44.4291C33.2339 44.5419 33.105 44.5419 32.9277 44.4694C33.0728 44.7675 33.2098 45.0737 33.3226 45.388C33.4515 45.6458 33.524 46.1212 33.4837 46.4919C33.4595 46.8545 33.25 47.2654 32.9197 47.4588C32.6215 47.6603 32.2186 47.7812 31.8157 47.8134C30.591 47.8214 29.3339 47.7247 28.1253 47.6683C28.0688 47.8698 28.4153 47.8778 28.2058 48.0873C29.068 48.3291 29.5273 47.5958 30.3412 47.9504L30.317 48.1438C30.8891 48.2646 30.2525 47.6603 30.881 47.902C31.155 48.0632 30.9213 48.1438 31.0261 48.1599C31.3 48.1357 31.5821 48.1357 31.8641 48.1276C31.9769 48.1357 32.2267 48.0954 32.412 48.0471C32.6054 47.9907 32.7907 47.9262 32.9438 47.8376C33.25 47.6764 33.5482 47.3621 33.661 46.9995C33.7657 46.653 33.7496 46.2743 33.6126 45.8714C34.0317 45.6861 33.4354 44.7031 33.7819 44.3646C33.5643 44.0423 33.5562 43.7683 33.2581 43.6233" fill="#E77622"/>
</g>
</svg>
