<svg width="76" height="75" viewBox="0 0 76 75" fill="none" xmlns="http://www.w3.org/2000/svg">
<g id="icon 1">
<path id="Vector" d="M8.86577 26.5528C8.86577 26.5528 8.83626 26.5968 8.82835 26.6177L8.85719 26.658C8.96295 26.4757 9.0781 26.3172 9.1925 26.1363C9.08384 26.2826 8.96652 26.4275 8.86577 26.5528Z" fill="#E77622"/>
<path id="Vector_2" d="M19.7947 53.016C19.7947 53.016 19.8271 53.0614 19.8415 53.0816C19.8494 53.0607 19.8091 53.0362 19.7947 53.016Z" fill="#E77622"/>
<path id="Vector_3" d="M17.8823 36.8702L17.8897 36.8806L17.8949 36.8769C17.8949 36.8769 17.886 36.8754 17.8823 36.8702Z" fill="#E77622"/>
<path id="Vector_4" d="M45.0305 10.582L45.0379 10.5923L45.0431 10.5886C45.0431 10.5886 45.0394 10.5834 45.0305 10.582Z" fill="#E77622"/>
<path id="Vector_5" d="M45.6854 18.3783C45.6358 18.4366 45.5875 18.4864 45.5443 18.5325C45.5703 18.5368 45.6372 18.428 45.6854 18.3783Z" fill="#E77622"/>
<path id="Vector_6" d="M47.3018 61.9618L47.1929 61.8416L47.1785 61.8214C47.2779 61.8113 47.4623 61.7708 47.4695 61.7809L47.4493 61.7953C47.3607 61.8206 47.2563 61.8343 47.2117 61.8358L47.2894 61.8487C47.2354 61.8797 47.2095 61.8754 47.3363 61.9675C47.3363 61.9675 47.3248 61.9656 47.3018 61.9618ZM47.1266 61.7595C47.2498 61.74 47.4061 61.7349 47.3132 61.786L47.1663 61.815L47.1302 61.7646L47.1266 61.7595ZM45.6749 60.0174C45.7923 60.0324 45.8859 60.0569 45.8579 60.1455L45.9378 60.1188C46.1029 60.275 45.8853 60.1944 45.9747 60.3514C46.0295 60.396 46.1065 60.28 46.1505 60.4161C46.1088 60.4536 46.1052 60.5019 46.1117 60.5429C45.9632 60.3672 45.8284 60.1894 45.6785 60.0224M44.4543 61.6445L44.3578 61.6907C44.1771 61.7895 43.9208 61.9423 43.6277 62.0758L43.4433 62.0629L43.4527 62.0334C43.4527 62.0334 43.4138 62.0536 43.4037 62.0608C38.6468 61.6619 30.8205 60.8911 26.128 59.7834C25.8801 59.5646 25.6422 59.3386 25.4217 59.1155C25.6558 59.1765 25.7034 59.3177 25.8936 59.4026C25.8936 59.4026 25.8951 59.3939 25.8879 59.3838C26.0556 59.2562 26.2566 59.3562 26.3798 59.39L26.4267 59.4555C26.4866 59.6031 26.804 59.2161 26.686 59.4453C27.3169 59.4434 28.0444 59.502 28.7532 59.5664C28.8555 59.4857 29.2863 59.6194 29.1529 59.4329C29.3079 59.6496 29.8302 59.7407 30.0282 59.7514C30.0167 59.7673 30.0175 59.7896 29.9829 59.7839C30.341 60.0609 30.4524 59.5776 30.7731 59.9195C30.8486 59.7055 31.4185 60.0444 31.641 59.8015C31.677 59.8519 31.6871 59.898 31.6713 59.9398C32.3095 60.0014 33.0018 60.1385 33.5521 60.1943C34.0302 60.0428 34.6636 60.3744 35.0841 60.1422C35.4068 60.2313 35.9327 60.3808 36.3965 60.3157L36.3512 60.3481C36.6112 60.3602 36.8971 60.3766 37.1824 60.3706C37.6678 60.3891 38.0921 60.3751 38.2721 60.3073C38.7981 60.6167 39.1928 60.5934 39.7763 60.7169C40.0039 60.6836 40.4375 60.6934 40.8992 60.7212C41.3623 60.7404 41.8514 60.7638 42.0581 60.7227C42.7519 60.9044 42.5393 60.7137 43.4743 60.9667C43.6414 60.9233 43.8315 60.9016 44.0613 60.882L44.1045 60.9425C44.1226 60.9677 44.1528 60.9994 44.1673 61.0195C44.1377 61.0102 44.1385 61.0325 44.0823 60.9965C44.1587 61.178 44.2207 61.286 44.3087 61.3983C44.3519 61.4588 44.3966 61.5106 44.4536 61.5689L44.4896 61.6193C44.4896 61.6193 44.4658 61.6287 44.4507 61.6395M31.6381 64.4199C31.3082 64.3207 30.9912 64.1971 30.6756 64.0647C32.1489 64.5802 33.7928 64.9508 35.5972 65.0772C34.256 65.0233 32.9147 64.8628 31.6331 64.4235M26.469 59.1206C26.2334 59.1214 26.4437 59.032 26.265 58.9846C26.1981 58.9868 26.2298 59.1164 26.0922 59.0625C26.0907 58.9645 26.0295 58.9321 25.9481 58.9142L26.762 58.9871C26.6512 59.0664 26.5504 59.1385 26.5042 59.042L26.469 59.1206ZM37.8642 59.9287L37.6632 59.9353L36.8645 59.9581C34.8886 59.6345 32.8655 59.8627 30.9723 59.3885C30.4998 59.4522 30.0164 59.3409 29.5172 59.218L37.8642 59.9287ZM37.7042 58.7252C37.8015 58.7547 37.9002 58.7755 37.9974 58.805C38.3929 58.9106 38.8014 59.045 39.0939 59.1558L37.7078 58.7303L37.7042 58.7252ZM29.2983 55.8552C29.3372 55.835 29.4221 55.8047 29.4178 55.7774C29.245 55.8019 29.2118 55.7343 29.2125 55.7033C29.2031 55.6795 29.2182 55.6687 28.7601 55.6993C28.7839 55.6899 28.969 55.6718 29.0446 55.671C28.8545 55.6394 28.6434 55.5999 28.4388 55.5482C28.2609 55.5231 28.4409 55.5086 28.4813 55.4797L28.6995 55.4227C29.0221 55.3519 29.3952 55.2984 29.7798 55.2823C30.8016 54.879 31.9931 55.139 33.0842 55.0137L33.0742 55.0742C34.5111 55.0063 35.9736 55.56 37.3338 56.0878C37.8807 56.3518 38.2848 56.4589 38.8324 56.7452L38.8123 56.8129C39.8647 57.0809 40.5389 58.1299 41.5403 58.5715L41.4244 58.6011C41.6354 58.5873 41.8568 58.9927 41.9777 58.8529C42.0008 58.8745 42.0325 58.8975 42.0483 58.909L42.1096 58.9947C42.15 59.0192 42.1917 59.035 42.2321 59.0594C42.5139 59.315 42.8086 59.5993 43.0897 59.8858C42.3118 59.7566 41.4596 59.6196 40.9172 59.5429C40.9532 59.5399 41.0238 59.5428 41.0929 59.5543C40.6801 59.4458 40.9214 59.357 40.3926 59.2248C40.4906 59.2233 40.4855 59.2269 40.6462 59.2492C40.3105 59.1845 40.219 59.1205 40.0633 59.0414C39.9077 58.9622 39.6865 58.8767 39.3048 58.8222L39.366 58.8012L38.9251 58.728C39.031 58.7057 39.1844 58.6645 39.3429 58.7263C38.8062 58.5617 38.2831 58.395 37.7464 58.2304L36.7624 57.9515C36.1536 57.7927 35.5377 57.6239 34.929 57.4651C33.6892 57.1482 32.453 56.8364 31.2362 56.4345L31.3471 56.4085L30.8486 56.3613C30.8486 56.3613 30.8853 56.3274 30.9127 56.3231C30.6209 56.1814 30.3155 56.0951 29.9971 56.0334L29.5483 55.9278C29.4654 55.9185 29.3718 55.8941 29.2932 55.8588M25.2408 58.9478L25.2711 58.9794C25.2552 58.9679 25.2516 58.9629 25.2408 58.9478ZM30.1047 53.1911C30.7025 53.0683 31.2909 52.975 31.7966 53.1389C31.2118 53.1306 30.6449 53.1476 30.1047 53.1911ZM37.88 54.1888C38.7245 54.6666 39.6538 54.9541 40.4817 55.4513C40.8902 55.6923 41.3384 55.8822 41.7009 56.1866C42.0785 56.4802 42.4345 56.7969 42.7552 57.1389C43.158 57.3079 43.4355 57.6426 43.7037 58.0069C41.5192 55.9966 39.2618 54.7469 37.0667 54.0316C37.3347 54.0761 37.6012 54.1292 37.8714 54.1874M42.8891 60.3188L42.8307 60.3224L41.0607 59.7754C42.1052 60.011 43.5928 60.3868 42.8927 60.3238M26.7796 53.7183C27.1814 53.5985 27.5876 53.506 28.0039 53.4597C27.5732 53.5392 27.1685 53.623 26.7796 53.7183ZM21.1035 55.5384L21.3858 55.3366L21.429 55.3971L21.1035 55.5384ZM20.2411 53.8852C20.2411 53.8852 20.2403 53.8096 20.2143 53.752L20.1085 53.8277C20.107 53.6764 20.0969 53.737 20.1199 53.652C19.8864 53.4533 19.9569 53.2962 19.825 53.1011C19.825 53.1011 19.8235 53.1098 19.8134 53.117C19.606 53.1358 19.4914 52.9436 19.4042 52.8536L19.4048 52.7694C19.4256 52.6174 18.9633 52.7804 19.1771 52.6427C18.9069 52.478 18.6324 52.2858 18.3557 52.08C18.1092 51.9058 17.8765 51.7295 17.6264 51.5503C17.5119 51.5713 17.4744 51.4229 17.2929 51.4994C17.3822 51.4432 17.4239 51.4057 17.4592 51.3805C17.5773 51.3645 17.6184 51.358 17.6385 51.3436C17.6544 51.3551 17.6789 51.3681 17.6789 51.3681C18.0031 51.5018 17.4821 51.1888 17.9439 51.3232C17.9092 51.1043 18.5668 51.1291 18.6336 50.8071C18.7013 50.8272 18.7302 50.8675 18.7331 50.9036C19.3127 50.6489 19.9695 50.3849 20.4692 50.157C20.7851 49.7786 21.5075 49.7342 21.7233 49.2904C22.038 49.1872 22.5587 49.0205 22.9093 48.7012L22.887 48.7552C23.3341 48.4964 23.8719 48.1193 24.0935 47.8008C24.3594 47.9382 24.5242 47.7746 24.7547 47.7241C24.9951 47.4531 25.592 47.0947 25.9677 46.7041C26.1053 46.758 26.2953 46.4165 26.4163 46.5432C27.46 45.4463 28.9727 44.4405 30.345 43.6114C30.4392 43.3916 30.4852 43.115 30.5621 42.8924C30.588 42.8967 30.6075 42.9133 30.5708 42.9471C30.7665 42.7309 31.0726 42.6796 31.2648 42.4583C31.2648 42.4583 31.2655 42.4807 31.267 42.5253C31.4174 42.2883 31.7739 42.2542 31.9199 41.9364L31.9689 41.9623L32.0747 41.7801C32.1049 41.8117 32.141 41.8621 32.1151 41.9111C33.6059 40.5553 34.8862 38.9159 36.1378 37.2895C36.4249 36.9241 36.7034 36.5573 36.9906 36.1919L36.977 36.3007L37.1892 35.8519C37.1892 35.8519 37.213 35.8958 37.2051 35.9167C37.6564 35.472 37.9146 34.8531 38.2557 34.3501C38.2751 34.3667 38.2701 34.4769 38.3457 34.4228C38.4665 33.9632 38.9087 33.9212 38.7694 33.5561C38.7932 33.5467 38.8631 33.5805 38.8595 33.6288C39.3976 32.5811 39.9977 31.5349 40.584 30.4909C40.6265 30.4224 40.6668 30.3403 40.7042 30.2754C40.8133 29.7784 41.0226 29.2935 41.237 28.805C41.1502 29.4612 40.9778 30.1255 40.7808 30.7767C40.6206 31.3408 40.4221 31.8941 40.2532 32.4567C40.031 33.0194 39.9967 33.44 39.7572 33.9998L39.683 33.992C39.6192 34.5099 39.353 34.9898 39.0955 35.4711C38.8048 35.938 38.5105 36.3999 38.4114 36.943L38.3545 36.8314C38.4129 37.041 38.0804 37.3322 38.2367 37.4336C38.2274 37.4632 38.2094 37.4913 38.1964 37.5158L38.1108 37.577C38.1108 37.6303 38.0964 37.6635 38.0907 37.6981C37.8907 38.0468 37.6993 38.397 37.4885 38.7306C37.4359 38.8063 37.3748 38.8805 37.3244 38.9698C37.2424 39.0894 37.1575 39.2263 37.0956 39.3848C37.0812 39.418 37.0496 39.4483 37.0301 39.485L37.0215 39.4303C36.9963 39.5016 36.9625 39.5715 36.9301 39.6327C36.8517 39.7574 36.7747 39.8734 36.6926 39.993C36.6775 40.0038 36.6761 40.0125 36.661 40.0233C36.6703 39.9937 36.6429 39.9981 36.6652 39.9441C36.0692 40.4313 35.7967 41.2433 35.3044 41.8544L35.2654 41.7146C35.1476 42.1037 34.6264 42.5679 34.332 42.9764L34.3075 42.9102L34.2054 43.1508L34.1189 43.0832C33.6878 43.5667 33.3661 44.0863 32.9184 44.536L32.8759 44.4446C32.5787 44.977 32.015 45.3498 31.6004 45.8139L31.6104 45.7534C30.7653 46.5102 29.9994 47.2713 29.1918 48.0166C26.6087 50.0926 23.6381 52.0421 20.2216 53.8687M18.8561 52.9714C18.9901 52.967 19.1132 52.9474 19.1083 53.0576L19.1738 53.0108C19.3705 53.1367 19.1457 53.0994 19.2704 53.2311C19.3302 53.2721 19.3705 53.1367 19.457 53.2577C19.4016 53.3506 19.4413 53.406 19.5032 53.4607L18.8561 52.9714ZM29.734 43.3323C29.282 43.8079 28.8264 44.2786 28.3072 44.4899C28.282 44.508 28.2532 44.5209 28.223 44.5426C28.7327 44.1475 29.2388 43.7475 29.729 43.3359M32.3011 41.0315C31.9743 41.3948 31.6223 41.7227 31.2451 42.0154C31.6007 41.6925 31.9563 41.3696 32.3011 41.0315ZM17.8478 50.7521C17.6498 50.9014 17.4705 50.9915 17.2854 51.0629L16.9571 51.1683L16.7648 51.2296C16.7086 51.247 16.6114 51.2708 16.6294 51.296L16.5891 51.2715C19.19 50.1578 21.6158 48.895 23.891 47.4963C23.6246 47.7096 23.3597 47.9144 23.0883 48.1313C21.3003 48.9759 19.7317 50.2655 17.8478 50.7521ZM34.3206 36.3038C34.2961 36.3442 34.2695 36.3709 34.2414 36.4062C34.0457 36.6224 33.8672 36.8415 33.6837 37.0641C33.8989 36.8112 34.1141 36.5582 34.3206 36.3038ZM34.8978 35.5558C35.1518 35.2294 35.4059 34.9029 35.6599 34.5765C35.4167 34.9181 35.1699 35.2546 34.9086 35.571C34.7272 35.8073 34.5473 36.035 34.3588 36.2613C34.5401 36.025 34.7128 35.7872 34.8978 35.5558ZM17.4375 48.9431C17.4375 48.9431 17.3979 48.9409 17.3842 48.9431C17.3929 48.9445 17.4152 48.9438 17.4339 48.938C17.3669 48.8869 17.3661 48.8113 17.3538 48.7515C17.2609 48.7494 17.3502 48.6932 17.1831 48.7365C17.3776 48.6888 17.4171 48.6377 17.4128 48.6103C17.4315 48.6045 17.4438 48.611 17.4474 48.6161C17.4884 48.6095 17.5036 48.5987 17.5187 48.5879C17.5093 48.5642 17.281 48.5751 17.5114 48.5245C17.2939 48.5506 17.5712 48.459 17.3119 48.4692C17.3666 48.4605 17.4041 48.449 17.4437 48.4511C17.4667 48.4727 17.5071 48.4972 17.541 48.5339L17.6651 48.8565C17.5887 48.8882 17.516 48.925 17.4447 48.9531M16.8419 47.9293C16.8859 47.9588 16.9248 47.9919 16.9702 48.0128C16.8414 48.2268 17.2585 48.3626 16.977 48.5868C17.0779 48.6213 17.0232 48.6833 16.9476 48.7374L16.847 47.9257L16.8419 47.9293ZM16.7717 47.4158L16.7486 47.2343C16.8343 47.2796 16.9222 47.3386 16.7818 47.4086L16.7667 47.4194L16.7717 47.4158ZM16.7015 46.9023C16.7304 46.9426 16.7369 46.9837 16.7232 47.0391L16.7015 46.9023ZM17.2099 47.8794L17.2244 47.8995C17.2244 47.8995 17.1948 47.8902 17.1739 47.8823L17.2099 47.8794ZM18.0662 44.2198C17.9984 44.0398 17.9572 43.8864 17.8413 43.916L17.865 43.8001C17.7396 43.7526 17.609 43.3889 17.5289 43.0958C17.443 42.784 17.3578 42.4412 17.2308 42.1359C17.16 41.8666 17.0296 41.7161 16.9351 41.4562L17.0063 41.428C16.5855 41.0739 16.9041 40.4118 16.4523 40.057L16.5553 40.0519C16.3932 40.0383 16.4817 39.7998 16.3017 39.8676L16.2915 39.8215L16.3138 39.7675C16.3138 39.7675 16.2735 39.743 16.2576 39.7315L16.0744 39.2303C16.0721 39.1101 16.0411 39.0028 15.9567 38.8955L15.9394 38.8393L15.979 38.8415C15.9488 38.8098 15.9271 38.7795 15.9019 38.7443L15.8593 38.5995C15.8593 38.5995 15.8413 38.5743 15.8492 38.5534C15.8651 38.5649 15.873 38.544 15.8996 38.5707C16.0154 38.168 15.632 37.9089 15.5158 37.5654L15.6447 37.5646C15.4588 37.4538 15.468 37.1045 15.331 36.913L15.3894 36.9093L15.2748 36.8237L15.3785 36.7876C15.2832 36.5053 15.1001 36.2706 14.9883 36.0078L15.0877 35.9977C14.8304 35.8084 14.8979 35.4554 14.7249 35.2135L14.7681 35.2207C14.6122 34.7152 14.3779 34.281 14.1327 33.8317L13.0049 30.6999C13.0438 30.6797 13.0935 30.6747 13.1432 30.7229C13.1727 30.6789 13.1388 30.5356 12.9904 30.5732C12.9818 30.5717 12.9645 30.5689 12.9595 30.5725L12.8649 30.3125C12.9987 29.9883 13.1512 29.6583 13.3123 29.3298L13.3476 29.3046C13.2944 29.4112 13.3275 29.3723 13.28 29.4443C13.3643 29.5516 13.2657 29.6907 13.2853 29.8138C13.2853 29.8138 13.2867 29.8052 13.2968 29.798C13.448 29.7431 13.4502 29.8634 13.4726 29.916L13.4525 29.9837C13.3791 30.1048 13.7506 29.9 13.5541 30.0405C13.7998 30.1924 14.029 30.4169 14.251 30.6314C14.3496 30.599 14.4066 30.8172 14.4923 30.6493C14.3973 30.8467 14.5141 31.0526 14.5847 31.1088C14.561 31.1181 14.5509 31.1254 14.5401 31.1102C14.4675 31.4135 14.8563 31.105 14.7276 31.4256C14.9039 31.2994 14.8617 31.6877 15.1144 31.5831C15.0885 31.6321 15.0619 31.6588 15.0266 31.684C15.2104 31.8877 15.3237 32.1952 15.4607 32.3867C15.7459 32.4341 15.695 32.8209 16.0163 32.812C16.0625 32.9618 16.0864 33.2189 16.2824 33.3225L16.2464 33.3254C16.3812 33.5033 16.547 33.7351 16.7753 33.7774C16.5925 33.9691 16.6819 34.0195 16.6553 34.1528C16.8296 34.2261 16.9422 34.5113 17.1432 34.6646C17.0583 34.7482 17.2823 34.8165 17.1355 34.8987C17.712 35.3319 17.9278 36.145 17.8865 36.8753C18.0018 36.93 18.2215 36.9709 18.3591 37.0249C18.3476 37.0407 18.3303 37.0378 18.3231 37.0278C18.37 37.1466 18.2462 37.3037 18.3032 37.4153C18.3032 37.4153 18.2801 37.4115 18.234 37.4038C18.3421 37.5017 18.1622 37.6761 18.3236 37.774L18.2833 37.8028L18.3611 37.869C18.315 37.8791 18.2516 37.8864 18.2372 37.8662C18.392 38.9134 18.7651 40.0101 18.6419 41.1266L18.5907 41.087L18.66 41.3117C18.66 41.3117 18.6218 41.301 18.611 41.2858C18.4959 41.551 18.6229 41.8563 18.5525 42.1199C18.523 42.1106 18.4768 42.0674 18.4365 42.0962C18.5627 42.3259 18.1896 42.3795 18.4886 42.5313C18.4735 42.5421 18.3993 42.5342 18.3813 42.509C18.3771 42.6415 18.3621 42.8122 18.3535 42.9174C18.3506 42.988 18.3377 43.0658 18.3248 43.1436C18.2853 43.3014 18.2364 43.4354 18.1803 43.506C18.1977 43.7221 18.1762 43.905 18.1583 44.0397C18.136 44.1471 18.1037 44.3682 18.0741 44.199M13.6567 37.3945L13.7493 38.1204C13.6455 37.89 13.5344 37.6495 13.6459 37.4326C13.6574 37.4168 13.6553 37.4031 13.6567 37.3945ZM12.9706 32.2176L13.3947 35.3879C13.3391 35.2677 13.28 35.1424 13.2245 35.0222C13.2766 34.2536 12.7892 33.5509 13.0012 32.7822C12.8736 32.6145 12.9138 32.4258 12.9706 32.2176ZM13.8441 43.3013L13.8895 43.2689C13.4326 42.9176 13.3371 42.3156 13.0581 41.8296C12.9924 41.6099 12.8511 41.4976 12.7581 41.2823L12.8294 41.2542C12.4201 40.9908 12.7482 40.4058 12.3482 40.1129L12.4462 40.1114C12.2877 40.1028 12.3978 39.8946 12.2206 39.9451C12.217 39.9401 12.2098 39.93 12.2077 39.9163L12.2336 39.8673C12.2336 39.8673 12.2055 39.8493 12.181 39.8364C12.142 39.6967 12.1008 39.5433 12.0669 39.4C12.074 39.3035 12.0639 39.2041 11.994 39.117C11.9882 39.0982 11.991 39.0809 11.9802 39.0658L12.0198 39.068C11.9968 39.0464 11.9838 39.0176 11.9586 38.9823C11.9485 38.9362 11.9506 38.8966 11.939 38.8591C11.9405 38.8505 11.9297 38.8354 11.9412 38.8195C11.9448 38.8246 11.9671 38.8238 11.9866 38.8404C12.1787 38.5125 11.8436 38.257 11.8095 37.9538L11.9306 37.9739C11.7785 37.8465 11.8741 37.5649 11.7941 37.3783L11.8546 37.3884L11.7623 37.302L11.8718 37.2847C11.85 37.0412 11.7634 36.8137 11.728 36.5724L11.8368 36.586C11.6472 36.3636 11.8141 36.1071 11.7513 35.8701L11.7845 35.8845C11.8252 35.4516 11.7738 35.0389 11.7476 34.6082C11.8594 33.6142 12.0827 32.5631 12.4508 31.4695C12.4941 31.6366 12.5223 31.8145 12.5455 31.996C12.6377 32.0291 12.5643 32.2034 12.7285 32.1241C12.5442 32.2178 12.5148 32.4217 12.5379 32.4966C12.512 32.4923 12.4983 32.4945 12.4997 32.4858C12.2664 32.6603 12.7569 32.6218 12.4653 32.7999C12.685 32.7875 12.4273 33.0556 12.6967 33.0914C12.6528 33.1152 12.6117 33.1217 12.5671 33.1232C12.5925 33.3717 12.548 33.6397 12.5668 33.8471C12.7765 34.0018 12.5333 34.2901 12.8222 34.3958C12.7819 34.5312 12.6978 34.7437 12.8304 34.9079L12.7922 34.8971C12.8312 35.0901 12.8753 35.3328 13.0648 35.4487C12.8099 35.5396 12.8813 35.618 12.8035 35.7117C12.9433 35.8326 12.9435 36.0991 13.0733 36.2806C12.9631 36.3289 13.1454 36.4347 12.9798 36.4693C13.3784 36.9841 13.3623 37.6964 13.1869 38.3246C13.2972 38.3829 13.5039 38.4483 13.6264 38.5131C13.6113 38.5239 13.5976 38.526 13.5868 38.5109C13.6229 38.6146 13.4753 38.7278 13.5236 38.838C13.5236 38.838 13.5035 38.8346 13.4631 38.8279C13.5539 38.9229 13.3502 39.0534 13.5015 39.1585L13.4713 39.1801L13.5369 39.2399C13.4922 39.2413 13.4238 39.2522 13.4058 39.227C13.4885 40.1734 13.909 41.0915 13.9802 42.0537L13.9276 42.0228L14.0501 42.1941C14.0213 42.2071 14.0055 42.1956 13.9846 42.1877C13.9257 42.4355 14.1152 42.6579 14.1211 42.8898C14.0974 42.8992 14.0397 42.8719 14.003 42.9058C14.1781 43.0547 13.8512 43.2048 14.1538 43.255C14.125 43.268 14.0789 43.2781 14.0594 43.2615C14.1006 43.3616 14.1107 43.461 14.1381 43.5633C14.0624 43.4575 13.9788 43.3725 13.8527 43.3027M12.7935 31.1711L12.7899 31.1661C12.7899 31.1661 12.8151 31.1481 12.8302 31.1373L12.8403 31.1833C12.8403 31.1833 12.8057 31.1776 12.7971 31.1762M12.7479 30.9371C12.794 30.927 12.8019 30.9061 12.8026 30.8751L12.8279 31.017C12.7977 30.9853 12.766 30.9623 12.7479 30.9371ZM13.8974 29.7112C13.7988 29.7436 13.7138 29.7739 13.7591 29.6882L13.6936 29.7351C13.5971 29.6746 13.7461 29.6594 13.7072 29.573C13.6777 29.5636 13.5971 29.6746 13.5876 29.5975C13.6553 29.5111 13.6524 29.4751 13.6308 29.4448C13.723 29.5312 13.8066 29.6161 13.8938 29.7061M17.0756 33.6008C16.9567 33.4878 16.8377 33.3748 16.7174 33.2704C16.5435 32.8463 16.2401 32.5072 15.9338 32.1854C15.6361 31.8651 15.36 31.5217 15.1746 31.1134C14.9571 31.0329 14.864 30.8176 14.7688 30.5886C15.7188 31.6079 16.4843 32.6144 17.0705 33.6044M18.397 36.5559C18.2391 36.3032 18.0589 36.0512 18.1192 35.7948C18.1206 35.7861 18.1134 35.7761 18.1235 35.7689C18.2216 36.0339 18.3162 36.2938 18.397 36.5559ZM44.9751 18.4603C44.8729 18.5943 44.7758 18.7247 44.6771 18.8105C44.77 18.706 44.8657 18.5842 44.9751 18.4603ZM45.191 18.1763C45.5321 17.7267 45.9056 17.1625 46.2466 16.4996C46.2086 16.7553 46.1698 16.9887 46.0165 17.0832L46.0425 17.1941C45.7496 17.7006 45.9294 17.2064 45.661 17.566C45.5782 17.7166 45.7532 17.7056 45.5042 17.9752C45.417 17.9385 45.3119 18.0365 45.186 18.1799M43.0167 19.5563L43.0253 19.5578L43.0217 19.5527L43.0167 19.5563ZM43.0174 19.5254L43.026 19.5268L43.0224 19.5217L43.0174 19.5254ZM44.4126 15.1603C44.4089 14.8888 44.4224 14.6201 44.387 14.4855C44.3948 14.3047 44.3206 14.2968 44.2996 14.129L44.3658 14.0511C44.2283 14.0505 44.267 13.8171 44.3037 13.6766C44.354 13.534 44.3892 13.3489 44.2213 13.21L44.325 13.2272C44.1795 13.1941 44.309 13.0558 44.1376 13.0717L44.1383 13.0407L44.1786 13.0119C44.1786 13.0119 44.1484 12.9802 44.1311 12.9774L44.1006 12.6259C44.1207 12.5582 44.13 12.4753 44.0796 12.4048L44.0767 12.3688L44.1112 12.3745C44.0932 12.3493 44.0788 12.3292 44.0694 12.3054L44.0593 12.206C44.0593 12.206 44.0535 12.1873 44.065 12.1714C44.0758 12.1865 44.091 12.1757 44.1104 12.1923C44.3292 11.9444 44.0366 11.727 44.0207 11.5023L44.1381 11.5174C43.9904 11.4173 44.0882 11.2026 44.0096 11.0608L44.0751 11.0672L43.9886 10.9996L44.0981 10.9822C44.0901 10.7899 43.9711 10.6236 43.9444 10.4371L44.0423 10.4356C43.8413 10.2823 44.0061 10.0654 43.9145 9.89474L43.9491 9.90048C43.9344 9.56052 43.8248 9.25808 43.718 8.93834L43.3955 5.82481C43.4762 5.92704 43.5505 6.04151 43.6247 6.15599C43.7205 6.1408 43.7033 6.29783 43.8315 6.1681C43.6882 6.30865 43.7193 6.46925 43.7568 6.511C43.738 6.51677 43.728 6.52398 43.7207 6.5139C43.5473 6.72938 43.9872 6.51374 43.7612 6.75157C43.9629 6.66069 43.7779 6.94531 44.0386 6.87312C44.0019 6.90699 43.9616 6.93583 43.9241 6.94738C44.0035 7.11155 44.031 7.32041 44.0872 7.46299C44.312 7.5003 44.1271 7.78493 44.4209 7.78042C44.3987 7.88775 44.3563 8.06281 44.5119 8.14194L44.4759 8.14484C44.535 8.27013 44.6093 8.43791 44.8031 8.47452C44.5734 8.60071 44.6455 8.64821 44.5879 8.72747C44.7342 8.78284 44.7645 8.97441 44.9007 9.09029C44.7992 9.14005 44.9851 9.19756 44.8216 9.24592C45.2533 9.56185 45.2493 10.1208 45.0529 10.5812C45.156 10.6294 45.3548 10.6624 45.4801 10.7098C45.465 10.7206 45.4513 10.7228 45.4405 10.7077C45.4759 10.7891 45.3153 10.8734 45.3593 10.9562C45.3593 10.9562 45.3391 10.9529 45.2988 10.9462C45.3802 11.0174 45.1649 11.1105 45.3069 11.1918L45.2608 11.2019L45.3228 11.2566C45.2731 11.2617 45.2162 11.2567 45.2053 11.2416C45.1863 11.9179 45.4238 12.6546 45.2283 13.3505L45.1807 13.316L45.2428 13.4773C45.2428 13.4773 45.1974 13.4564 45.1938 13.4514C45.0434 13.6351 45.1875 13.7301 45.1378 13.8418C45.1148 13.8202 45.0715 13.7597 45.042 13.7504C45.1185 13.9318 44.944 13.6986 45.0147 13.8613C45.0444 14.1372 44.9228 14.4145 44.8472 14.4153C44.8202 14.8993 44.7569 15.0665 44.6928 15.158C44.6669 15.207 44.641 15.256 44.6065 15.3568C44.5684 15.4527 44.5425 15.555 44.5016 15.6681L44.5338 15.4469C44.4533 15.6645 44.438 15.4088 44.4314 15.1546M42.2138 10.776L42.1658 11.1988C42.1073 11.0426 42.0388 10.8935 42.2008 10.8005C42.2022 10.7918 42.2123 10.7846 42.2174 10.781M41.5113 13.8837C41.4737 13.682 41.506 13.4609 41.4446 13.2686C41.4503 13.1274 41.3689 13.0562 41.3522 12.9157L41.4206 12.9049C41.1166 12.7034 41.6177 12.4135 41.3064 12.202L41.4029 12.2091C41.2646 12.1862 41.4057 12.0852 41.2444 12.094C41.2458 12.0853 41.2487 12.068 41.2451 12.063L41.2804 12.0378C41.2804 12.0378 41.2609 12.0212 41.2472 12.0234C41.2457 11.9254 41.2442 11.8275 41.2463 11.7346C41.2621 11.6928 41.2744 11.646 41.247 11.597C41.2484 11.5883 41.2412 11.5783 41.244 11.561L41.2786 11.5667L41.2462 11.5214C41.2462 11.5214 41.2526 11.4558 41.2483 11.4284C41.2533 11.4248 41.2497 11.4198 41.2497 11.4198C41.2584 11.4212 41.2807 11.4205 41.2951 11.4407C41.5428 11.2864 41.2906 11.0935 41.3193 10.9206L41.4302 10.9479C41.2998 10.8508 41.4416 10.7189 41.4033 10.6015L41.4588 10.6151L41.3882 10.559L41.497 10.5726C41.525 10.4307 41.4478 10.2802 41.4657 10.1455L41.5543 10.1735C41.4116 10.0166 41.6175 9.8998 41.5649 9.76226L41.598 9.77664C41.6901 9.54322 41.6733 9.29617 41.6703 9.04696C41.7206 8.90431 41.7746 8.76671 41.8285 8.6291C42.0094 8.74351 41.7156 8.85462 41.9706 8.9769C41.9109 9.04249 41.787 9.14628 41.8836 9.26003L41.8541 9.25068C41.8542 9.35728 41.8507 9.51214 42.0085 9.60496C41.7542 9.6116 41.7903 9.662 41.7089 9.69734C41.8235 9.78298 41.7681 9.92923 41.8618 10.0603C41.7451 10.0675 41.9029 10.1604 41.7272 10.1489C42.0263 10.5139 41.8652 10.8958 41.573 11.2114C41.6746 11.2683 41.859 11.3344 41.9693 11.3927C41.9505 11.3985 41.9296 11.3906 41.9311 11.3819C41.9542 11.4568 41.7799 11.4901 41.803 11.5649C41.803 11.5649 41.7862 11.5592 41.7526 11.5477C41.7994 11.6132 41.6014 11.6558 41.7224 11.7292L41.6727 11.7343L41.7361 11.7804C41.6864 11.7854 41.6223 11.7703 41.6151 11.7603C41.5052 12.2883 41.7289 12.8672 41.6284 13.419L41.5794 13.3931L41.6623 13.5091C41.6623 13.5091 41.6191 13.5019 41.5982 13.494C41.4924 13.623 41.6387 13.7849 41.5999 13.9117C41.574 13.9074 41.5394 13.9017 41.5135 13.8974M42.5461 7.81114L42.3448 9.6386C42.3181 9.55866 42.2828 9.4773 42.2561 9.39736C42.4575 8.98668 42.1151 8.50792 42.4671 8.12667C42.3755 8.00932 42.4547 7.90699 42.5461 7.81114ZM42.0976 8.23854C42.0479 8.24362 42.0184 8.23427 41.9701 8.2307C41.9867 8.21124 41.9809 8.19252 41.9975 8.17306C42.0068 8.19683 42.0263 8.21338 42.0976 8.23854ZM42.224 7.69106C42.224 7.69106 42.2572 7.70544 42.3105 7.70541C42.2709 7.70327 42.232 7.72346 42.196 7.72637C42.2111 7.71555 42.2125 7.70691 42.2154 7.68962M42.5032 7.13339C42.5032 7.13339 42.5075 7.10746 42.5125 7.10385C42.5435 7.10455 42.5658 7.10382 42.5773 7.08796C42.5737 7.08293 42.5478 7.07862 42.5269 7.07071C42.5283 7.06207 42.5384 7.05486 42.5362 7.04117C42.5946 7.03753 42.6219 7.0332 42.6198 7.01951L42.5947 7.19744C42.537 7.1701 42.4729 7.15502 42.4844 7.13916C42.4844 7.13916 42.4907 7.13724 42.5032 7.13339ZM39.414 10.6532C39.5996 9.18728 40.0482 7.7695 40.7294 6.47474C40.8834 6.13612 41.0618 5.81044 41.2618 5.515L41.8591 4.59268L42.5377 3.7416L42.8515 3.34958C42.8717 3.28186 42.9631 3.23931 43.0452 3.17299L43.0165 3.39917C39.9107 6.7785 39.2573 10.1253 39.5047 12.8355C39.4106 12.1182 39.3662 11.3958 39.4003 10.6553M43.5897 5.45735C43.5897 5.45735 43.6163 5.43068 43.6243 5.40979L43.6495 5.44507C43.6495 5.44507 43.6034 5.45518 43.5897 5.45735ZM43.6711 5.4753L43.6697 5.48395L43.7165 5.54946C43.6913 5.56748 43.6459 5.49333 43.5897 5.51065C43.5854 5.53658 43.7043 5.59629 43.6395 5.61217C43.553 5.54452 43.5257 5.54886 43.5055 5.56328C43.5372 5.53301 43.5516 5.49987 43.5782 5.4732L43.6711 5.4753ZM45.102 8.35981C45.0356 8.27774 44.9592 8.20288 44.8929 8.12081C44.8198 7.51799 44.2304 7.16255 44.2286 6.53159C44.0852 6.45893 44.075 6.30624 44.0641 6.13122C44.514 6.89875 44.848 7.64258 45.0984 8.35477M45.5995 10.4188C45.5007 10.238 45.3868 10.0681 45.5012 9.88725C45.5063 9.88365 45.5128 9.8714 45.5106 9.85772C45.5496 10.0507 45.5814 10.2337 45.6046 10.4151M43.1783 2.98635C43.387 2.74565 43.5979 2.51863 43.8052 2.28657C44.4454 3.13897 44.8289 3.66452 45.2262 4.34781C45.653 4.98714 45.9632 5.68705 46.2747 6.37832C46.5624 6.86576 46.7767 7.42095 46.9723 7.98192C47.1016 8.56742 47.2806 9.14785 47.3098 9.77447C46.9917 7.94518 46.2147 5.9109 44.6431 3.71362L44.4304 3.41628L43.7867 2.55885L43.1245 3.28386L43.1071 3.12109C43.1366 3.07713 43.1596 3.04543 43.1769 2.995M47.3753 62.054C47.4739 61.9149 47.5034 61.8709 47.6575 61.7988C47.4637 61.7622 47.3225 61.7032 47.092 61.6472C47.0682 61.6566 47.0581 61.6638 47.043 61.6746L47.0142 61.6343C47.0142 61.6343 47.0531 61.6141 47.0703 61.6169C47.0293 61.6235 47.012 61.6206 46.9911 61.6127L46.6732 61.2535C46.7373 61.2152 46.7683 61.1626 46.7487 61.0395L46.6277 61.0727C46.6716 60.9423 46.6371 60.9899 46.6882 60.9228C46.5065 60.6795 46.6137 60.5419 46.5329 60.333L46.5178 60.3439C46.3089 60.3181 46.2468 60.1035 46.1798 59.9991L46.2013 59.9227C46.2567 59.7764 45.772 59.8336 46.0118 59.7535C45.7862 59.534 45.5599 59.2921 45.3364 59.033C45.1094 58.7688 44.8406 58.5421 44.5905 58.3096C44.458 58.3053 44.2136 57.9317 44.2022 58.1607C44.2143 57.9007 43.8712 57.5062 43.7227 57.3839C43.7429 57.3694 43.758 57.3586 43.7724 57.3788C43.6734 56.9316 43.3027 57.2653 43.2275 56.8087C43.0396 56.9507 42.7641 56.3631 42.4472 56.4526C42.44 56.3893 42.4573 56.3388 42.4911 56.3222C42.2439 56.1258 41.9874 55.9055 41.7467 55.6968C41.4844 55.5111 41.2293 55.3355 40.9958 55.1902C40.4952 55.1293 40.09 54.5202 39.601 54.6033C39.3337 54.4213 38.8898 54.0989 38.4295 54.0091L38.4806 53.9954C38.0159 53.7717 37.3834 53.6223 36.9981 53.6694C36.9352 53.3791 36.7076 53.3591 36.5188 53.2123C36.1608 53.2017 35.4822 53.0624 34.9521 53.0455C34.8929 52.9202 34.5192 53.0047 34.5205 52.8361C33.0181 52.9509 31.2677 52.7402 29.6672 52.6433C29.4649 52.7651 29.2813 52.9878 29.0934 53.1298C29.0776 53.1183 29.0754 53.1046 29.0905 53.0938C28.8291 53.1437 28.5517 53.0221 28.2788 53.0879C28.2788 53.0879 28.2896 53.0674 28.3112 53.0266C28.0656 53.1413 27.7429 52.9989 27.4635 53.1834L27.4347 53.1431L27.2539 53.2419C27.251 53.2059 27.2388 53.1461 27.274 53.1209C26.2758 53.3016 25.2907 53.6177 24.3467 54.0339C24.1026 54.1399 23.8571 54.2546 23.6216 54.3621L22.8519 54.745L21.8474 55.2045C22.4248 54.8829 22.985 54.5584 23.5264 54.2397C24.1795 53.8107 24.8411 53.3832 25.4992 52.9506L25.4791 53.0716C26.073 52.624 26.7188 52.1849 27.3798 51.735C28.0335 51.2751 28.7355 50.872 29.3214 50.3386L29.261 50.4352C31.423 48.8355 33.2996 47.0819 34.9975 45.121C36.3255 43.676 37.5036 42.1706 38.516 40.5933C40.112 38.1491 41.3363 35.5366 42.2176 32.7429C43.4425 28.8425 43.9843 24.5623 43.8985 19.8626C43.9546 19.8453 44.0187 19.8071 44.1282 19.7364L44.1122 19.565C44.3455 19.4971 44.2613 19.4965 44.3751 19.5065C44.9034 18.9458 45.1051 18.9615 45.5233 18.5557L45.5197 18.5507C45.6476 18.1544 46.0075 17.7523 46.1831 17.4972L46.3149 17.4258C46.5316 17.3241 46.5131 16.4994 46.6062 16.8213C47.3284 15.3602 47.8437 13.5138 47.8663 11.6922C47.7718 11.4322 47.7999 10.3 47.6482 10.7056C47.8359 10.2437 47.6448 8.87967 47.4609 8.40945C47.4904 8.4188 47.5135 8.44039 47.5315 8.51889C47.5316 7.47522 46.941 7.50152 46.9108 6.53277C46.6602 6.49116 46.2415 5.00046 45.7299 4.71123C45.714 4.59312 45.7327 4.53404 45.7831 4.5513C45.5307 4.14522 45.2661 3.73267 45.0087 3.3302C44.5942 2.75065 44.1905 2.18621 43.8279 1.66856C43.3744 2.15287 42.9656 2.58242 42.6647 2.89664C42.5445 3.00548 42.4207 3.10928 42.4135 3.1525L42.4171 3.15754C42.4941 3.09483 42.3279 3.32038 42.2509 3.43639C42.1537 3.56682 42.0515 3.70086 41.9493 3.83489C41.745 4.10296 41.4901 4.35378 41.3023 4.65569C40.9037 5.23793 40.5007 5.79279 40.4081 6.32369C39.9396 7.03201 39.3145 8.30945 39.1784 9.50375L39.1812 9.37986C38.881 10.7068 38.9167 12.4181 39.2017 13.296C39.0111 13.7218 39.1419 14.2986 39.2229 14.8806C39.5396 15.7281 40.1429 17.4449 40.987 18.5399C41.0037 18.7869 41.6545 19.4412 41.5243 19.5573C41.5329 19.5587 41.5696 19.5781 41.5732 19.5832C41.5718 19.5918 41.5826 19.6069 41.5618 19.7589C41.5332 19.9851 41.498 20.2235 41.4643 20.4533C41.3854 20.9288 41.3274 21.4121 41.2196 21.9005C40.9761 22.8593 40.7549 23.8707 40.3773 24.834C39.9978 25.9967 39.4878 27.1157 38.9382 28.1791C38.5483 28.9227 38.1367 29.636 37.736 30.3112C37.5727 30.7859 37.4593 31.3622 37.3069 31.8521C37.2753 31.8824 37.258 31.8795 37.2687 31.8413C36.9414 32.4487 36.4368 32.8934 36.0864 33.4793C36.071 33.4649 36.0753 33.4212 36.0993 33.3482C35.7993 33.9512 35.2176 34.4054 34.8312 35.1007L34.7729 35.1043L34.6837 35.2671L34.5225 35.5424C34.4886 35.5057 34.4353 35.4524 34.544 35.3061C30.7987 40.0493 25.9654 44.23 20.4327 47.1664C20.4896 47.1181 20.5479 47.0612 20.6098 47.0093C20.2678 47.2234 19.8733 47.4599 19.7257 47.5731C19.7364 47.5349 19.7681 47.5046 19.7911 47.4729C19.6126 47.5321 19.4772 47.5985 19.308 47.6814L19.1863 47.7456C19.1474 47.7658 19.0718 47.8198 19.1179 47.7564L19.2258 47.5345C19.2999 47.3825 19.3783 47.2045 19.4545 47.0129C19.5926 46.7161 19.763 46.3047 19.9047 45.9596C19.9242 45.9761 19.8854 46.2095 20.0013 46.02C20.2757 44.902 20.7774 44.3146 20.6084 43.6737C20.6343 43.6247 20.7128 43.6067 20.71 43.7305C21.339 40.584 21.0444 37.1687 19.7179 34.2171C18.3796 31.8987 16.6833 29.4098 14.4559 27.7653L14.5012 27.7329C13.9694 27.2982 13.4325 26.8671 12.8236 26.3885C12.4343 27.1011 12.1092 27.7222 11.7718 28.3901C11.4113 29.0364 11.1662 29.7374 10.8619 30.4197C10.3421 31.8123 9.97782 33.284 9.85991 34.77C9.70026 36.2935 9.83273 37.3414 10.0973 38.8509L10.0318 38.8978C10.4064 40.1458 10.7724 41.4457 11.3199 42.7224C11.8566 43.9839 12.5726 45.2087 13.5477 46.1566L13.3525 46.0754C13.7019 46.2977 14.3011 47.2099 14.4429 47.078C14.5049 47.1327 14.5568 47.1946 14.6187 47.2493L14.7485 47.4308C14.8191 47.4869 14.8861 47.538 14.9582 47.5855C15.0771 47.6985 15.1766 47.7949 15.2652 47.8763L16.739 49.1913C16.703 49.1942 16.6756 49.1985 16.641 49.1928C16.6122 49.2058 16.6339 49.236 16.7693 49.223L16.8276 49.2726C16.7024 49.3318 16.5785 49.3823 16.4582 49.4378L16.3272 49.4782C16.1184 49.559 15.8995 49.647 15.6683 49.7286C15.3032 49.8678 14.936 50.0467 14.5385 50.2472C14.5299 50.2457 14.5148 50.2565 14.5025 50.2501L14.3023 50.3323L14.3621 50.2667C14.1878 50.3533 14.0186 50.4362 13.8458 50.5141L13.0242 50.8351L13.1813 50.9589C13.1813 50.9589 13.2007 50.9755 13.2079 50.9856C13.1503 50.9582 13.1316 50.964 12.9947 50.8791C13.1388 51.0274 13.3283 51.1965 13.5388 51.3736C13.7434 51.5319 13.9452 51.7075 14.1535 51.8709C14.5383 52.1746 14.9397 52.4589 15.3446 52.7482C16.1596 53.3231 17.0135 53.8779 17.7896 54.4731L17.549 54.4243C17.8624 54.5962 18.2444 54.8639 18.6501 55.1755C19.068 55.4936 19.5163 55.8434 19.9537 56.1781C20.2885 56.0071 20.5383 55.8665 20.7709 55.723L22.3515 56.2075L22.1534 56.1968L22.9163 56.3368C22.8947 56.3599 22.855 56.3577 22.814 56.3642C22.917 56.4124 23.0265 56.4484 23.1346 56.493L23.3536 56.5648C23.5063 56.608 23.6504 56.6497 23.801 56.6791L23.9047 56.6963C23.4992 56.7578 23.0879 56.7472 22.6759 56.7144C22.1105 56.6694 21.3858 56.5935 20.9379 56.6168C21.0503 56.742 21.1613 56.876 21.2802 56.989L21.1721 56.9444C21.8461 57.6736 22.1892 58.1747 22.6246 58.7621C23.0428 59.3467 23.5048 59.9075 24.018 60.4013C24.441 60.8224 24.7567 61.0613 25.2229 61.4363L25.1905 61.4975C25.6704 61.7104 26.0272 62.1028 26.4423 62.4382C26.6476 62.6188 26.8581 62.7959 27.0728 62.947C27.2991 63.0823 27.5469 63.1945 27.8156 63.2613L27.7004 63.3132C27.9136 63.2598 28.225 63.6845 28.2954 63.4209L28.4144 63.5872C28.8112 63.5776 29.0887 63.7524 29.3718 63.946C29.6536 64.1482 29.9685 64.3648 30.418 64.3861L30.3524 64.433C30.5786 64.4617 30.8416 64.5097 30.9914 64.6235C30.9605 64.6228 30.9662 64.6415 30.9079 64.6451C31.2084 64.8949 31.583 64.9926 31.9763 65.0312C32.3667 65.0872 32.7615 65.1172 33.131 65.2185L33.0202 65.2978C33.4119 65.2385 34.0682 65.4318 34.5652 65.4344L34.5292 65.4906L34.782 65.4393L34.7821 65.5459C35.4153 65.611 36.0217 65.4896 36.6425 65.495L36.6044 65.5908C37.1741 65.45 37.8274 65.5007 38.4338 65.3794L38.3884 65.4118C39.1721 65.3998 39.89 65.1681 40.6044 64.9847C41.007 64.8872 41.393 64.7559 41.7818 64.6073C43.6456 64.1883 45.6267 63.5179 47.7184 62.5017L47.3451 62.0756L47.3753 62.054Z" fill="#E77622"/>
<path id="Vector_7" d="M25.9747 59.4203C25.9747 59.4203 25.9243 59.403 25.8947 59.3937C25.9005 59.4124 25.9488 59.416 25.9747 59.4203Z" fill="#E77622"/>
<path id="Vector_8" d="M46.4345 44.901C48.1322 44.9741 49.9655 45.354 51.8885 46.2106C52.7278 46.5853 53.5903 47.035 54.4564 47.5962C54.2036 47.5942 53.9407 47.5994 53.6332 47.6061L54.043 47.572C53.5719 47.5737 53.1815 47.5711 52.8581 47.5663C52.1594 47.548 51.7474 47.5151 51.2835 47.4736C50.6417 47.4071 49.8631 47.3089 49.0333 47.2777C48.3728 47.2169 48.0371 47.2589 47.4429 47.2268L47.432 47.1584C46.4382 47.3665 45.3906 46.7751 44.3477 47.0106L44.419 46.9291C44.2628 47.0409 43.8802 46.8574 43.8609 47.0541L43.778 47.0448L43.6873 47.0031C43.6484 47.0233 43.6124 47.0262 43.5713 47.0327L43.1492 47.007L42.4512 46.9577C42.2279 46.9118 41.9931 46.8817 41.7187 46.9027L41.5948 46.8999L41.6351 46.8711C41.5681 46.8733 41.4911 46.8827 41.4241 46.8849L41.0106 46.8607C41.0106 46.8607 40.9847 46.8564 40.9724 46.8499C41.0085 46.847 41.0077 46.8247 41.0574 46.8196C40.793 46.6736 40.6072 46.6694 40.2103 46.679C39.8494 46.6857 39.2797 46.7199 38.9369 46.6985L39.4568 46.6161C39.2804 46.6356 39.0607 46.648 38.993 46.6279C39.0571 46.5897 39.1636 46.5363 39.2789 46.4844C39.5194 46.3733 39.7793 46.2788 39.883 46.1894L39.9954 46.2081C39.9954 46.2081 39.9917 46.1497 39.9975 46.1151L40.2474 46.1344C40.66 45.9764 40.9574 45.7638 41.5954 45.5588L41.5918 45.6604C41.7315 45.5681 41.8842 45.5046 42.0477 45.4562C42.4509 45.3278 42.8989 45.3044 43.3008 45.1846L43.2713 45.2286C44.3422 45.0644 45.3829 44.9218 46.4446 44.8938M55.0437 47.9913C55.2656 48.1525 55.4941 48.3014 55.7146 48.4713L55.747 48.5699C55.6167 48.5261 55.6692 48.557 55.59 48.4995C55.3423 48.6537 55.2111 48.5343 54.9965 48.5963C54.9965 48.5963 55.0052 48.5978 55.0124 48.6079C54.9758 48.8016 54.764 48.8464 54.6625 48.8962L54.5862 48.8746C54.4579 48.7912 54.4741 49.2824 54.4091 49.0318C54.3141 49.1226 54.2118 49.2033 54.101 49.2826C53.7115 49.5688 53.2434 49.8198 52.8035 50.0887C52.7734 50.2169 52.3585 50.3079 52.5732 50.4058C52.3326 50.3036 51.8739 50.4718 51.7083 50.5597C51.7076 50.5374 51.714 50.5252 51.7292 50.5143C51.3243 50.4382 51.4744 50.9251 51.0407 50.7553C51.079 50.9793 50.4711 50.8962 50.387 51.2153C50.3344 51.1844 50.3056 51.144 50.3077 51.1044C49.7619 51.3425 49.1086 51.3983 48.6456 51.5391C48.277 51.8332 47.6337 51.6686 47.3336 52.0052C47.1664 51.9952 46.9475 51.9766 46.7206 51.9789C46.5247 51.9819 46.3122 52.0044 46.1271 52.0758L46.1675 52.047C45.6935 52.066 45.1123 52.1161 44.7782 52.256C44.6441 51.9939 44.4424 52.0315 44.2486 51.9416C43.9238 52.052 43.3072 51.9141 42.8081 51.9512C42.7539 51.8223 42.4011 51.9147 42.4211 51.7404C41.7275 51.7718 40.9718 51.5886 40.2586 51.2837C40.0792 51.2139 39.9113 51.1283 39.7312 51.0362C39.5756 50.9571 39.3652 50.8333 39.3471 50.8081C39.2772 50.721 39.2786 50.6591 39.4075 50.6583C39.2937 50.6483 39.1072 50.6217 38.8788 50.5794C38.7506 50.5492 38.6087 50.5212 38.4841 50.4961C38.3522 50.4609 38.2031 50.4228 38.1714 50.3998C38.2146 50.4069 38.2838 50.4184 38.2874 50.4235C38.4184 50.383 38.9198 50.4663 38.9752 50.4266C39.0079 50.4439 39.0319 50.4597 39.0473 50.4741C39.0271 50.4352 39.1568 50.4568 39.2346 50.4697C39.3124 50.4826 39.3578 50.5034 39.3743 50.4307L39.4031 50.471C39.4031 50.471 39.429 50.422 39.4506 50.3989C39.4593 50.4537 39.4701 50.5221 39.455 50.5329C39.5011 50.5228 39.6739 50.4982 39.7748 50.4794L40.2163 50.415L41.0899 50.2625C41.6689 50.1454 42.2652 50.0313 42.8478 49.9193C43.5514 49.774 44.255 49.6288 44.968 49.5074C45.4398 49.4213 45.9237 49.3418 46.4012 49.2745L46.3206 49.3322L46.7692 49.1713C46.7685 49.2023 46.752 49.2217 46.7268 49.2397C47.3304 49.2422 47.9223 48.9941 48.4877 48.9325C48.4869 48.9635 48.415 49.0226 48.5 49.0456C48.7145 48.9302 48.8226 48.9748 49.1143 48.9566C49.3549 48.9521 49.5861 48.9239 49.5946 48.7654C49.6342 48.7676 49.7308 48.828 49.6854 48.8604C50.9421 48.5939 52.0433 48.4081 53.3663 48.2236C53.8849 48.1498 54.4481 48.0745 55.0696 47.9956M55.2921 49.0096C55.0804 49.161 54.8738 49.3088 54.6636 49.4515C54.6938 49.3233 54.7175 49.2073 54.8082 49.249L54.7902 49.1705C54.9522 49.0242 54.8608 49.2267 55.0185 49.1596C55.0653 49.1185 54.9558 49.0293 55.0919 48.9852C55.1582 49.0673 55.228 49.0478 55.2871 49.0132M44.7813 52.6118C45.1104 52.5821 45.4273 52.5459 45.7485 52.4837C46.1894 52.5036 46.6201 52.4774 47.0392 52.4138C48.4458 52.2076 49.7887 51.6356 51.1434 51.3142C51.4853 51.0468 51.9333 50.9168 52.3913 50.7797C50.5105 51.7288 48.7419 52.2701 47.0933 52.4894C46.2924 52.6051 45.5182 52.6409 44.7813 52.6118ZM39.4963 53.2534C39.8083 53.3806 40.1318 53.4921 40.4689 53.6014C40.1375 53.5108 39.8054 53.3979 39.4963 53.2534ZM38.3366 50.7692C38.624 50.8835 38.9079 50.9928 39.1694 51.1028C39.4028 51.1949 39.6637 51.3359 39.8546 51.4964C39.8777 51.518 39.9145 51.5374 39.9303 51.5489C39.3619 51.308 38.815 51.044 38.3279 50.7677M36.3362 51.6362C36.3362 51.6362 36.3131 51.6146 36.3023 51.5995C36.7116 51.8628 37.1627 52.142 37.6771 52.414C37.1534 52.2249 36.6426 52.0113 36.3362 51.6362ZM37.236 48.5701C37.0877 48.5544 36.9479 48.5401 36.801 48.5157C36.9752 48.4824 37.1531 48.4542 37.3238 48.4159L37.913 48.4516L37.9166 48.4566L37.236 48.5701ZM35.4723 48.8414C35.5414 48.7995 35.6026 48.7786 35.6912 48.8066L35.4723 48.8414ZM33.9836 49.0605C34.227 48.9855 34.5165 48.9003 34.8233 48.818C34.9414 48.8021 35.0545 48.7898 35.1676 48.7774C35.1625 48.781 35.1474 48.7919 35.1388 48.7904C35.1899 48.83 35.2389 48.8559 35.2821 48.8631L33.9836 49.0605ZM34.7322 48.2433L35.4179 48.2861C35.3495 48.2969 35.2782 48.325 35.2083 48.3445C35.1997 48.3431 35.1774 48.3438 35.1687 48.3424L35.1838 48.3316C35.1838 48.3316 35.1529 48.3309 35.1442 48.3295L34.7581 48.2476C34.7581 48.2476 34.7423 48.2361 34.7286 48.2382M34.2361 47.3793L34.164 47.3318C34.3461 47.171 34.2951 47.3447 34.4607 47.2567C34.5025 47.2192 34.3562 47.1638 34.5139 47.0967C34.5954 47.168 34.6602 47.1521 34.7206 47.1089L34.1519 47.5385C34.0863 47.4788 34.0747 47.388 34.2361 47.3793ZM46.9584 43.0561C46.2582 42.9398 45.5812 43.0584 44.9172 43.0991C44.6845 43.136 44.4519 43.1729 44.2265 43.2198C43.0425 43.343 41.9327 43.5807 40.9389 43.8954C38.121 44.7377 36.1109 46.0917 35.3218 46.6713C35.2908 46.6173 35.231 46.5763 35.1143 46.5835L35.1612 46.7023C35.0358 46.6549 35.0834 46.6894 35.0128 46.6333C34.7874 46.7869 34.6512 46.671 34.4589 46.7323L34.4626 46.7374C34.4094 46.9506 34.1077 47.0826 33.9356 47.1828L33.8088 47.1973C33.6785 47.2068 33.6375 47.3199 33.6397 47.3868C33.6318 47.461 33.6506 47.5086 33.5281 47.4438C33.1286 47.7905 32.7045 48.1243 32.22 48.5013C32.6025 48.5248 33.0383 48.5483 33.4604 48.574C33.7348 48.4996 34.2066 48.6268 34.1871 48.4503C34.1813 48.4849 34.208 48.5116 34.2433 48.5396C33.9257 48.6068 33.6621 48.6963 33.5513 48.7756C33.021 48.5987 32.6977 48.7005 32.1784 48.6987C32.1172 48.7196 32.0394 48.76 31.8838 48.7874C32.4437 49.1868 33.137 49.7727 33.7394 50.157C33.7315 50.2311 33.8742 50.3348 33.996 50.4305C34.063 50.4816 34.13 50.5327 34.0825 50.6047C35.2807 51.2256 36.5462 52.2173 37.7028 53.0888C37.9138 53.075 38.1774 52.9855 38.3949 52.9595C38.4006 52.9782 38.3891 52.994 38.3632 52.9897C38.593 53.0767 38.7322 53.3352 38.9886 53.3956C38.9886 53.3956 38.9673 53.4083 38.9246 53.4338C39.1745 53.4531 39.3404 53.7382 39.658 53.7243L39.6508 53.7675L39.8489 53.7782C39.8295 53.815 39.8072 53.869 39.7539 53.869C41.8223 54.7054 44.1682 54.7262 46.3931 54.6204L46.3074 54.6817L46.7395 54.5402C46.7395 54.5402 46.7237 54.582 46.7035 54.5964C47.2646 54.6141 47.8285 54.4545 48.3557 54.3289C48.355 54.3598 48.2866 54.424 48.3716 54.447C48.3968 54.429 48.4256 54.416 48.463 54.4044C48.7827 54.2443 49.0652 54.4689 49.1817 54.1418C49.1975 54.1533 49.2322 54.2124 49.199 54.2513C49.7392 54.1011 50.2684 53.8825 50.802 53.6913C51.3306 53.5037 51.8808 53.3464 52.392 53.1026C52.7527 52.7761 53.1926 52.5604 53.6462 52.3426C54.0804 52.1083 54.5103 51.8465 54.8601 51.5049L54.8925 51.5502C55.0581 51.409 55.2496 51.272 55.4411 51.135C55.7687 50.9007 56.1107 50.6866 56.4447 50.44C56.9725 50.0702 57.5369 49.7198 58.0308 49.3133C58.3144 49.1028 58.5995 48.8303 58.8349 48.6162C58.7167 48.5256 58.5805 48.4097 58.422 48.2945L58.4875 48.2477C58.2079 48.1124 58.0386 47.9822 57.8584 47.8368C57.6783 47.6914 57.4988 47.5151 57.3302 47.3538C56.9821 47.0163 56.6203 46.6808 56.1541 46.5191L56.2593 46.4743C56.0763 46.5061 55.8636 46.1555 55.7485 46.314C55.7254 46.2924 55.6959 46.2831 55.6728 46.2615L55.626 46.196C55.626 46.196 55.5828 46.1888 55.5482 46.1831C55.1987 45.9607 54.8442 45.742 54.5041 45.5434C54.3809 45.4563 54.244 45.3714 54.0855 45.3096C54.0401 45.2887 53.9997 45.2643 53.9594 45.2398L53.9947 45.2146C53.9442 45.1973 53.8974 45.1851 53.8333 45.17C53.7072 45.1002 53.5833 45.0441 53.4521 44.978C53.4709 44.9722 53.4773 44.9599 53.5206 44.9671C53.0218 44.4935 52.2611 44.3672 51.6113 44.1616L51.7272 44.0787C51.3585 44.1063 50.8116 43.789 50.3794 43.7173L50.4139 43.6697L50.187 43.672L50.2093 43.5647C50.1365 43.5482 50.0551 43.5302 49.986 43.5187C49.4961 43.4196 49.0193 43.4026 48.5403 43.3187L48.5921 43.2207C48.0541 43.2779 47.4842 43.0989 46.9325 43.1051L46.9728 43.0762L46.9584 43.0561Z" fill="#E77622"/>
<path id="Vector_9" d="M34.4194 46.7305C34.4194 46.7305 34.3733 46.7406 34.333 46.7694C34.3783 46.737 34.4007 46.7363 34.4194 46.7305Z" fill="#E77622"/>
<path id="Vector_10" d="M56.8631 31.6833C56.8631 31.6833 56.8393 31.6927 56.8293 31.6999C56.8393 31.6927 56.8494 31.6855 56.8631 31.6833Z" fill="#E77622"/>
<path id="Vector_11" d="M48.1618 32.9702L48.1942 33.0688C48.1653 32.9219 48.3447 32.9916 48.2604 32.8311C48.2755 32.8203 48.2841 32.8217 48.2892 32.8181L48.3396 32.8353C48.3396 32.8353 48.3453 32.8008 48.3496 32.7748C48.4562 32.7215 48.5642 32.6595 48.6758 32.6025C48.7651 32.5996 48.8451 32.5729 48.8976 32.4972C48.9127 32.4864 48.9264 32.4842 48.9365 32.477L48.9394 32.513C48.961 32.4899 48.9739 32.4654 48.9955 32.4424C49.0243 32.4294 49.0495 32.4114 49.087 32.3998C49.1057 32.3941 49.1071 32.3854 49.123 32.3969C49.1215 32.4056 49.1323 32.4207 49.1208 32.4365C49.4364 32.5689 49.5608 32.2209 49.7934 32.1307L49.8093 32.2488C49.8726 32.0817 50.1218 32.132 50.2507 32.0246L50.2594 32.0793L50.3076 31.9763L50.3436 32.08C50.5359 32.0186 50.6964 31.8809 50.8851 31.8146L50.8953 31.9139C51.0291 31.6963 51.2733 31.8035 51.4468 31.6946L51.4411 31.7292C51.7918 31.6764 52.1159 31.5437 52.4385 31.4196C53.2142 31.3219 54.0381 31.281 54.9198 31.3208C54.8283 31.3633 54.7433 31.3936 54.662 31.429C54.6635 31.5269 54.5021 31.4824 54.6066 31.6285C54.4877 31.4622 54.3177 31.4695 54.2551 31.4991C54.2493 31.4804 54.2522 31.4631 54.2608 31.4645C54.0619 31.2716 54.2062 31.7397 53.995 31.487C54.0571 31.7016 53.7768 31.4908 53.813 31.7544C53.7841 31.714 53.7603 31.6701 53.7574 31.6341C53.5688 31.7005 53.3332 31.7014 53.1683 31.7584C53.1073 31.9925 52.8068 31.796 52.7839 32.0943C52.6715 32.0756 52.4778 32.039 52.3828 32.1831L52.3835 32.1521C52.2344 32.2207 52.053 32.2971 52.0063 32.4981C51.87 32.2756 51.8225 32.3477 51.7281 32.3009C51.6728 32.4472 51.4474 32.4941 51.3322 32.6527C51.2652 32.5483 51.2271 32.7507 51.1564 32.588C50.842 33.0643 50.2622 33.159 49.7083 33.0981C49.6911 33.2018 49.6883 33.379 49.6704 33.5137C49.6761 33.5324 49.6697 33.5447 49.6682 33.5533C49.6574 33.5382 49.6552 33.5245 49.6653 33.5173C49.5948 33.5678 49.455 33.4469 49.3866 33.511C49.3779 33.4918 49.3755 33.4707 49.3793 33.4476C49.3261 33.5543 49.1639 33.3808 49.1194 33.5422L49.0941 33.5069L49.0589 33.5854C49.0488 33.5393 49.0214 33.4904 49.0343 33.4659C48.2955 33.6896 47.6569 34.2454 46.9066 34.485L46.908 34.423L46.7943 34.5729C46.7943 34.5729 46.7892 34.5232 46.7906 34.5146C46.5717 34.496 46.4414 34.7186 46.252 34.7627C46.2376 34.7425 46.2491 34.6734 46.2073 34.6575C46.1361 34.8456 45.927 34.5533 45.9755 34.8767C45.9597 34.8651 45.9337 34.8075 45.9394 34.773C45.9042 34.7982 45.8703 34.8148 45.8379 34.8227C45.8472 34.7932 45.8602 34.7687 45.8659 34.7341L45.8984 34.7795C46.0897 34.3227 46.5916 34.1618 46.922 33.8569C47.084 33.7639 47.1466 33.6277 47.2992 33.5109L47.3425 33.5714C47.4546 33.1636 48.0382 33.3938 48.1654 32.9752M54.5946 31.8886L52.139 32.8221C52.2261 32.7522 52.3147 32.6737 52.3982 32.5987C53.0334 32.5176 53.4767 31.9339 54.1481 32.0098C54.2517 31.8672 54.4152 31.8721 54.5946 31.8886ZM55.5307 31.4933C55.5307 31.4933 55.4866 31.3571 55.5443 31.3845C55.5854 31.4846 55.6149 31.4939 55.6423 31.4896L55.5861 31.5069C55.5861 31.5069 55.5775 31.5055 55.5602 31.5026C55.5602 31.5026 55.5564 31.5079 55.5487 31.5184L55.3924 31.5769C55.3909 31.4789 55.388 31.3896 55.4406 31.4739L55.4226 31.3954C55.4794 31.3471 55.4579 31.4767 55.5235 31.4832M46.8115 37.92C47.0513 37.7866 47.2752 37.695 47.5135 37.5169C47.7231 37.4051 47.8216 37.2661 48.0182 37.1255L48.0614 37.186C48.2427 36.7364 48.9011 36.9434 49.0794 36.4579L49.1119 36.5565C49.083 36.4096 49.2991 36.4455 49.2133 36.2935L49.2486 36.2683L49.299 36.2856C49.299 36.2856 49.3098 36.2474 49.3141 36.2215L49.7015 35.9749C49.79 35.9496 49.8851 35.9121 49.947 35.8069L49.9873 35.7781L49.9974 35.8241C50.0118 35.791 50.0334 35.7679 50.06 35.7413L50.1709 35.662C50.1709 35.662 50.1946 35.6526 50.2069 35.6591C50.2054 35.6677 50.2163 35.6828 50.212 35.7088C50.5851 35.7618 50.7058 35.3555 50.9672 35.1991L50.9968 35.315C51.0471 35.1191 51.3431 35.0749 51.4705 34.9229L51.4842 34.974L51.5338 34.8623L51.5951 34.948C51.8025 34.8225 51.9486 34.6114 52.1501 34.4672L52.1927 34.5587C52.2869 34.2856 52.6002 34.2977 52.7571 34.1017L52.76 34.1377C53.1517 33.9185 53.4497 33.6215 53.7751 33.3203L56.5679 31.5056C56.7717 31.535 56.9813 31.5831 57.1874 31.6262C57.1111 31.7112 56.949 31.6443 56.8503 31.6768C56.8503 31.6768 56.859 31.6782 56.8662 31.6883C56.9563 31.8143 56.8418 31.8353 56.8015 31.8641L56.7373 31.849C56.5997 31.7951 56.8952 32.1017 56.7079 31.9463C56.6346 32.1739 56.4964 32.4175 56.3561 32.6473C56.4138 32.728 56.2323 32.8044 56.4146 32.8569C56.21 32.8052 56.0545 32.9392 56.0221 33.0005C56.0063 32.989 55.9919 32.9688 55.9969 32.9652C55.7088 32.9351 56.0972 33.2439 55.768 33.167C55.9395 33.311 55.5873 33.3191 55.7351 33.5257C55.6846 33.5085 55.6515 33.4941 55.6248 33.4675C55.4816 33.6613 55.244 33.8084 55.113 33.9554C55.1593 34.2118 54.7847 34.2207 54.8923 34.5094C54.7684 34.5599 54.5488 34.6256 54.5121 34.8194L54.4941 34.7942C54.3768 34.939 54.2228 35.1178 54.2488 35.3353C54.0276 35.1964 54.0046 35.2814 53.8858 35.275C53.8708 35.4457 53.6519 35.587 53.5764 35.801C53.4813 35.7319 53.485 35.9501 53.369 35.8199C53.1569 36.4286 52.5074 36.756 51.8837 36.8213C51.8759 36.9487 51.9019 37.1663 51.8854 37.2923C51.8746 37.2772 51.8602 37.257 51.8753 37.2462C51.7954 37.3262 51.6254 37.2269 51.5505 37.3033C51.5385 37.2865 51.5344 37.2666 51.5382 37.2436C51.4836 37.3588 51.2933 37.2207 51.2473 37.3907L51.2185 37.3504L51.1854 37.4426C51.1616 37.3986 51.1299 37.3223 51.15 37.3079C50.3205 37.6498 49.5142 38.2266 48.5642 38.3575L48.5915 38.2999L48.4202 38.4225C48.4202 38.4225 48.4223 38.3828 48.4302 38.3619C48.1896 38.3131 47.9672 38.5027 47.7331 38.4949C47.7374 38.469 47.7647 38.4113 47.7258 38.3782C47.6531 38.4683 47.576 38.4244 47.5134 38.4007C47.4841 38.381 47.4562 38.4238 47.4299 38.529C47.4299 38.529 47.4392 38.4461 47.4485 38.4166C47.2289 38.5356 46.8285 38.5401 46.7384 38.4675C46.6073 38.5079 46.5 38.5389 46.4006 38.5491C46.3221 38.5671 46.2624 38.5794 46.204 38.583C46.0909 38.5954 45.9195 38.6113 46.0484 38.5572C46.1881 38.4649 46.3112 38.3921 46.1923 38.3324L46.242 38.3273L46.3277 38.3193C46.2816 38.2229 46.5595 38.0469 46.8029 37.9186M57.3134 31.6427L57.3278 31.6628C57.3278 31.6628 57.2897 31.652 57.2738 31.6405L57.3134 31.6427ZM57.2589 31.9178L57.0941 32.188C57.0364 32.1074 56.986 32.0369 57.0782 32.0699L57.0162 32.0152C57.0442 31.9266 57.0983 32.0555 57.1638 32.0087C57.1682 31.9827 57.0442 31.9266 57.1141 31.9071C57.2049 31.9488 57.2409 31.9459 57.2625 31.9229M56.5307 33.0938C55.8665 34.0716 55.182 34.904 54.4737 35.5858C54.5435 35.4597 54.6133 35.3336 54.6694 35.2097C54.9855 34.9912 55.2071 34.6727 55.4115 34.3514C55.6194 34.035 55.8404 33.7475 56.1737 33.5319C56.1858 33.3252 56.3471 33.2099 56.5293 33.1024M52.8763 36.8883C52.8763 36.8883 52.9 36.879 52.9173 36.8818C52.7057 37.0332 52.4983 37.1587 52.2924 37.2755C52.4615 37.0859 52.6249 36.8777 52.8712 36.8919M49.3628 40.3155C48.9682 40.4987 48.5505 40.607 48.1745 40.5179C48.5612 40.4622 48.9444 40.4014 49.3628 40.3155ZM50.5253 33.4203L50.5598 33.426L49.996 33.6388C50.158 33.4925 50.3113 33.3448 50.5253 33.4203ZM48.9771 34.0248C49.1139 33.9498 49.2428 33.8957 49.3897 33.8668L48.9771 34.0248ZM41.5399 39.1766L41.4089 39.2703C41.4413 39.2091 41.4852 39.1853 41.5399 39.1766ZM43.7584 40.4465C43.2858 40.297 42.8039 40.177 42.3191 40.0743C41.7975 39.9522 41.1031 39.8014 40.5232 39.6296C40.7255 39.5077 40.9393 39.37 41.1676 39.2525C41.1935 39.2568 41.213 39.2733 41.2288 39.2848L41.2361 39.3482L41.2771 39.3417L41.2447 39.2964C41.2447 39.2964 41.3052 39.3064 41.3261 39.3143L40.9236 39.5717L42.8118 40.1028C43.2109 40.2135 43.7447 40.3421 44.3995 40.4374C44.1848 40.4462 43.9752 40.4514 43.7498 40.4451M40.798 39.1512L40.8002 39.1115C40.8002 39.1115 40.8232 39.1331 40.834 39.1482C40.8254 39.1468 40.8081 39.1439 40.798 39.1512ZM47.9912 30.9211L47.971 30.8289C47.6701 31.1431 47.1941 31.2551 46.8593 31.5326L46.8615 31.493C46.3661 31.7483 45.9781 32.1324 45.58 32.4705C45.444 32.6211 45.2957 32.7653 45.151 32.9144C44.5225 33.463 43.9719 34.0244 43.5149 34.557C42.6447 35.5983 42.095 36.5019 41.8554 36.9551L40.8597 38.7795C40.8158 38.75 40.7588 38.6916 40.8611 38.6109C40.7883 38.5944 40.5428 38.7091 40.6228 38.8423C40.6524 38.9582 40.6373 39.0756 40.695 39.1563C40.6554 39.1541 40.6244 39.1534 40.605 39.1369C40.2767 39.3488 39.9023 39.5709 39.5495 39.7699C39.9774 39.9209 40.3722 40.0575 40.7454 40.1639C41.5233 40.1864 42.241 40.6787 42.4728 40.4595C42.6659 40.5804 43.0168 40.7941 43.3661 40.75L43.3258 40.7788C43.6924 40.8441 44.1506 40.9202 44.4263 40.7839C44.4971 41.0532 44.6577 41.0221 44.809 41.1272C45.074 41.0291 45.5675 41.1332 45.9542 41.0242C46.0047 41.1481 46.2588 40.9815 46.2748 41.1529C46.8214 40.9905 47.4192 40.921 48.035 40.8767C48.6169 40.8489 49.2097 40.8363 49.778 40.8107C49.8888 40.6781 50.0003 40.4613 50.114 40.3114C50.1299 40.3229 50.127 40.3402 50.1119 40.351C50.297 40.2796 50.5145 40.3601 50.7061 40.2764C50.7061 40.2764 50.701 40.2978 50.691 40.3405C50.8414 40.2101 51.1124 40.3439 51.2829 40.1457L51.3118 40.186L51.4269 40.0808C51.4371 40.1269 51.4493 40.1866 51.4191 40.2083C53.1107 39.6231 54.4892 38.3552 55.7964 37.1688L55.7821 37.2553L55.9663 36.9483C55.9663 36.9483 55.9865 36.9872 55.9786 37.0081C56.1708 36.8934 56.332 36.7248 56.4724 36.5482C56.5969 36.3602 56.7177 36.1671 56.8639 36.0092C56.8819 36.0344 56.8812 36.1187 56.9439 36.0891C57.0358 35.7491 57.4356 35.8288 57.282 35.4969C57.308 35.5012 57.3692 35.5335 57.3671 35.5731C57.6355 35.2136 57.8441 34.813 58.1003 34.4469C58.3457 34.0657 58.63 33.7176 58.8653 33.3437C58.9713 32.5441 59.6164 31.9761 59.7534 31.1773L59.8024 31.2032C59.8865 30.9373 59.9584 30.7183 60.0677 30.4878C59.2494 30.2808 58.5296 29.9881 57.7481 29.8539C57.3439 29.7469 57.0558 29.7168 56.6214 29.6847L56.6243 29.6141C55.8847 29.8155 55.1388 29.1454 54.3712 29.4887L54.423 29.3908C54.3158 29.5284 54.0355 29.3708 54.0082 29.5351C53.9772 29.5344 53.9499 29.5387 53.9153 29.533L53.8699 29.5121C53.8699 29.5121 53.8411 29.5251 53.8209 29.5395C53.5047 29.5448 53.2044 29.5615 52.9062 29.592C52.7924 29.5819 52.6635 29.5827 52.5411 29.6246C52.4777 29.6318 52.423 29.6405 52.3646 29.6442L52.3797 29.6333C52.3437 29.6362 52.3149 29.6492 52.2739 29.6557C52.1558 29.6717 52.0376 29.6876 51.9181 29.7121C51.9145 29.7071 51.9094 29.7107 51.8922 29.7078C51.9159 29.6985 51.9015 29.6783 51.9389 29.6668C51.3777 29.4892 50.8623 29.9188 50.3294 30.0257L50.3631 29.9026C50.1457 30.0885 49.656 30.1493 49.3399 30.3145L49.3399 30.2612L49.2031 30.3895L49.1584 30.2843C48.7155 30.4107 48.3872 30.7292 47.9826 30.9197" fill="#E77622"/>
<path id="Vector_12" d="M51.7587 18.4983C51.887 18.6351 51.5974 18.5604 51.7538 18.7684C51.7048 18.7425 51.6681 18.7231 51.6429 18.6878C51.5299 18.8067 51.357 18.8846 51.2606 18.9841C51.3227 19.1987 51.0093 19.1334 51.1449 19.3868C51.0527 19.407 50.8748 19.4352 50.8814 19.5829L50.8634 19.5577C50.7914 19.6701 50.6892 19.8041 50.7621 19.9806C50.5509 19.8345 50.5431 19.9087 50.4465 19.9015C50.4805 20.0448 50.3343 20.1494 50.328 20.3215C50.2228 20.2596 50.2906 20.4397 50.1594 20.3202C50.1569 20.8172 49.7652 21.0897 49.3187 21.211C49.3584 21.3197 49.4673 21.4932 49.5278 21.6099C49.512 21.5984 49.4839 21.5804 49.499 21.5696C49.4774 21.6459 49.3017 21.5812 49.2751 21.6612C49.2751 21.6612 49.2642 21.6461 49.2426 21.6158C49.2528 21.7152 49.0453 21.6275 49.0951 21.7823L49.0662 21.742L49.0692 21.8313C49.0353 21.7946 48.9805 21.7499 48.9956 21.7391C48.5436 22.1615 48.3438 22.83 47.8874 23.2783L47.8701 23.2222L47.8615 23.3806C47.8385 23.359 47.8313 23.349 47.8291 23.3353C47.6505 23.3945 47.6629 23.6141 47.5391 23.7179C47.521 23.6927 47.4936 23.6438 47.4591 23.638C47.467 23.7237 47.426 23.7302 47.3713 23.7389C47.4287 23.4465 47.6655 23.2237 47.7561 22.9457C47.8532 22.8152 47.8373 22.6971 47.9013 22.5523L47.9626 22.5847C47.8406 22.2224 48.4327 22.2408 48.3273 21.8591L48.3857 21.9088C48.3208 21.8181 48.4771 21.8129 48.3416 21.7194C48.3431 21.7107 48.3531 21.7035 48.351 21.6898L48.4043 21.6898C48.4043 21.6898 48.3913 21.661 48.3805 21.6459C48.4431 21.563 48.4884 21.4773 48.551 21.3944C48.6122 21.3735 48.6604 21.3238 48.6698 21.2409C48.6748 21.2373 48.6813 21.2251 48.6914 21.2179L48.7094 21.2431L48.7209 21.1739C48.7209 21.1739 48.7518 21.1213 48.7683 21.1018C48.777 21.1033 48.7835 21.091 48.7885 21.0874C48.7993 21.1025 48.8116 21.109 48.8173 21.1277C49.1184 21.1333 49.0512 20.8157 49.1786 20.6637L49.2471 20.7594C49.2038 20.5923 49.4278 20.554 49.4594 20.4171L49.4918 20.4625L49.4867 20.3595L49.5631 20.4344C49.6797 20.3205 49.7135 20.144 49.8337 20.0352L49.8913 20.1158C49.8854 19.8839 50.1231 19.8967 50.185 19.7382L50.2102 19.7735C50.4356 19.6199 50.5982 19.3893 50.7781 19.1616C51.0906 18.9381 51.4268 18.7052 51.7846 18.5026M51.8862 18.4529C51.9035 18.509 51.9259 18.5616 51.7897 18.499C51.8185 18.486 51.8538 18.4608 51.8862 18.4529ZM52.0064 18.3973C52.0871 18.3397 52.1735 18.3007 52.2613 18.2531C52.2736 18.3129 52.1764 18.3367 52.3147 18.413C52.1677 18.3353 52.0518 18.3649 52.0064 18.3973C51.9913 18.4081 51.9899 18.4168 51.9848 18.4204L51.974 18.4053C51.974 18.4053 51.9942 18.3909 52.0028 18.3923M52.8517 17.9603C52.8849 17.9747 52.9101 18.01 52.9425 18.002C52.944 17.9934 52.9137 17.9617 52.8957 17.9365C52.9007 17.9329 52.9108 17.9257 52.9245 17.9235C52.9792 17.9681 53.0001 17.9761 53.0203 17.9616L52.8879 18.1173C52.8352 18.0331 52.7884 17.9675 52.8655 18.0114L52.8258 17.956C52.8258 17.956 52.8445 17.9502 52.8496 17.9466M52.4315 18.6189L51.0301 20.1849C51.0582 20.0963 51.0862 20.0077 51.1121 19.9054C51.5556 19.6415 51.5898 19.0077 52.1472 18.8604C52.1521 18.6969 52.2832 18.6564 52.4315 18.6189ZM49.8296 21.5312C49.8756 21.3612 49.928 21.1789 50.1276 21.1809C50.1326 21.1773 50.1427 21.1701 50.1513 21.1716L49.8296 21.5312ZM49.2509 22.1812C49.3077 22.0796 49.3804 21.9895 49.4812 21.9175L49.2509 22.1812ZM54.5137 17.3124C54.4734 17.3946 54.3344 17.4026 54.2574 17.4653C54.2574 17.4653 54.2624 17.4617 54.2761 17.4595C54.4051 17.512 54.3194 17.5733 54.295 17.6137L54.2352 17.6259C54.0911 17.6376 54.4902 17.7482 54.2568 17.7095C54.3031 17.9126 54.2866 18.1452 54.2681 18.3642C54.3552 18.4009 54.2321 18.527 54.4151 18.4952C54.2134 18.5328 54.148 18.6862 54.1415 18.7518C54.1257 18.7403 54.112 18.7424 54.1084 18.7374C53.8412 18.8218 54.3289 18.9072 53.9976 18.9766C54.2072 19.0247 53.9041 19.1654 54.1498 19.2639C54.095 19.2726 54.0554 19.2704 54.0172 19.2597C53.9756 19.457 53.8461 19.6487 53.8066 19.8065C53.9673 19.9886 53.6469 20.1264 53.8782 20.3113C53.8019 20.3964 53.6464 20.5305 53.7135 20.6882L53.6955 20.663C53.6545 20.8294 53.6143 21.0181 53.7419 21.1858C53.4826 21.1428 53.5042 21.2263 53.4041 21.2674C53.4791 21.4043 53.3683 21.5902 53.416 21.7846C53.295 21.7645 53.4103 21.9258 53.2504 21.8726C53.3732 22.417 53.0076 22.907 52.5403 23.1803C52.5973 23.2919 52.7227 23.446 52.7833 23.5626C52.7746 23.5612 52.7501 23.5482 52.753 23.531C52.7322 23.6296 52.5456 23.6031 52.5176 23.6917C52.5176 23.6917 52.5051 23.6778 52.4801 23.65C52.496 23.7681 52.2655 23.7121 52.3189 23.8719L52.2785 23.8475L52.2901 23.9382C52.2462 23.9087 52.1755 23.8526 52.2094 23.836C51.7243 24.4039 51.3956 25.1798 50.7376 25.6657L50.7303 25.6023L50.6656 25.7781C50.6656 25.7781 50.6454 25.7392 50.6483 25.7219C50.4099 25.7934 50.4482 25.9641 50.3244 26.0146C50.3251 25.9836 50.3279 25.913 50.32 25.8806C50.2538 26.1183 50.2939 25.6631 50.1905 26.1256C50.1847 26.1068 50.2106 26.0045 50.2264 25.9628C50.0522 26.2092 49.7599 26.365 49.6965 26.3189C49.5137 26.5106 49.3697 26.6288 49.2638 26.7045C49.1731 26.7694 49.0623 26.8487 49.1277 26.7485C49.2011 26.6275 49.263 26.5223 49.0938 26.6052L49.214 26.4964C49.0909 26.5159 49.2276 26.281 49.365 26.0685C49.5161 25.8537 49.6701 25.675 49.7385 25.5043C49.8392 25.3789 49.8463 25.229 49.942 25.054L50.0133 25.0791C49.9338 24.6484 50.5748 24.5861 50.4845 24.1403L50.5501 24.2C50.4708 24.0892 50.6501 24.0523 50.5024 23.9523L50.5118 23.9228L50.5665 23.9141C50.5665 23.9141 50.5535 23.8853 50.5528 23.863L50.7413 23.5301C50.8082 23.4746 50.8629 23.4126 50.8715 23.3074L50.8823 23.2692L50.9075 23.3045C50.9075 23.3045 50.919 23.2354 50.9219 23.2181L50.9787 23.1165C50.9787 23.1165 50.9902 23.1006 51.0003 23.0934C51.0061 23.1121 51.0147 23.1136 51.0241 23.1373C51.3582 23.0507 51.255 22.6827 51.3903 22.4565L51.4775 22.5464C51.4183 22.3678 51.6408 22.2316 51.6645 22.0623L51.7084 22.0918L51.686 21.9859L51.784 22.0377C51.8898 21.8554 51.9098 21.6278 51.9968 21.4513L52.0797 21.5139C52.0198 21.2597 52.2848 21.1616 52.3206 20.9455L52.3387 20.9706C52.5452 20.663 52.6523 20.3121 52.763 19.9663L54.2156 17.3962C54.3193 17.3601 54.4215 17.3327 54.5252 17.2966M54.7515 17.4852C54.7422 17.568 54.7415 17.6523 54.7358 17.7402C54.6487 17.7035 54.5615 17.6668 54.6558 17.6603L54.5831 17.6437C54.56 17.5688 54.6724 17.6408 54.7084 17.5846C54.694 17.5644 54.56 17.5688 54.6068 17.5278C54.7134 17.5277 54.7436 17.5061 54.7465 17.4888M54.0704 21.2937C54.0696 21.1647 54.0623 21.0481 54.0565 20.9227C54.3918 20.3478 54.1349 19.6478 54.5329 19.0966C54.4485 18.936 54.5399 18.7868 54.6536 18.6369C54.531 19.6159 54.335 20.5026 54.0704 21.2937ZM53.3864 22.8722L53.4217 22.847C53.3231 23.0394 53.2188 23.213 53.1044 23.3939C53.1453 23.1742 53.179 22.9444 53.3864 22.8722ZM44.6911 28.2992L44.6184 28.2827C44.5931 28.1408 44.7091 28.2711 44.7364 28.1602C44.7263 28.1141 44.5931 28.1408 44.637 28.0637C44.7399 28.0586 44.7731 28.0197 44.7766 27.9714L44.7632 28.4533C44.6717 28.3893 44.591 28.3403 44.6861 28.3028M47.3713 23.8455C47.3713 23.8455 47.3764 23.8419 47.3728 23.8369L47.3908 23.8621C47.3908 23.8621 47.3749 23.8506 47.3713 23.8455ZM51.0531 27.992C50.7659 28.2507 50.4808 28.5232 50.1236 28.5349C50.1185 28.5385 50.0998 28.5443 50.0775 28.545C50.3936 28.3799 50.7176 28.1938 51.0495 27.9869M52.097 27.2148C52.2748 27.08 52.462 26.9157 52.6304 26.7571C52.4778 26.9272 52.2907 27.0916 52.097 27.2148ZM49.3137 17.9237L49.2964 17.8675L49.231 18.0209L49.1546 17.9461C48.8573 18.2121 48.6104 18.4953 48.3671 18.7835L48.3059 18.6979C48.193 19.0833 47.7826 19.255 47.5941 19.5878L47.584 19.5418C47.1521 20.0563 46.8406 20.6219 46.5745 21.2084C45.0232 23.8643 44.8117 26.5294 44.7936 27.4413C44.7194 27.4334 44.6596 27.4457 44.5948 27.5149L44.718 27.5487C44.5942 27.5992 44.6539 27.5869 44.5632 27.5985C44.5417 27.7814 44.3739 27.8024 44.294 27.9357C44.294 27.9357 44.2991 27.9321 44.3027 27.9372C44.4381 28.0307 44.3597 28.1554 44.3309 28.2217L44.2697 28.2426C44.13 28.2816 44.5313 28.4592 44.2922 28.4018C44.3443 28.7835 44.3395 29.2135 44.3275 29.6334C44.3945 29.6845 44.35 29.8459 44.4026 29.8768L44.301 29.8733L44.3932 29.9063C44.3932 29.9063 44.4047 29.8905 44.4148 29.8833L44.4552 29.9077L44.4401 29.9186L44.3968 29.9114C44.3234 30.0324 44.2565 30.1412 44.1846 30.2536C44.2163 30.3833 44.076 30.6131 43.9177 30.8711C44.2051 30.8255 44.5422 30.7749 44.9367 30.5384C45.1658 30.5498 45.7434 30.548 46.2604 30.3229L46.21 30.359C46.555 30.2874 46.6263 30.2593 46.8049 30.2001C46.9575 30.1366 47.0994 30.058 47.1922 29.9535C47.3321 30.1811 47.4689 30.1061 47.618 30.1441C47.7944 29.9647 48.2251 29.8852 48.5001 29.6733C48.5909 29.7683 48.7398 29.5398 48.8156 29.699C49.5686 29.069 50.5825 28.6866 51.546 28.3403C51.5941 28.1839 51.5983 27.9448 51.6342 27.782C51.6529 27.7762 51.6645 27.8137 51.6443 27.8281C51.7725 27.6984 52.0131 27.7472 52.1304 27.6023C52.1424 27.6191 52.1472 27.6436 52.1448 27.6758C52.2254 27.5115 52.4934 27.556 52.558 27.3269L52.5984 27.3514L52.6559 27.2188C52.6812 27.2541 52.7186 27.2958 52.7079 27.334C53.9101 26.3523 54.6554 24.9127 55.364 23.5603L55.3871 23.6352L55.4265 23.3175C55.4496 23.3391 55.4553 23.3578 55.4626 23.3679C55.7173 23.0638 55.748 22.6381 55.8724 22.2901C55.902 22.2995 55.9301 22.3707 55.9755 22.3383C55.9169 22.0221 56.3109 21.9765 56.0558 21.7476C56.0709 21.7368 56.1386 21.7569 56.1588 21.7958C56.2493 21.4111 56.3038 21.0294 56.3857 20.6432C56.4488 20.2629 56.5948 19.8919 56.6543 19.5065C56.4155 18.8317 56.8314 18.1458 56.5839 17.4696L56.6444 17.4796C56.5743 17.126 56.5662 16.7738 56.5904 16.4137L56.6225 15.8727L56.6379 15.2446C56.4528 15.2095 56.254 15.1765 56.0674 15.1499C55.9046 15.114 55.7995 15.1054 55.6475 15.0846C55.4293 15.1417 55.2989 15.2044 55.0742 15.2737L55.0511 15.1988C54.5242 15.6443 53.6877 15.2523 53.1867 15.8086L53.2004 15.6999C53.1608 15.8576 52.8806 15.8067 52.9218 15.9601C52.893 15.973 52.8656 15.9774 52.8368 15.9904L52.8073 15.981C52.8073 15.981 52.7857 16.0041 52.7828 16.0214C52.5351 16.1224 52.3011 16.2212 52.0707 16.3251C51.9511 16.3496 51.8272 16.4001 51.7149 16.4881C51.6897 16.5061 51.6509 16.5263 51.6185 16.5342L51.6228 16.5083C51.5976 16.5263 51.5774 16.5407 51.5608 16.5602C51.4593 16.61 51.3614 16.6648 51.2649 16.7109C51.2663 16.7023 51.2692 16.685 51.2858 16.6655C50.752 16.6435 50.4628 17.1551 50.074 17.4103L50.0545 17.2872C49.9423 17.535 49.5109 17.6455 49.3253 17.9078" fill="#E77622"/>
<path id="Vector_13" d="M51.5342 28.3871C51.5342 28.3871 51.5364 28.4012 51.5312 28.4049L51.5342 28.3871Z" fill="#E77622"/>
<path id="Vector_14" d="M44.2479 28.0301C44.2479 28.0301 44.2623 27.997 44.2688 27.9847C44.2464 27.9854 44.2544 28.0178 44.2479 28.0301Z" fill="#E77622"/>
<path id="Vector_15" d="M32.2908 12.8682L32.3088 12.7868C32.4507 12.8681 32.3247 12.9049 32.4076 13.0208C32.4458 13.0316 32.4558 12.8645 32.5236 12.9912C32.4891 13.092 32.5114 13.1446 32.5575 13.1878L32.1778 12.8805C32.2144 12.7933 32.2569 12.7249 32.2908 12.8682ZM30.4721 16.2791C30.15 17.2027 29.9439 18.0967 29.8357 18.9359C29.8168 18.7284 29.8102 18.5275 29.8065 18.3092C30.0372 17.5881 30.1289 16.8217 30.3546 16.1041C30.4869 15.682 30.6631 15.2893 30.9452 14.9276C30.9753 14.6394 31.1667 14.3959 31.374 14.1638C31.0057 14.8843 30.7058 15.594 30.4822 16.2719M32.6672 15.7375L32.7356 15.7799C32.7299 15.8678 32.647 15.7519 32.5988 15.8016C32.5974 15.8103 32.6428 15.8311 32.6658 15.8527L32.5974 15.8636C32.5974 15.8636 32.5542 15.8564 32.5391 15.8672C32.5606 15.7909 32.5995 15.7174 32.6347 15.6388C32.7003 15.6986 32.7644 15.767 32.6708 15.7425M32.5075 16.1107C32.6113 16.1279 32.5904 16.12 32.6285 16.1308C32.6905 16.1855 32.7439 16.2388 32.8008 16.2971C32.8922 16.2545 32.9183 16.4187 33.0025 16.2595C32.9017 16.4382 32.9875 16.5901 33.0387 16.6297C33.0236 16.6405 33.0034 16.6549 33.0027 16.6326C32.9013 16.8955 33.2756 16.5669 33.1274 16.8709C33.293 16.7296 33.2061 17.0661 33.4408 16.9363C33.4149 16.9853 33.3883 17.0119 33.353 17.0371C33.4799 17.1826 33.5628 17.4051 33.6702 17.5339C33.9173 17.5172 33.8116 17.8594 34.1033 17.7879C34.1242 17.9024 34.1359 18.0998 34.3059 18.1458L34.2598 18.1559C34.3787 18.2689 34.4926 18.4388 34.6936 18.4322C34.5108 18.6239 34.5871 18.6455 34.5613 18.7478C34.7118 18.7772 34.8178 18.968 34.9843 19.0622C34.8943 19.1495 35.0988 19.1479 34.9491 19.2474C35.4743 19.4811 35.6295 20.0709 35.5715 20.6076C35.6839 20.6262 35.8849 20.6196 36.0232 20.6426C36.008 20.6534 35.9893 20.6592 35.9821 20.6491C36.0448 20.7261 35.9117 20.8595 35.9794 20.9329C35.9794 20.9329 35.96 20.9341 35.9211 20.9365C36.0227 20.9934 35.8607 21.1397 36.007 21.195L35.9666 21.2239L36.0452 21.2591C35.9955 21.2642 35.9465 21.2916 35.922 21.2786C36.104 22.0017 36.5114 22.7311 36.5033 23.5291L36.4456 23.5018L36.5538 23.653C36.5538 23.653 36.5105 23.6458 36.4896 23.6379C36.4084 23.8331 36.5562 24.0398 36.5282 24.235C36.4936 24.2292 36.441 24.1983 36.4144 24.225C36.4922 24.2912 36.4411 24.3582 36.4044 24.3921C36.3727 24.4224 36.3655 24.4123 36.524 24.4741C36.5053 24.4799 36.4426 24.4562 36.4131 24.4468C36.4405 24.4958 36.4528 24.5556 36.4564 24.6139C36.4846 24.7918 36.4343 24.9877 36.3861 25.0375C36.4699 25.4422 36.4398 25.6237 36.406 25.7469C36.3909 25.811 36.3686 25.8651 36.36 25.9702L36.3479 26.177L36.343 26.3405L36.3373 26.4283L36.3148 26.2159C36.2868 26.4111 36.1887 26.1461 36.1165 25.8854C36.0422 25.611 35.9923 25.3496 35.9151 25.1991C35.8783 25.0198 35.7933 24.9968 35.7204 24.8204L35.7751 24.7584C35.4344 24.6441 35.7689 24.0468 35.3769 23.8396L35.4763 23.8294C35.32 23.8346 35.4323 23.64 35.2559 23.7129L35.2378 23.6877L35.2673 23.6437C35.2515 23.6322 35.2342 23.6293 35.2183 23.6178L35.0827 23.2578C35.092 23.1749 35.0704 23.0914 35.0026 23.018L34.9774 22.9827L35.022 22.9812C34.999 22.9596 34.9773 22.9294 34.9564 22.9215L34.9168 22.8127C34.9168 22.8127 34.9023 22.7926 34.9175 22.7818C34.9261 22.7832 34.9412 22.7724 34.9607 22.7889C34.9974 22.7018 35.0016 22.6225 34.9785 22.5476C34.9266 22.3791 34.7399 22.246 34.6793 22.0761L34.7974 22.0601C34.6267 21.9918 34.6647 21.7361 34.5487 21.6058L34.6034 21.5971L34.5054 21.5453L34.6055 21.5042C34.5369 21.3019 34.3805 21.1471 34.2954 20.9642L34.4013 20.9418C34.1635 20.8224 34.2563 20.558 34.115 20.3924L34.1546 20.3946C34.05 20.0352 33.851 19.7357 33.6549 19.4189L32.4449 16.1403C32.4989 16.1626 32.553 16.1849 32.6214 16.174L32.5162 16.1121L32.5075 16.1107ZM32.9334 25.5035L32.9226 25.4884C32.9226 25.4884 32.9384 25.4999 32.9572 25.4941C32.9521 25.4977 32.9384 25.4999 32.9334 25.5035ZM32.8185 22.6376L32.8641 22.9783C32.8244 22.8695 32.8034 22.755 32.8185 22.6376ZM32.676 21.6502L32.7447 22.1191C32.6402 21.9729 32.5443 21.8282 32.663 21.6747C32.6681 21.6711 32.6745 21.6588 32.6796 21.6552M32.4754 24.597C32.4379 24.4486 32.3291 24.3817 32.2728 24.2391L32.3441 24.211C31.9904 24.0679 32.3834 23.6268 32.0188 23.4686L32.1182 23.4584C31.9705 23.465 32.0879 23.3202 31.9193 23.3721C31.9208 23.3635 31.9136 23.3534 31.9064 23.3433L31.9467 23.3145C31.9467 23.3145 31.9135 23.3001 31.8977 23.2886C31.8724 23.2 31.845 23.0978 31.8197 23.0092C31.8362 22.9364 31.8391 22.8658 31.7771 22.8111C31.7735 22.8061 31.7713 22.7924 31.7677 22.7874L31.8037 22.7845C31.8037 22.7845 31.7699 22.7478 31.7554 22.7276C31.7461 22.7038 31.7417 22.6765 31.7374 22.6491C31.7388 22.6405 31.723 22.6289 31.7381 22.6181C31.7417 22.6232 31.769 22.6188 31.7813 22.6253C31.9749 22.3954 31.6896 22.2415 31.6592 22.0499L31.7831 22.0527C31.6296 21.9872 31.7332 21.7913 31.664 21.6732L31.7173 21.6731L31.6416 21.6206L31.7511 21.6033C31.7373 21.4455 31.6278 21.303 31.614 21.1452L31.7119 21.1437C31.5253 21.0106 31.6966 20.8348 31.6194 20.6843L31.654 20.69C31.6827 20.4105 31.6083 20.1361 31.5527 19.856C31.5762 19.4735 31.6199 19.0766 31.6924 18.6667C31.8847 18.6587 31.6428 18.8317 31.8978 18.8474C31.8466 18.8611 31.7991 18.8799 31.7631 18.8828C31.7819 19.0369 31.728 19.2278 31.7375 19.3582C31.95 19.4423 31.6887 19.6521 31.9674 19.7117C31.9257 19.8025 31.8307 19.9466 31.9511 20.0509L31.9165 20.0452C31.9533 20.1712 31.9894 20.3282 32.1652 20.3929C31.9182 20.463 31.9802 20.5177 31.9032 20.5804C32.0293 20.6502 32.0215 20.8309 32.1504 20.9367C32.0417 20.9764 32.2175 21.0411 32.0483 21.0708C32.4302 21.3918 32.375 21.8578 32.1844 22.2836C32.2853 22.3181 32.4928 22.3526 32.6123 22.3813C32.5972 22.3921 32.5835 22.3943 32.5727 22.3792C32.6145 22.4483 32.4576 22.5377 32.4958 22.6018C32.4958 22.6018 32.4797 22.6006 32.4475 22.5982C32.5304 22.6608 32.3288 22.7517 32.4736 22.8157L32.4225 22.8294L32.4909 22.8719C32.4412 22.877 32.3778 22.8842 32.3634 22.8641C32.4027 23.4835 32.7798 24.0746 32.8263 24.7041L32.7622 24.689L32.8775 24.7969C32.8487 24.8099 32.8278 24.802 32.8191 24.8006C32.7508 24.9713 32.9324 25.1081 32.9203 25.2615C32.8965 25.2709 32.8425 25.2486 32.8072 25.2738C32.8893 25.3141 32.8634 25.3631 32.839 25.4034C32.6544 25.1774 32.6297 24.8446 32.4841 24.5984M30.4601 24.5377C30.5467 24.7653 30.6361 24.9756 30.7292 25.1909C30.6174 24.9813 30.5279 24.7711 30.4601 24.5377ZM29.8565 22.1814L29.8665 22.1209C29.9172 22.5112 29.9966 22.8886 30.0826 23.2537C29.9174 22.8843 29.7681 22.5265 29.8579 22.1727M32.2136 18.2559L32.291 18.7794L32.5088 20.3301C32.4561 20.2458 32.4057 20.1753 32.3581 20.0874C32.4327 19.5846 31.9973 19.157 32.2095 18.6549C32.2109 18.6462 32.2189 18.6253 32.2203 18.6167C32.1086 18.5138 32.1524 18.3834 32.2186 18.2522M31.7003 18.6458C31.7003 18.6458 31.7204 18.5781 31.7297 18.5486C31.7838 18.5709 31.8256 18.5867 31.7003 18.6458ZM31.747 18.4449C31.7642 18.3411 31.79 18.2388 31.8159 18.1365C31.8613 18.1574 31.839 18.2114 31.901 18.2128C31.9197 18.2071 31.947 18.2027 31.9758 18.1897C31.9521 18.1991 31.9319 18.2135 31.9118 18.228C31.78 18.2993 31.7613 18.4117 31.7729 18.4492C31.7578 18.46 31.7542 18.4549 31.747 18.4449ZM32.0431 17.517L31.9725 17.5141L31.9783 17.4795C31.9783 17.4795 32.0539 17.4788 32.0733 17.442C32.0697 17.437 32.02 17.4421 31.9941 17.4378C31.9955 17.4291 31.9984 17.4118 32.0034 17.4082C32.0683 17.3923 32.0985 17.3707 32.0999 17.3621L32.1339 17.5587C32.0374 17.5515 31.956 17.5336 32.0532 17.5098M30.8368 14.2434C30.8368 14.2434 30.8065 14.2117 30.823 14.1922C30.4911 14.2926 30.9155 14.5451 30.5323 14.6059C30.7117 14.7289 30.315 14.9517 30.5046 15.1742C30.4462 15.1778 30.403 15.1706 30.3727 15.139C30.298 15.322 30.2044 15.5107 30.1088 15.6858C30.008 15.8645 29.9196 16.0497 29.87 16.2146C29.9703 16.5466 29.5679 16.8573 29.769 17.1705C29.6683 17.3492 29.4877 17.6612 29.5318 17.9572L29.5066 17.9219C29.4362 18.2389 29.412 18.6523 29.5418 18.8871C29.2789 18.9456 29.3028 19.0961 29.2056 19.2265C29.3095 19.4569 29.2464 19.8906 29.333 20.2247C29.2128 20.2803 29.3937 20.5013 29.2136 20.5158C29.5261 21.4426 29.557 22.5403 29.5721 23.5731C29.7025 23.6703 29.9136 23.7631 30.0642 23.8458C30.0527 23.8617 30.0354 23.8588 30.0246 23.8437C30.0967 23.9978 29.9989 24.2125 30.0797 24.368C30.0797 24.368 30.0583 24.363 30.0156 24.3529C30.1439 24.4897 29.992 24.7354 30.196 24.8714L30.1556 24.9002L30.2601 24.9931C30.209 25.0068 30.1564 25.0292 30.1262 24.9975C30.6507 26.4658 31.7427 27.673 32.7086 28.8637L32.6344 28.8558L32.9047 29.0206C32.9047 29.0206 32.8586 29.0307 32.8449 29.0329C33.0302 29.3879 33.4315 29.5655 33.6881 29.8391C33.6629 29.8571 33.5822 29.8615 33.6082 29.9191C33.9201 29.993 33.8087 30.3698 34.1183 30.2169C34.1241 30.2357 34.0781 30.2991 34.0421 30.302C34.6322 30.6797 35.1705 31.1555 35.67 31.6514L36.2603 32.2424L36.2014 31.3933C36.3388 31.1274 36.4928 30.8954 36.659 30.6165L36.9231 30.1763C37.0029 30.043 37.0691 29.9118 37.1317 29.7757C37.331 29.4579 37.3863 29.205 37.5316 28.865L37.6043 28.8815C37.6104 28.2296 38.3117 27.7509 38.2212 27.0387C38.2226 27.03 38.2154 27.0199 38.2219 27.0077L38.2975 27.0602C38.2074 26.9342 38.3953 26.7389 38.2353 26.6857L38.2468 26.6166L38.2922 26.5841C38.2792 26.5553 38.2785 26.533 38.2691 26.5092C38.3266 26.2701 38.3804 26.0258 38.4285 25.7629C38.4709 25.6412 38.5011 25.5129 38.4808 25.3675L38.4981 25.2637L38.5233 25.299C38.5146 25.2443 38.5132 25.1996 38.5081 25.1499C38.5224 25.0635 38.5346 24.9633 38.5367 24.8704C38.5475 24.8855 38.5663 24.8798 38.5742 24.9122C38.8779 24.4741 38.601 23.9484 38.6079 23.4788L38.7231 23.5335C38.5969 23.3038 38.6723 22.8766 38.5749 22.5807L38.6354 22.5907L38.5381 22.4546L38.6526 22.4337C38.643 22.0368 38.4353 21.6826 38.3508 21.3088L38.4487 21.3073C38.2217 20.9898 38.2524 20.5641 38.0606 20.2214L38.1038 20.2285C37.9918 19.7525 37.7481 19.3479 37.5217 18.9461C37.4481 18.8007 37.353 18.6783 37.2643 18.5436C36.4069 16.8868 35.0401 15.1677 32.9798 13.48C33.0194 13.4288 33.0503 13.3762 33.0351 13.2804L32.9343 13.3525C32.9768 13.2307 32.9458 13.2833 32.9897 13.2063C32.86 13.0781 32.9658 12.9491 32.8 12.7173C32.8 12.7173 32.7995 12.7202 32.7985 12.726C32.6192 12.7628 32.4974 12.5605 32.4044 12.4518L32.3647 12.343C32.2896 12.0996 32.099 12.4721 32.1543 12.2193C32.0981 12.1833 32.0433 12.1387 31.9713 12.0912C31.8396 12.3758 31.6958 12.6539 31.5605 12.9335C31.5087 13.0314 31.4569 13.1294 31.4037 13.2361C31.1576 13.5416 30.8525 14.1483 30.8159 14.2355" fill="#E77622"/>
<path id="Vector_16" d="M29.5173 23.5821L29.5286 23.5979L29.5339 23.5941C29.5339 23.5941 29.5264 23.5836 29.5173 23.5821Z" fill="#E77622"/>
<path id="Vector_17" d="M32.7281 12.6696C32.7462 12.6948 32.7642 12.72 32.7822 12.7452C32.7865 12.7192 32.7426 12.6897 32.7281 12.6696Z" fill="#E77622"/>
<path id="Vector_18" d="M27.8272 29.7499C27.8272 29.7499 27.8183 29.7484 27.8146 29.7432L27.8221 29.7536L27.8272 29.7499Z" fill="#E77622"/>
<path id="Vector_19" d="M24.591 24.3412L24.5692 24.3329C24.5692 24.3329 24.582 24.3397 24.591 24.3412Z" fill="#E77622"/>
<path id="Vector_20" d="M23.6002 31.6684C23.6002 31.6684 23.5928 31.658 23.5876 31.6618L23.595 31.6721L23.6002 31.6684Z" fill="#E77622"/>
<path id="Vector_21" d="M30.1013 36.9976C30.0958 37.352 29.9188 37.669 29.7173 37.9731C30.3127 36.4198 30.784 34.4373 30.6471 32.1584C30.6876 32.3428 30.7331 32.5236 30.7735 32.7079C30.6577 34.1543 30.8309 35.7064 30.1013 36.9976ZM27.7493 37.6286C27.7096 37.5198 27.675 37.3542 27.6439 37.1936C27.5796 36.8587 27.5441 36.5642 27.4662 36.338C27.4336 36.1328 27.3298 36.009 27.2612 35.7533L27.3275 35.7288C26.9534 35.3869 27.3326 34.7881 26.924 34.4405L27.0256 34.444C26.87 34.4182 26.9902 34.2027 26.8044 34.2518L26.7928 34.2144L26.8187 34.1654C26.8187 34.1654 26.787 34.1424 26.7675 34.1258L26.6383 33.6469C26.6469 33.5417 26.6331 33.4373 26.5524 33.3351L26.5387 33.2839L26.5783 33.2861C26.5567 33.2558 26.535 33.2256 26.5134 33.1954L26.478 33.0607C26.478 33.0607 26.4651 33.0319 26.4766 33.016C26.4838 33.0261 26.5039 33.0117 26.527 33.0333C26.6852 32.6687 26.3292 32.4053 26.2534 32.0863L26.3723 32.0927C26.2015 31.9711 26.2481 31.6635 26.132 31.4799L26.1853 31.4799L26.083 31.4007L26.1903 31.3697C26.1267 31.1104 25.9732 30.8851 25.8909 30.6316L25.9903 30.6214C25.7554 30.4314 25.8567 30.1152 25.7133 29.8826L25.7514 29.8934C25.6517 29.4238 25.4592 29.0055 25.268 28.5785L24.1056 24.2374C24.1582 24.2684 24.2123 24.2907 24.2756 24.2834L24.1805 24.2143C24.2987 24.2517 24.241 24.2244 24.3181 24.2683C24.3743 24.1976 24.5069 24.3085 24.5717 24.3459C24.5717 24.3459 24.5681 24.3409 24.5645 24.3358C24.4823 24.1889 24.5608 24.2242 24.5767 24.2357L24.6199 24.2962C24.6806 24.4661 24.5131 23.9231 24.6127 24.2328C24.6227 24.1723 24.6464 24.0563 24.6738 24.052C24.7055 24.075 24.738 24.1203 24.7769 24.1534C24.8186 24.0627 24.8309 24.229 24.8935 24.0396C24.8288 24.2687 24.7921 24.3025 24.8915 24.399C24.8764 24.4098 24.8613 24.4206 24.8555 24.4019C24.7599 24.6836 25.1559 24.3851 25.0113 24.6942C25.2014 24.5659 25.1224 24.9347 25.3737 24.8388C25.3442 24.8827 25.3125 24.913 25.2823 24.9346C25.4337 25.1463 25.539 25.4214 25.6652 25.5978C25.9346 25.6336 25.8642 26.0039 26.1682 25.9921C26.1935 26.134 26.2152 26.3775 26.404 26.471L26.368 26.4739C26.4905 26.6452 26.652 26.8497 26.8616 26.8978C26.6666 27.083 26.7559 27.1334 26.7272 27.253C26.8943 27.3163 26.9975 27.5777 27.1913 27.7209C27.1028 27.7994 27.316 27.8526 27.1727 27.9398C27.7154 28.3364 27.9103 29.0882 27.843 29.761C27.9597 29.807 28.1859 29.8357 28.3149 29.8882C28.2998 29.899 28.276 29.9084 28.2702 29.8896C28.3286 29.9926 28.1926 30.1432 28.246 30.2498C28.246 30.2498 28.227 30.2481 28.1891 30.2448C28.29 30.3326 28.1078 30.4933 28.2692 30.5912L28.2267 30.6063L28.3096 30.669C28.2549 30.6776 28.1677 30.6943 28.1799 30.6474C28.3268 31.6089 28.7156 32.6106 28.614 33.6507L28.5629 33.6111L28.64 33.8149C28.64 33.8149 28.5983 33.7991 28.586 33.7926C28.4616 34.034 28.6188 34.3177 28.5476 34.559C28.5217 34.5547 28.4719 34.5065 28.4352 34.5403C28.5607 34.7477 28.1927 34.7976 28.4931 34.9408C28.478 34.9516 28.4088 34.9401 28.3822 34.9135C28.4106 35.4112 28.2439 36.0408 28.1302 36.1907C28.2045 36.4651 28.1319 36.6617 28.0801 36.813C28.0255 36.9816 27.9701 37.0746 27.8912 37.6033L27.894 37.4261C27.8739 37.5471 27.8444 37.6977 27.8171 37.7553C27.8027 37.7352 27.7739 37.6948 27.7565 37.6387M24.166 30.8826L24.1945 31.5402C24.1065 31.3213 24.0135 31.106 24.1516 30.9158C24.1617 30.9086 24.1595 30.8949 24.166 30.8826ZM23.9376 26.1859L24.077 29.0647C24.0337 28.9509 23.9904 28.8372 23.9385 28.7219C24.0619 28.0318 23.6344 27.3702 23.9113 26.6922C23.7995 26.536 23.8592 26.3638 23.9326 26.1895M24.0029 36.0651C23.9315 35.9333 23.876 35.8131 23.83 36.0364L23.8155 35.8563C23.7565 35.9975 23.6238 35.7268 23.5416 35.4733C23.4586 35.1975 23.3958 34.9606 23.3106 34.7777C23.2702 34.5933 23.17 34.5278 23.1 34.3341L23.1663 34.3096C22.8017 34.0448 23.1874 33.5403 22.8221 33.2532L22.9236 33.2567C22.7716 33.2359 22.9033 33.0579 22.7154 33.0933C22.7081 33.0833 22.7096 33.0746 22.7074 33.0609L22.7405 33.022C22.7405 33.022 22.7088 32.999 22.693 32.9875C22.6662 32.8542 22.6445 32.7174 22.6214 32.5892C22.6408 32.4992 22.6415 32.4149 22.5766 32.3242C22.5744 32.3105 22.5722 32.2968 22.5701 32.2831L22.6046 32.2889C22.5866 32.2637 22.5686 32.2385 22.5556 32.2097C22.5527 32.1737 22.5412 32.1362 22.5383 32.1002C22.5447 32.0879 22.5339 32.0728 22.5404 32.0606C22.5476 32.0707 22.5663 32.0649 22.5858 32.0814C22.8103 31.7989 22.5098 31.5492 22.4974 31.2762L22.6134 31.2999C22.4736 31.179 22.5944 30.9326 22.5288 30.7663L22.5806 30.7749L22.5021 30.6863L22.6137 30.6826C22.61 30.4644 22.5342 30.252 22.5305 30.0337L22.6256 30.0495C22.4655 29.8364 22.639 29.621 22.5956 29.4006L22.6287 29.415C22.6919 29.0346 22.6744 28.6586 22.672 28.2719C22.8378 27.4067 23.0936 26.5076 23.4755 25.5718C23.4936 25.7036 23.498 25.8375 23.5075 25.9679C23.5961 25.9959 23.5083 26.1501 23.6782 26.0895C23.4845 26.1595 23.4407 26.3432 23.4516 26.4116C23.4343 26.4088 23.4119 26.4095 23.4184 26.3972C23.1686 26.5378 23.6656 26.5404 23.3538 26.6796C23.5742 26.6896 23.2941 26.9051 23.5556 26.9618C23.5081 26.9806 23.462 26.9907 23.4238 26.9799C23.4276 27.1982 23.36 27.4446 23.3594 27.6354C23.5569 27.7837 23.2898 28.028 23.5636 28.1445C23.5089 28.2598 23.4104 28.4522 23.5235 28.5998L23.4904 28.5854C23.5186 28.7633 23.5396 28.9844 23.7118 29.0974C23.4612 29.1623 23.5153 29.2379 23.4354 29.3179C23.563 29.4324 23.5365 29.6722 23.654 29.8472C23.538 29.8768 23.7138 29.9948 23.5424 30.0108C23.8957 30.5047 23.8132 31.1349 23.5874 31.6926C23.6876 31.7581 23.8893 31.8271 24.0082 31.8868C23.9931 31.8976 23.9671 31.8933 23.965 31.8796C24.0025 31.9747 23.8391 32.0763 23.8715 32.175C23.8715 32.175 23.853 32.1704 23.8161 32.1613C23.8946 32.2499 23.6901 32.358 23.8278 32.4653L23.7817 32.4754L23.8509 32.5402C23.7925 32.5438 23.7083 32.5431 23.7277 32.5064C23.7145 33.3081 24.0588 34.4178 24.0301 34.6973L23.9725 34.6166C24.0107 34.6807 24.0475 34.7534 24.0828 34.8348C24.0504 34.7895 24.0359 34.7693 24.0179 34.7441C23.9178 34.6786 24.0995 35.0819 24.0801 35.1719C24.047 35.1042 24.0001 34.9854 23.9503 34.8839C24.13 35.38 23.726 34.3892 24.0954 35.3743C24.0766 35.3268 23.9994 35.123 23.9655 35.033C24.0305 35.2836 24.0667 35.4939 24.0783 35.6379C24.0841 35.7099 24.0856 35.7546 24.0798 35.7892C24.0755 35.8151 24.0734 35.8547 24.0185 35.7035C24.1385 36.3185 24.0484 36.1925 23.9878 36.0759M23.7907 25.1711C23.7907 25.1711 23.8397 25.197 23.8757 25.1941L23.8794 25.2524C23.7908 25.2244 23.7072 25.1928 23.7958 25.1675M23.8361 25.0854C23.8361 25.0854 23.6898 25.0833 23.7381 25.0336C23.7878 25.0285 23.8202 25.0205 23.8353 25.0097C23.8641 25.05 23.893 25.0904 23.857 25.1466L23.79 25.1488C23.79 25.1488 23.7972 25.1588 23.8008 25.1639L23.7266 25.156C23.6999 25.0761 23.8138 25.1394 23.8425 25.0731M24.2552 23.9247C24.307 23.8267 24.3639 23.7251 24.4207 23.6236C24.4395 23.7777 24.4526 23.9131 24.4079 23.808L24.4403 23.9066C24.4159 24.0003 24.3891 23.8137 24.3402 23.8411C24.3344 23.8757 24.4174 23.9916 24.3691 23.988C24.3042 23.8973 24.2732 23.8966 24.2567 23.9161M27.1554 26.7334C27.0487 26.6269 26.937 26.5239 26.8289 26.4261C26.5295 25.6347 25.7197 25.216 25.4779 24.3986C25.2776 24.321 25.1939 24.1294 25.1217 23.922L25.1145 23.9119C25.9456 24.8715 26.6283 25.8154 27.1554 26.7334ZM28.3571 29.4466C28.1949 29.2198 28.0327 28.9931 28.1017 28.738C28.0995 28.7244 28.0973 28.7107 28.1038 28.6984C28.1998 28.9497 28.2784 29.1982 28.3571 29.4466ZM29.7716 28.1226C29.7716 28.1226 29.7788 28.1327 29.7774 28.1413C29.6381 27.7762 29.483 27.3996 29.3056 27.0237C29.5529 27.3801 29.8002 27.7365 29.7716 28.1226ZM28.8341 40.0293L28.8911 40.0876C28.8242 40.2497 28.8025 40.0596 28.7096 40.1641C28.6924 40.2145 28.8242 40.2497 28.732 40.3232C28.6463 40.2779 28.5973 40.3053 28.5592 40.3478C28.6556 40.1951 28.7513 40.02 28.8535 39.8326C28.8931 39.9414 28.9307 40.0364 28.8291 40.0329M31.1035 35.2143C30.9917 34.8448 31.2924 34.3707 31.0581 34.0431C31.143 33.7996 31.281 33.3962 31.1576 33.0426L31.1865 33.0829C31.1596 32.6832 31.1758 32.184 30.9596 31.935C31.1993 31.8016 31.1337 31.6352 31.1948 31.4544C31.0405 31.2067 31.0416 30.6651 30.8267 30.3007C30.929 30.22 30.7048 29.9918 30.8661 29.9298C30.7219 29.6749 30.613 29.3948 30.5004 29.1096C30.3691 28.8302 30.258 28.5364 30.1657 28.2369C30.001 27.6233 29.7853 27.0234 29.6401 26.4264C29.4874 26.33 29.236 26.2661 29.0717 26.1855C29.0796 26.1646 29.1034 26.1552 29.1164 26.184C28.9952 26.004 29.0268 25.7606 28.8869 25.5864C28.9071 25.5719 28.9071 25.5719 28.9575 25.5892C28.7846 25.4539 28.8557 25.1592 28.6158 25.0262L28.6438 24.9908L28.5084 24.8973C28.5537 24.8648 28.6351 24.8295 28.6618 24.9094L28.2998 24.3075C28.1628 24.116 28.0057 23.9389 27.8536 23.7582C27.5444 23.4005 27.2352 23.0427 26.926 22.6849L25.8946 21.7009L24.8366 20.637L24.9389 20.6629L24.5224 20.3895C24.5224 20.3895 24.5505 20.3542 24.5677 20.357C24.4618 20.2195 24.3371 20.0878 24.2182 19.9748C23.9167 20.4266 23.6153 21.0383 23.4569 21.2429C23.4375 21.2264 23.4259 21.1356 23.3669 21.1703C23.3611 21.2048 23.3554 21.2394 23.346 21.2689L23.328 21.297C23.2086 21.5348 22.94 21.5746 23.1001 21.841C23.0813 21.8468 23.015 21.818 23.0085 21.777C22.8165 22.2114 22.5668 22.6185 22.3625 23.0465C22.1532 23.4781 21.9316 23.9032 21.6992 24.3131C21.6875 25.1595 21.0974 25.8787 21.1274 26.7408L21.0734 26.7185C20.974 27.7723 20.6203 28.8328 20.5878 29.9377C20.5615 30.3908 20.6301 30.6998 20.6397 31.1499L20.5663 31.1644C20.7401 31.5352 20.7087 31.9386 20.6895 32.3484C20.7063 32.7554 20.7066 33.1818 20.9402 33.5403L20.8343 33.5094C20.9985 33.59 20.9202 33.9278 21.0945 33.8946C21.0989 33.922 21.1118 33.9508 21.1162 33.9781L21.0975 34.0372C21.0975 34.0372 21.1263 34.0775 21.1407 34.0977C21.2231 34.4045 21.3104 34.7076 21.4093 34.995C21.4331 35.1455 21.4829 35.3003 21.5723 35.4573C21.5875 35.4998 21.6041 35.5336 21.6192 35.5761L21.581 35.5653C21.6135 35.6107 21.6459 35.656 21.6733 35.705C21.7144 35.8051 21.7541 35.9138 21.7953 36.0139L21.8025 36.024C21.788 36.0038 21.7715 36.0233 21.7412 35.9916C21.715 36.6046 22.2353 37.0551 22.5064 37.562L22.3739 37.5578C22.6225 37.7456 22.7734 38.2548 23.0249 38.5319L22.9651 38.5442L23.1273 38.6644L23.0366 38.7293C23.2925 39.1404 23.6399 39.4556 23.9556 39.8012L23.8641 39.8437C24.2792 40.0725 24.4487 40.5759 24.8076 40.8753L24.763 40.8767C24.8934 41.0272 25.034 41.1704 25.1745 41.3137L25.6596 41.7895C25.9774 42.0954 26.257 42.3372 26.4905 42.5359C26.4854 42.4862 26.4753 42.4401 26.4739 42.3954L26.3294 39.4669L27.1366 42.4699L28.1951 40.8825C28.2498 40.9271 28.3089 40.9458 28.4076 40.9133L28.3355 40.8125C28.4565 40.8326 28.4025 40.8103 28.486 40.842C28.6242 40.6517 28.7863 40.7186 28.9375 40.6105C28.9375 40.6105 28.9375 40.6105 28.9303 40.6004C28.8697 40.4305 29.0194 40.331 29.0792 40.2654L29.1548 40.2646C29.3032 40.2804 29.0552 39.9017 29.221 40.0802C29.3971 39.6342 29.6511 39.1479 29.8532 38.6529C29.7998 38.5464 30.0215 38.2812 29.8148 38.3223C30.0575 38.2782 30.233 37.9166 30.2747 37.7725C30.2855 37.7876 30.3064 37.7955 30.2935 37.82C30.6311 37.6318 30.1808 37.4283 30.5675 37.2659C30.3715 37.1623 30.7675 36.8106 30.5592 36.5939C30.6153 36.5766 30.66 36.5751 30.6967 36.5946C30.8448 36.1306 31.0066 35.6112 31.0913 35.2078" fill="#E77622"/>
<path id="Vector_22" d="M29.6463 26.4149C29.6463 26.4149 29.6591 26.4217 29.6682 26.4232L29.6569 26.4074L29.6463 26.4149Z" fill="#E77622"/>
<path id="Vector_23" d="M29.0112 40.5652C29.0112 40.5652 28.976 40.5905 28.9558 40.6049C28.9767 40.6128 28.9911 40.5796 29.0112 40.5652Z" fill="#E77622"/>
</g>
</svg>
