<svg width="59" height="64" viewBox="0 0 59 64" fill="none" xmlns="http://www.w3.org/2000/svg">
<g id="icon 3">
<path id="Vector" d="M0.22576 27.7342C0.22576 27.7342 0.268005 27.7342 0.282087 27.7272L0.0286152 27.6145C-0.112203 27.6638 0.317291 27.699 0.22576 27.7342Z" fill="#E77622"/>
<path id="Vector_2" d="M0.197702 27.7692C0.141375 27.8114 0.254029 27.8326 0.296275 27.8467C0.204743 27.8114 0.324438 27.7622 0.197702 27.7692Z" fill="#E77622"/>
<path id="Vector_3" d="M7.08372 29.6491H7.11188C7.11188 29.6491 7.11188 29.6702 7.12596 29.6843L7.08372 29.6491ZM6.64718 29.6491C6.76688 29.6491 6.89361 29.6491 7.01331 29.6491C6.93586 29.7829 6.79504 29.7054 6.64718 29.6491ZM6.36555 29.6491H6.40779C6.40779 29.6491 6.37963 29.6632 6.36555 29.6702V29.6491ZM6.17544 29.6491H6.30922C6.26697 29.6702 6.21769 29.6773 6.17544 29.6491ZM9.12557 29.9096L9.13966 29.9378C9.2171 29.8955 9.28751 29.8603 9.35088 29.804C9.42129 29.7477 9.4565 29.6561 9.47058 29.5716C9.49874 29.4097 9.47762 29.1985 9.48466 29.0436C9.48466 28.7267 9.48466 28.4803 9.37201 28.2128C9.40721 27.572 9.43537 26.875 9.4565 26.1779L9.51282 26.1568C9.50578 26.0864 9.51282 26.023 9.49874 25.9526C9.49874 25.8893 9.4565 25.8118 9.39313 25.7907C9.26639 25.7484 9.13966 25.7484 9.01996 25.7203C8.78057 25.678 8.53414 25.6358 8.23842 25.671C7.88638 25.5935 7.41464 25.7484 6.99219 25.8118C6.83025 25.8118 6.6683 25.8118 6.51341 25.8118C6.49932 25.8118 6.4782 25.8118 6.45708 25.8048C6.33034 25.6851 6.12616 25.7484 5.91493 25.8118C5.7037 25.8118 5.49952 25.8118 5.28829 25.8118C4.81655 25.5091 4.22512 25.6217 3.66185 25.8118C3.28164 25.8118 2.90143 25.8118 2.52122 25.8118C1.98612 25.8118 1.54958 26.0019 1.21162 26.3399C1.04968 26.3892 0.873656 26.4737 0.810288 26.6286L0.873656 26.6567C0.711716 26.6567 0.82437 26.8187 0.82437 26.9031C0.82437 26.9172 0.810288 26.9313 0.803248 26.9454C0.782125 26.9524 0.753961 26.9595 0.704675 26.9454V26.9313C0.613144 26.9313 0.683552 27.0017 0.761002 27.0651C0.732839 27.1425 0.704675 27.22 0.676512 27.3045C0.676512 27.3115 0.676512 27.3186 0.676512 27.3256C0.676512 27.3467 0.66243 27.3749 0.655389 27.396C0.634266 27.4101 0.592021 27.4171 0.500489 27.389C0.50753 27.3538 0.352631 27.4101 0.310386 27.3045C0.26814 27.3186 0.254058 27.4312 0.394876 27.4664C0.472326 27.4946 0.542735 27.5368 0.613144 27.558V27.917C0.627225 27.9522 0.648348 27.9945 0.66243 28.0367C0.929983 29.0929 1.61999 29.635 2.69725 29.6421H2.73245C2.60571 29.6632 2.47194 29.6843 2.33112 29.6913C2.33816 29.6843 2.3452 29.6561 2.35928 29.6421C2.33112 29.6702 2.29592 29.7336 2.26775 29.7195C2.26775 29.6984 2.28183 29.6773 2.28887 29.6702C2.21847 29.5012 1.96499 29.7054 1.92979 29.5646C1.89458 29.5646 1.85938 29.628 1.86642 29.6773C1.45101 29.5928 1.04968 29.3323 0.697634 29.0154C0.697634 28.9873 0.73988 28.9591 0.782125 28.9309C0.570898 28.8464 0.444162 28.6704 0.373753 28.4873C0.338549 28.3958 0.317426 28.2972 0.303345 28.2057C0.303345 28.1564 0.289263 28.1071 0.26814 28.0579L0.247018 27.9874V27.8889C0.19069 27.8748 0.18365 27.9522 0.113241 27.903C0.0639546 28.0227 0.134363 28.0649 0.197731 28.1142C0.261099 28.1635 0.296304 28.2057 0.254058 28.2761H0.19069C0.176609 28.3747 0.352631 28.248 0.296304 28.3536C0.254058 28.4029 0.218854 28.3677 0.218854 28.3888C0.303345 28.5507 0.324467 28.7619 0.542735 28.8394C0.437121 28.945 0.634266 29.0154 0.563857 29.1421C0.634266 29.1562 0.655389 29.1985 0.739879 29.1562C0.908861 29.4379 1.19754 29.6632 1.50734 29.7829C1.81714 29.9096 2.14102 29.9448 2.45081 29.973C2.75357 29.7195 3.04225 30.0293 3.36613 29.9448C3.36613 29.9519 3.36613 29.9659 3.36613 29.973C3.4647 29.9026 3.61256 29.8744 3.7393 29.9096L3.83083 29.797C4.5842 30.0293 5.31646 29.8674 6.08391 29.9589C6.9429 30.0223 7.78781 30.2053 8.46373 29.8674C8.47781 29.8955 8.48485 29.9026 8.47077 29.9166C8.682 29.8674 8.94251 29.9589 9.1467 29.9026" fill="#E77622"/>
<path id="Vector_4" d="M30.0791 0L30.0509 0.0915315L30.0931 0.0352044L30.0791 0Z" fill="#E77622"/>
<path id="Vector_5" d="M30.0234 0.0351345C29.9741 -0.105683 29.9389 0.323811 29.9108 0.232279C29.9108 0.246361 29.9108 0.274525 29.9178 0.288606L30.0234 0.0351345Z" fill="#E77622"/>
<path id="Vector_6" d="M29.8751 0.204264C29.8328 0.147937 29.8188 0.267632 29.8047 0.302837C29.8188 0.211305 29.8821 0.331 29.8751 0.204264Z" fill="#E77622"/>
<path id="Vector_7" d="M27.8338 6.25951C27.8338 6.3792 27.8338 6.4989 27.8338 6.61155C27.7 6.54114 27.7845 6.40032 27.8338 6.25951ZM27.8338 5.98491V6.02012C27.8338 6.02012 27.8197 5.99195 27.8127 5.98491H27.8338ZM27.8338 5.80185V5.92858C27.8127 5.88634 27.8056 5.84409 27.8338 5.80185ZM27.8338 6.71012C27.8338 6.71012 27.8127 6.71716 27.7986 6.7242L27.8338 6.68196V6.71012ZM27.5662 8.03381C27.6155 8.238 27.524 8.49851 27.5803 8.68861L27.5592 8.70269C27.6085 8.79422 27.6226 8.96321 27.7634 9.07586C27.9042 9.17443 28.0802 9.13923 28.2563 9.13923C28.6294 9.1181 28.8406 9.10402 29.1012 8.97025C29.7208 8.95617 30.4178 8.94912 31.0726 8.93504V8.99137C31.2134 8.97729 31.3472 8.98433 31.488 9.00545C31.5584 9.00545 31.6288 9.01953 31.6992 8.99137C31.7697 8.96321 31.7978 8.8928 31.8189 8.83647C31.8823 8.59004 31.9175 8.35065 31.8823 8.06197C31.9386 7.8085 31.8682 7.48462 31.7978 7.1889C31.7697 7.06217 31.7415 6.94247 31.7274 6.82982C31.7274 6.69604 31.7274 6.56226 31.7274 6.43553C31.7274 6.40736 31.7274 6.3792 31.7415 6.35104C31.8682 6.1891 31.7978 5.99899 31.7274 5.80889C31.7274 5.61174 31.7274 5.42164 31.7274 5.2245C32.0513 4.68939 31.9175 4.16836 31.7274 3.6403C31.7274 3.29529 31.7274 2.95029 31.7274 2.60529C31.7274 2.04202 31.5514 1.5914 31.2345 1.2464C31.1923 1.0915 31.1219 0.901392 30.967 0.838024L30.9388 0.901392C30.9388 0.73241 30.7769 0.852106 30.6924 0.845065C30.6854 0.845065 30.6783 0.838024 30.6642 0.830983C30.6502 0.816901 30.6431 0.788738 30.6642 0.72537H30.6783C30.6783 0.633838 30.6149 0.704247 30.5516 0.774656C30.4812 0.746492 30.4108 0.72537 30.3333 0.697206C30.3192 0.683124 30.3051 0.683124 30.284 0.683124C30.2629 0.683124 30.2488 0.669042 30.2277 0.662002C30.2136 0.640879 30.2066 0.605675 30.2347 0.507102C30.2629 0.521184 30.2347 0.359243 30.3122 0.316998C30.3051 0.274753 30.2488 0.260671 30.1925 0.401489C30.1502 0.478939 30.108 0.542307 30.0728 0.605675H29.4602C29.425 0.619756 29.3828 0.64792 29.3476 0.654961C28.4252 0.908433 27.8972 1.54211 27.8549 2.46447C27.8338 2.33069 27.8197 2.19691 27.8268 2.04906C27.8338 2.0561 27.862 2.06314 27.869 2.07722C27.8408 2.04906 27.7916 2.00681 27.8056 1.98569C27.8268 1.98569 27.8479 2.00681 27.8549 2.01385C28.0239 1.96457 27.8549 1.68997 27.9957 1.67589C27.9957 1.64068 27.9394 1.59844 27.8901 1.59844C28.0239 1.21119 28.3267 0.859146 28.6576 0.549347C28.6857 0.556388 28.7069 0.591593 28.728 0.64792C28.8266 0.450775 29.0026 0.338121 29.1856 0.288835C29.2842 0.267712 29.3546 0.190262 29.5095 0.225467C29.587 0.225467 29.6151 0.239548 29.6644 0.246589L29.7912 0.260671C29.8052 0.197303 29.756 0.190262 29.7912 0.119853C29.6715 0.0353628 29.6363 0.281794 29.4321 0.162099L29.4462 0.0987307C29.3124 0.0635263 29.4321 0.246589 29.3265 0.197303C29.2772 0.162099 29.3194 0.112812 29.2983 0.112812C29.2068 0.17618 29.1223 0.183221 29.0378 0.218426C28.9533 0.25363 28.8829 0.309957 28.8336 0.415571C28.735 0.309957 28.6576 0.485979 28.5379 0.40853C28.5238 0.478939 28.4745 0.49302 28.5097 0.577511C28.221 0.704247 27.9746 0.957719 27.8127 1.23935C27.6507 1.52803 27.5733 1.84487 27.517 2.14763C27.7352 2.46447 27.4395 2.75314 27.517 3.06294C27.5099 3.06294 27.4958 3.06294 27.4888 3.06294C27.5592 3.16152 27.5874 3.30233 27.5522 3.42203L27.6648 3.51356C27.4325 4.25285 27.6014 4.96398 27.5029 5.71032C27.4395 6.54818 27.2635 7.39309 27.5944 8.02677C27.5733 8.04085 27.5592 8.05493 27.5451 8.03381" fill="#E77622"/>
<path id="Vector_8" d="M31.7059 43.9774L31.7411 43.9L31.6495 43.6958L31.7059 43.9774Z" fill="#E77622"/>
<path id="Vector_9" d="M31.5084 42.6465C31.4943 42.6888 31.4661 42.6676 31.452 42.7099L31.7055 43.4914C31.8463 43.1394 31.4168 42.8789 31.5084 42.6465Z" fill="#E77622"/>
<path id="Vector_10" d="M31.537 42.4141C31.5934 42.1114 31.4737 41.9846 31.4385 41.9142C31.53 42.0198 31.4103 42.4845 31.537 42.4141Z" fill="#E77622"/>
<path id="Vector_11" d="M26.8407 31.1982C26.8407 31.1982 26.89 31.2404 26.9111 31.2545C26.8829 31.2193 26.8548 31.1982 26.8407 31.1982Z" fill="#E77622"/>
<path id="Vector_12" d="M31.9461 32.1065C31.9461 32.1065 31.9389 32.1065 31.9316 32.1138C31.9097 32.1502 31.9243 32.1356 31.9461 32.1065Z" fill="#E77622"/>
<path id="Vector_13" d="M29.833 54.3837L29.9879 54.2922L29.7907 54.3485L29.7767 54.3274L29.7415 54.4189L29.7907 54.3626L29.833 54.3837Z" fill="#E77622"/>
<path id="Vector_14" d="M30.783 54.1515C30.783 54.1515 30.7689 54.1093 30.7337 54.0952L30.1353 54.3487C30.4028 54.4895 30.6 54.06 30.776 54.1515" fill="#E77622"/>
<path id="Vector_15" d="M31.3394 54.0739C31.2619 54.1654 30.9099 54.0457 30.9592 54.1724C31.1915 54.2288 31.2831 54.1091 31.3394 54.0739Z" fill="#E77622"/>
<path id="Vector_16" d="M29.9101 34.2328C29.8467 34.3032 29.7904 34.3525 29.7411 34.3736C29.8326 34.3243 29.8889 34.2398 29.9593 34.1694C30.5367 33.5428 31.1141 32.9373 31.7196 32.3036C31.6914 32.3458 31.6984 32.381 31.6632 32.4303C31.7618 32.2895 31.8463 32.1135 31.9871 31.9867C32.0364 31.9656 31.9871 32.0572 31.9449 32.1064C32.0927 32.0149 32.2476 31.8741 32.4096 31.7192C31.8745 32.2543 31.3394 32.7894 30.8043 33.3316C30.5015 33.6343 30.1847 33.916 29.9101 34.2398M46.3928 22.2351C46.3717 22.1858 46.3576 22.1365 46.3364 22.0873C46.3505 22.0873 46.3576 22.0873 46.3717 22.0732L46.3928 22.2351ZM47.0124 24.0517C47.0335 24.1854 47.0546 24.3263 47.0757 24.4671C46.9279 23.8193 46.7448 23.1927 46.5266 22.5801C46.8082 23.0448 46.9349 23.5377 47.0124 24.0517ZM47.3363 25.9527C47.3292 25.8893 47.3222 25.826 47.3081 25.7626C47.3292 25.8401 47.3433 25.9105 47.3644 25.9879L47.3363 25.9527ZM47.456 26.9736C47.4348 26.7342 47.4067 26.4949 47.3785 26.2555C47.4348 26.516 47.47 26.7695 47.456 26.9736ZM29.6848 34.3947C29.6848 34.3947 29.6918 34.3947 29.6988 34.3947H29.6848ZM28.002 50.7507C28.0794 50.7366 28.1217 50.6873 28.1428 50.631C28.1287 50.7085 28.0935 50.7507 28.0372 50.7789C28.0301 50.7718 28.0161 50.7577 28.002 50.7507ZM28.1217 48.0822C28.1358 47.9062 28.1498 47.7231 28.1569 47.5401C28.1569 48.4131 28.1569 49.2932 28.1569 50.1663C28.0442 49.4059 28.0724 48.7581 28.1217 48.0822ZM28.1569 44.2027V45.1532C28.1358 44.8012 28.1287 44.4562 28.1569 44.2027ZM28.1569 45.8503C28.1498 45.7306 28.1428 45.6249 28.1358 45.4982L28.1569 45.5616V45.8503ZM31.1281 37.535C31.1281 37.3237 31.1845 37.1759 31.3323 37.0351C32.8391 35.5354 34.3458 34.0286 35.8526 32.5219C36.3102 32.0642 36.5144 31.5361 36.3102 30.9025C35.9652 29.8182 34.6345 29.5154 33.8037 30.3321C33.3601 30.7687 32.9165 31.2052 32.48 31.6488C32.9869 31.1348 33.508 30.4589 33.8107 30.2829C33.9515 30.128 34.0079 30.0294 33.8741 30.0575C34.1698 29.8322 34.543 29.6844 34.9302 29.6914C35.3175 29.6914 35.7047 29.8322 36.0075 30.0857C36.3102 30.3462 36.5074 30.7194 36.5778 31.1066C36.6552 31.5009 36.5637 31.9375 36.3525 32.2754C36.2539 32.4444 36.1201 32.5993 35.9934 32.7331L35.6273 33.1133L34.895 33.8807C34.4162 34.3947 33.9374 34.9087 33.4657 35.4157C33.3531 35.4931 33.3108 35.479 33.2967 35.4157C32.9236 35.8804 32.5293 36.331 32.1209 36.7745L31.8111 37.1055C31.7125 37.2111 31.5717 37.3449 31.5576 37.3801C31.5295 37.4364 31.5224 37.4434 31.5295 37.5983V38.056C31.5295 39.2741 31.5013 40.4992 31.4802 41.7102C31.5435 41.8017 31.5506 41.4638 31.621 41.7032C31.7055 40.9287 31.4591 40.2809 31.5788 39.5698L31.6421 39.6613C31.6844 39.1473 31.4802 39.5557 31.5647 39.0276C31.621 38.8164 31.6492 39.0769 31.6492 38.9854C31.6492 38.7108 31.6492 38.4362 31.6421 38.1616V37.7462V37.542C31.6421 37.5068 31.6421 37.4857 31.6421 37.4786C31.6562 37.4505 31.628 37.4646 31.7337 37.3589C31.8252 37.2604 31.9167 37.1548 32.0082 37.0562C32.1843 36.852 32.3532 36.6478 32.5081 36.4436C32.7898 36.3662 33.339 35.6198 33.7192 35.4297C33.8811 35.1903 34.0924 35.0002 34.0994 34.8594C34.7894 34.1976 35.4724 33.5217 36.1553 32.8387C36.3525 32.6416 36.5355 32.4092 36.6552 32.1205C36.782 31.8389 36.8313 31.508 36.796 31.1982C36.7327 30.6067 36.3736 30.0083 35.8174 29.7125C35.2752 29.4098 34.5852 29.4168 34.0501 29.6985C33.7826 29.8252 33.5361 30.0646 33.3883 30.2195L32.8743 30.7405C32.1843 31.4376 31.5013 32.1276 30.8113 32.8246C30.7409 32.9161 30.6705 33.0077 30.593 33.0992C30.5226 33.1837 30.4522 33.2682 30.3888 33.3527C30.248 33.5217 30.0931 33.6906 29.9312 33.8596L29.8115 33.9864C29.7763 34.0216 29.7552 34.0427 29.727 34.0708C29.6636 34.1272 29.5721 34.092 29.5228 34.0356C29.3609 33.8596 29.1919 33.6836 29.0229 33.5076C28.3118 32.7472 27.5936 31.9445 26.8121 31.2263C26.8121 31.2122 26.8121 31.2052 26.8332 31.2052C26.5656 30.9869 26.2488 30.7053 25.9249 30.3955L25.6785 30.1632C25.587 30.0787 25.4813 29.9942 25.3757 29.9167C25.1645 29.7689 24.9181 29.6633 24.6716 29.614C24.383 29.5999 24.1013 29.6633 23.8619 29.7829C23.186 29.9871 22.6368 30.649 22.658 31.4094C22.658 31.7826 22.7988 32.1487 23.017 32.4374C23.0663 32.5148 23.1367 32.5782 23.1931 32.6486L23.362 32.8246L23.7 33.1696C24.5942 34.092 25.5025 35.0073 26.4178 35.9156L27.7837 37.2745C27.8471 37.3449 27.8752 37.4012 27.8682 37.5138V37.9926V38.9502C27.8682 40.2316 27.8612 41.506 27.833 42.7804C27.8119 44.2238 27.7908 45.6179 27.7696 46.9909C27.7626 47.6738 27.7485 48.3498 27.7415 49.0257C27.7415 49.3637 27.7344 49.7016 27.7274 50.0325V50.286C27.7274 50.286 27.7274 50.3353 27.7063 50.3564C27.6922 50.3705 27.664 50.3705 27.6359 50.3705H27.4035H25.5095C25.1997 50.3705 24.8547 50.3916 24.6083 50.3564C24.3478 50.3142 24.1647 50.2086 24.045 50.0185C23.9816 49.9269 23.9394 49.8072 23.9112 49.6735C23.8831 49.5397 23.876 49.3989 23.869 49.2158C23.8479 48.8638 23.8267 48.5187 23.7915 48.1667C23.7282 47.4626 23.6366 46.7585 23.524 46.0474C23.5521 46.0474 23.5592 46.0052 23.5873 46.153C23.531 45.7376 23.4958 45.3433 23.4184 44.9279C23.3409 44.5195 23.2353 44.1252 23.0945 43.745C22.8058 42.9846 22.3763 42.2946 21.8412 41.7032L21.8623 41.6891C20.5105 40.2739 18.9897 38.9572 17.849 37.3519C16.7014 35.7536 15.9339 33.9441 15.4481 32.1628C15.0116 29.966 14.9552 27.5087 15.5044 25.143C15.786 23.9601 16.2226 22.8125 16.814 21.7423C17.3914 20.665 18.0743 19.6582 18.87 18.764L18.9052 18.8062C20.1373 17.3487 21.7286 16.2433 23.4465 15.5181C24.3126 15.159 25.1997 14.8774 26.115 14.6732C27.0233 14.4409 27.9527 14.3141 28.8962 14.1944C29.8678 14.1592 30.8535 14.1592 31.8393 14.2578C32.825 14.3705 33.8107 14.5676 34.7753 14.8704C35.4935 15.1168 36.1976 15.4125 36.8665 15.7645C37.7959 16.2856 38.683 16.9263 39.542 17.6797C39.6546 17.7853 39.7673 17.8909 39.8729 17.9965C40.0841 18.2218 40.2813 18.4682 40.5066 18.7076C40.7319 18.94 40.9572 19.1864 41.1896 19.4399C41.6191 19.9187 42.0485 20.4397 42.4358 20.9818C43.1892 22.1647 43.7454 23.4462 44.0904 24.805C44.2805 25.9245 44.358 27.037 44.365 28.1495C44.372 29.3112 44.3087 30.4589 44.1256 31.5995C43.8792 33.1767 43.4004 34.7397 42.6681 36.1972C42.0626 37.2604 41.3093 38.2743 40.3939 39.2248C39.549 40.1049 38.683 40.9709 37.8803 41.9003C36.9157 43.0198 36.4088 44.3083 36.2609 45.7798C36.1483 46.9768 36.0568 48.1737 36.0497 49.3777C36.0497 50.3142 35.5357 50.8 34.5923 50.807C34.3669 50.807 34.1346 50.807 33.9093 50.807C33.4094 50.7718 32.9095 50.7437 32.4025 50.7085C32.135 50.6944 31.8674 50.6803 31.5999 50.6803C31.5295 50.6803 31.4661 50.6803 31.4239 50.6733C31.3746 50.6662 31.3182 50.6451 31.2901 50.6029C31.2408 50.5043 31.2619 50.3987 31.2549 50.2578L31.1845 50.3635C31.3182 49.7931 31.1563 49.244 31.1141 48.7652C31.1141 48.6525 31.1141 48.5399 31.1141 48.4272C31.1281 48.3075 31.1493 48.1878 31.2056 48.0822L31.2197 48.1597C31.2971 47.9273 31.2056 47.702 31.1211 47.4978C31.1211 46.9205 31.1211 46.3431 31.1211 45.7658C31.1211 45.6883 31.1211 45.5968 31.1211 45.5052C31.1211 45.3363 31.1211 45.1743 31.1211 45.0053C31.1352 44.8716 31.1774 44.773 31.269 44.7519C31.269 45.0265 31.4027 44.3153 31.4731 44.9279C31.5083 44.7519 31.4943 43.914 31.3464 43.9915C31.269 43.9563 31.1915 43.8436 31.1211 43.8225C31.1211 41.7313 31.1211 39.6331 31.1211 37.542M44.534 39.1685C45.1536 38.4151 45.6676 37.5702 46.1323 36.6971C46.5688 35.8099 46.9279 34.8805 47.2025 33.9159C47.456 32.9513 47.6461 31.9727 47.7517 30.9799C47.8432 29.9871 47.8925 28.9873 47.8573 27.9946C47.808 26.861 47.7235 25.7767 47.5264 24.7065C47.3222 23.6363 47.0335 22.6012 46.6181 21.6226C45.7943 19.6511 44.541 17.8839 42.9005 16.4193C42.9216 16.4053 42.9075 16.3701 42.9991 16.4405C42.0838 15.5604 41.2741 14.7225 40.2602 14.0677L40.2813 14.0466C39.0069 13.2721 37.648 12.5398 36.2187 12.0047C34.7894 11.4837 33.3038 11.1176 31.8745 11.0683C30.1635 10.8359 28.2977 10.8782 26.4741 11.2443C24.6435 11.6034 22.8692 12.3004 21.2709 13.1735L21.2568 13.1242C20.94 13.3073 20.6302 13.4974 20.3274 13.6945C20.0317 13.8987 19.7289 14.1029 19.4332 14.3071C18.8418 14.7225 18.2715 15.152 17.7153 15.6096C16.6098 16.525 15.5959 17.5811 14.8003 18.8132C13.8991 20.0243 13.2725 21.4747 12.857 22.9603C12.7233 23.4321 12.6176 23.9109 12.5261 24.3896C12.3149 25.2838 12.167 26.2062 12.0825 27.1778C12.0685 27.2764 12.0544 27.375 12.0403 27.4735C11.8291 28.3959 11.9065 29.4872 12.0614 30.5434C12.0614 30.5574 12.0614 30.5715 12.0685 30.5856C12.1529 31.6065 12.3219 32.6063 12.5824 33.5921C12.85 35.3382 13.5189 37.0139 14.5116 38.4573C15.2087 39.4782 16.0325 40.3795 16.9196 41.2314C17.0182 41.337 17.1168 41.4497 17.2224 41.5553C17.9546 42.3368 18.7362 43.0832 19.4191 43.914C19.8416 44.428 20.1162 44.9842 20.2077 45.6601C20.3767 46.9205 20.4542 48.1808 20.4682 49.4481C20.4682 49.7368 20.4894 50.0255 20.5386 50.3071C20.7921 51.5956 21.5666 52.6377 22.6368 53.2361C23.2916 53.6868 24.1295 53.9825 24.9603 53.9332L24.904 53.8628C25.2912 53.9895 25.7348 53.8417 26.1009 53.7924C26.2066 53.7924 26.3122 53.7924 26.4248 53.7924C26.5023 53.8065 26.5797 53.8276 26.6361 53.8769L26.5727 53.8909C26.7346 53.9684 26.9177 53.8769 27.0867 53.7924C27.5584 53.7924 28.0301 53.7924 28.5019 53.7924C28.5089 53.7924 28.523 53.7924 28.5301 53.7924H28.9877C29.0863 53.8065 29.1637 53.8487 29.1708 53.9402C28.9595 53.9402 29.5017 54.074 29.0229 54.1444C29.1567 54.1796 29.8115 54.1655 29.7552 54.0177C29.7833 53.9332 29.8678 53.8628 29.8819 53.7924C31.5013 53.7924 33.1137 53.7994 34.7331 53.7924C37.2044 53.7783 39.0632 51.9125 39.0773 49.4481C39.0773 48.3498 39.1759 47.2584 39.2674 46.1671C39.3519 45.1462 39.718 44.2731 40.4362 43.5479C40.4855 43.4986 40.5277 43.4493 40.57 43.4C40.5136 43.4634 40.4643 43.5268 40.408 43.5831C39.9785 44.0548 39.6617 44.6322 39.4997 45.2588C39.4997 45.2166 39.4786 45.1954 39.4857 45.1532C39.4786 45.2799 39.4997 45.4278 39.4645 45.5616C39.4364 45.5897 39.4293 45.5123 39.4293 45.47C39.2815 45.7235 39.2674 46.1389 39.2674 46.5191C39.2674 46.9064 39.2674 47.2584 39.197 47.4274C39.197 47.5823 39.2674 47.6598 39.3167 47.5753C39.2885 48.0893 39.2744 48.6103 39.2744 49.1313C39.2815 49.6523 39.2744 50.2367 39.1125 50.7718C38.8309 51.8632 38.1127 52.8559 37.1551 53.4826C37.0495 53.5178 37.0143 53.4896 37.0143 53.4333C36.6271 53.7149 36.1765 53.9261 35.6977 54.0529C35.2189 54.1726 34.6979 54.1937 34.2543 54.1867C33.3319 54.1867 32.4025 54.1515 31.4802 54.1303C31.4098 54.2007 31.6703 54.2007 31.4872 54.2712C32.0787 54.3556 32.5715 54.1092 33.1066 54.2289L33.0362 54.2923C33.4235 54.3345 33.1137 54.1303 33.522 54.2148C33.684 54.2711 33.4798 54.2993 33.5572 54.2993C33.9727 54.2852 34.3881 54.2993 34.8176 54.2782C35.2752 54.2641 35.7329 54.1585 36.1201 53.9684C36.2398 54.0036 36.4792 53.9332 36.7186 53.8276C36.8383 53.7712 36.965 53.722 37.0777 53.6656C37.1903 53.6093 37.296 53.5671 37.3875 53.553C37.5635 53.384 37.7536 53.2361 37.7747 53.1164C38.3943 52.6236 38.9013 51.9547 39.1759 51.2013C39.3237 50.8282 39.4153 50.4339 39.4575 50.0325C39.4857 49.8354 39.4786 49.6312 39.4927 49.4341V48.8919C39.5068 48.1667 39.542 47.4344 39.5913 46.6952L39.6335 46.146C39.6476 45.977 39.6687 45.801 39.7039 45.639C39.7673 45.3011 39.88 44.9772 40.0349 44.6815C40.1193 44.3717 40.2883 44.0689 40.5277 43.8014C40.7742 43.5268 41.0558 43.2381 41.3374 42.9705C41.9077 42.4143 42.5203 41.851 43.0554 41.2173C43.0695 41.2173 43.0765 41.2244 43.0765 41.2385C43.3934 40.7879 43.8862 40.1683 44.3016 39.6684C44.3861 39.4994 44.4636 39.3304 44.534 39.1544" fill="#E77622"/>
<path id="Vector_17" d="M29.5439 54.5599C29.5439 54.5599 29.5439 54.6021 29.558 54.6162L29.7059 54.3628C29.6355 54.2219 29.5862 54.6514 29.5439 54.5599Z" fill="#E77622"/>
<path id="Vector_18" d="M29.4948 54.5315C29.4385 54.4752 29.4103 54.5949 29.3962 54.6301C29.4174 54.5386 29.5019 54.6583 29.4948 54.5315Z" fill="#E77622"/>
<path id="Vector_19" d="M24.4606 58.5309C24.4606 58.5309 24.4887 58.5379 24.5028 58.5379C24.5028 58.552 24.5028 58.5591 24.5028 58.5731L24.4676 58.5239L24.4606 58.5309ZM23.9959 58.4182C23.9959 58.4182 23.9395 58.3619 23.9184 58.3338C24.0592 58.4112 24.2212 58.4675 24.3831 58.5098C24.2212 58.5943 24.0944 58.5098 23.9959 58.4182ZM23.6086 58.1296C23.6086 58.1296 23.6297 58.1507 23.6438 58.1577C23.6227 58.1577 23.6086 58.1437 23.5875 58.1366L23.6086 58.1225V58.1296ZM23.4256 57.9535C23.4678 58.0028 23.5171 58.0451 23.5664 58.0873C23.496 58.0592 23.4396 58.0099 23.4256 57.9535ZM36.0147 55.2006C35.733 55.0175 35.4021 54.9541 35.0853 54.9753C34.9726 54.9541 34.86 54.94 34.7403 54.94C33.6912 54.94 32.6421 54.94 31.593 54.94C31.3958 54.8626 31.1917 54.7781 30.9875 54.8063L31.0015 54.8696C30.903 54.7429 30.7903 54.8908 30.6988 54.94H30.6284C30.6284 54.94 30.5861 54.9048 30.5721 54.8556L30.5861 54.8415C30.5439 54.764 30.5016 54.8556 30.4594 54.94C30.3467 54.94 30.2341 54.94 30.1214 54.94C30.1144 54.94 30.1003 54.94 30.0933 54.94H29.9947C29.9947 54.94 29.9454 54.8908 29.9454 54.7922C30.0017 54.7922 29.8609 54.6584 29.9806 54.588C29.9454 54.5528 29.7835 54.5669 29.7976 54.7147C29.7905 54.7992 29.7694 54.8696 29.7694 54.94C28.2697 54.94 26.777 54.933 25.2773 54.94C25.4533 54.9119 25.6223 54.8837 25.7983 54.8696C25.7843 54.8767 25.7843 54.9048 25.7772 54.9189C25.8054 54.8837 25.8406 54.8274 25.8758 54.8344C25.8828 54.8556 25.8687 54.8767 25.8547 54.8908C25.9955 55.0457 26.263 54.7922 26.3475 54.9119C26.3898 54.8978 26.4039 54.8274 26.3827 54.7781C26.8967 54.7359 27.4459 54.7077 27.9669 54.581C27.9951 54.6021 27.9951 54.6443 27.9881 54.7007C28.4387 54.4472 28.9034 54.5458 29.361 54.588C29.3751 54.5176 29.3117 54.5176 29.361 54.4472C29.2132 54.3627 29.0935 54.6091 28.9597 54.4894L28.9738 54.4261C28.8752 54.3838 28.9527 54.588 28.8541 54.5035C28.8118 54.4472 28.8611 54.419 28.847 54.419C28.6429 54.4472 28.4246 54.3909 28.2345 54.5458C28.1852 54.4049 28.0092 54.5458 27.9317 54.4049C27.8824 54.4613 27.8261 54.4472 27.805 54.5387C27.0798 54.4683 26.3475 54.6021 25.6012 54.595C25.4322 54.7288 25.2421 54.7147 25.0379 54.6795C24.9393 54.6655 24.8478 54.6373 24.7281 54.6302C24.6084 54.6232 24.4887 54.6303 24.3761 54.6795C24.3761 54.6725 24.3761 54.6584 24.3761 54.6514C24.2282 54.7429 24.0381 54.8415 23.8551 54.8908C23.8269 54.9471 23.7987 55.0105 23.7776 55.0668C23.2566 55.2287 22.8552 55.7286 22.7356 56.2849C22.6088 56.834 22.7074 57.4255 22.9961 57.9395C23.334 58.5098 23.8973 58.9041 24.5239 59.0026C24.8619 59.0519 25.0942 59.0238 25.3618 59.0026C25.6223 58.9745 25.8828 58.9181 26.1574 58.8266C26.1574 58.8548 26.1574 58.8689 26.1363 58.8759C26.4461 58.8196 26.7348 58.9181 27.0235 58.8618V58.89C27.7487 58.6647 28.5372 58.9181 29.2413 58.6788C30.0933 58.7069 31.0649 58.6788 31.9732 58.6083V58.6647C32.6984 58.552 33.3955 58.8337 34.1207 58.7492C34.3108 58.7773 34.4938 58.7773 34.6839 58.7492C34.874 58.7351 35.0853 58.6717 35.2683 58.5802C35.4021 58.5168 35.5148 58.4394 35.6274 58.3549C35.8175 58.2493 35.9865 58.1155 36.1273 57.9535C36.1484 57.9324 36.1766 57.9183 36.1977 57.8972C36.4442 57.7916 36.5286 57.4888 36.5216 57.2213C36.585 56.9749 36.5991 56.7073 36.5498 56.4327C36.6695 55.961 36.416 55.454 36.0147 55.2076" fill="#E77622"/>
<path id="Vector_20" d="M24.4678 63.1284C24.4678 63.1284 24.496 63.1284 24.503 63.1355C24.503 63.1496 24.503 63.1566 24.503 63.1707L24.4748 63.1284H24.4678ZM23.996 63.0158C23.996 63.0158 23.9468 62.9665 23.9186 62.9383C24.0594 63.0158 24.2143 63.0721 24.3692 63.1073C24.2143 63.1848 24.0876 63.1073 23.989 63.0087M23.6018 62.7201C23.6018 62.7201 23.6299 62.7412 23.644 62.7553C23.6229 62.7553 23.6018 62.7412 23.5806 62.7342L23.6018 62.7201ZM23.4187 62.5441C23.4539 62.5863 23.4961 62.6285 23.5384 62.6637C23.475 62.6356 23.4328 62.5933 23.4187 62.5441ZM36.5359 61.0021C36.6485 60.5374 36.395 60.0234 35.9937 59.784C35.7121 59.601 35.3812 59.5376 35.0643 59.5587C34.9517 59.5376 34.839 59.5235 34.7193 59.5235C33.6702 59.5235 32.6211 59.5235 31.5791 59.5235C31.3819 59.4461 31.1778 59.3616 30.9736 59.3897L30.9876 59.4531C30.8891 59.3264 30.7764 59.4742 30.6849 59.5235H30.6145C30.6145 59.5235 30.5722 59.4883 30.5582 59.439L30.5722 59.4249C30.53 59.3475 30.4877 59.439 30.4455 59.5235C30.3328 59.5235 30.2202 59.5235 30.1005 59.5235C30.0935 59.5235 30.0794 59.5235 30.0723 59.5235H29.9738C29.9738 59.5235 29.9245 59.4742 29.9245 59.3757C29.9808 59.3757 29.84 59.2419 29.9597 59.1715C29.9245 59.1363 29.7625 59.1503 29.7766 59.2982C29.7696 59.3757 29.7485 59.4531 29.7485 59.5235C28.2487 59.5235 26.749 59.5235 25.2493 59.5235C25.4253 59.4953 25.6014 59.4672 25.7844 59.4531C25.7774 59.4601 25.7704 59.4883 25.7633 59.5024C25.7915 59.4672 25.8267 59.4109 25.8619 59.4179C25.8689 59.439 25.8548 59.4601 25.8408 59.4742C25.9816 59.6291 26.2491 59.3757 26.3336 59.4953C26.3688 59.4813 26.3899 59.4109 26.3688 59.3616C26.8828 59.3193 27.432 59.2912 27.953 59.1644C27.9812 59.1855 27.9812 59.2278 27.9741 59.2841C28.4177 59.0306 28.8895 59.1292 29.3471 59.1715C29.3612 59.1011 29.2978 59.1011 29.3471 59.0306C29.1993 58.9462 29.0796 59.1926 28.9458 59.0729L28.9599 59.0095C28.8613 58.9673 28.9387 59.1715 28.8402 59.087C28.7979 59.0306 28.8472 59.0025 28.8331 59.0025C28.629 59.0307 28.4107 58.9743 28.2135 59.1292C28.1643 58.9884 27.9882 59.1292 27.9178 58.9884C27.8615 59.0447 27.8122 59.0307 27.7911 59.1222C27.0659 59.0518 26.3336 59.1855 25.5943 59.1715C25.4253 59.3052 25.2352 59.2912 25.0311 59.256C24.848 59.2208 24.5945 59.1574 24.3622 59.256C24.3622 59.2489 24.3622 59.2348 24.3622 59.2278C24.2214 59.3264 24.0242 59.4179 23.8482 59.4742C23.82 59.5306 23.7919 59.5869 23.7707 59.6502C23.2568 59.8192 22.8554 60.3121 22.7287 60.8683C22.602 61.4245 22.7146 62.023 23.0033 62.5229C23.3342 63.0862 23.9045 63.4946 24.5382 63.5861L24.7776 63.6072C24.855 63.6072 24.9114 63.6072 24.9747 63.6072C25.1015 63.6072 25.2352 63.5931 25.362 63.5791C25.6225 63.5509 25.89 63.4946 26.1576 63.403C26.1576 63.4312 26.1576 63.4453 26.1365 63.4523C26.4463 63.396 26.735 63.4946 27.0307 63.4382V63.4664C27.7629 63.2411 28.5515 63.5016 29.2485 63.2552C30.1005 63.2763 31.0721 63.2552 31.9804 63.1848V63.2411C32.7056 63.1284 33.4027 63.4101 34.1279 63.3256C34.3109 63.3538 34.5011 63.3538 34.6912 63.3256C34.8883 63.3045 35.0995 63.2481 35.2755 63.1496C35.4093 63.0862 35.529 63.0088 35.6417 62.9243C35.8318 62.8186 36.0078 62.6778 36.1486 62.5159C36.1697 62.5018 36.1838 62.4807 36.2049 62.4666C36.4514 62.368 36.5359 62.0653 36.5218 61.7977C36.5852 61.5442 36.5992 61.2767 36.5499 60.9951" fill="#E77622"/>
<path id="Vector_21" d="M29.7696 58.9251L29.7344 59.0167L29.7837 58.9603L29.7696 58.9251Z" fill="#E77622"/>
<path id="Vector_22" d="M29.5375 59.1574C29.5375 59.1574 29.5375 59.1997 29.5516 59.2138L29.6994 58.9603C29.629 58.8195 29.5797 59.249 29.5375 59.1574Z" fill="#E77622"/>
<path id="Vector_23" d="M29.4879 59.1294C29.4315 59.0731 29.4034 59.1928 29.3893 59.228C29.4104 59.1365 29.4949 59.2562 29.4879 59.1294Z" fill="#E77622"/>
<path id="Vector_24" d="M49.0058 6.32269L48.9777 6.41422L49.0199 6.35789L49.0058 6.32269Z" fill="#E77622"/>
<path id="Vector_25" d="M48.935 6.36502C48.8646 6.2242 48.8576 6.66074 48.8153 6.56921C48.8223 6.58329 48.8223 6.61145 48.8294 6.62553C48.8646 6.54104 48.8998 6.44951 48.935 6.36502Z" fill="#E77622"/>
<path id="Vector_26" d="M48.7726 6.54792C48.7162 6.49863 48.7092 6.61832 48.7021 6.66057C48.7021 6.56904 48.7937 6.67465 48.7726 6.54792Z" fill="#E77622"/>
<path id="Vector_27" d="M43.2102 11.8428C43.2102 11.8428 43.1962 11.8568 43.1891 11.8639C43.175 11.8639 43.168 11.8639 43.1469 11.8568L43.2032 11.8428H43.2102ZM43.52 11.54C43.4356 11.6245 43.3511 11.709 43.2595 11.7935C43.2032 11.6738 43.3651 11.6175 43.52 11.54ZM43.7242 11.3429C43.7242 11.3429 43.7031 11.3569 43.6961 11.371C43.6961 11.3569 43.7031 11.3499 43.7031 11.3358L43.7242 11.3499V11.3429ZM43.858 11.2091L43.7665 11.3006C43.7806 11.2584 43.8087 11.2302 43.858 11.2091ZM42.8652 12.744C42.9357 12.7862 43.0061 12.8285 43.0694 12.8637C43.1328 12.8989 43.175 12.9059 43.2243 12.9271C43.2032 12.9482 43.2032 12.9623 43.175 12.9552C43.3792 13.0679 43.4637 13.2861 43.6609 13.3988L43.6397 13.4199C44.1819 13.6382 44.3931 14.2437 44.9141 14.4761C45.0198 14.6028 45.1676 14.7999 45.3084 14.9408C45.3436 14.976 45.3788 15.0112 45.4281 15.0323C45.4774 15.0534 45.5337 15.0393 45.576 15.0112C45.6605 14.9548 45.7379 14.8774 45.8224 14.7929C45.9421 14.6662 46.0548 14.5465 46.1463 14.4338C46.2449 14.3212 46.3434 14.2015 46.442 14.0888L46.4772 14.124C46.78 13.6664 47.3573 13.4974 47.6812 13.0608C48.0051 12.8566 48.167 12.4694 48.3923 12.1455C48.512 12.0258 48.6317 11.9061 48.7514 11.7864C48.7655 11.7794 48.7796 11.7653 48.7937 11.7583C49.0049 11.7301 49.0894 11.547 49.1809 11.364C49.3288 11.2232 49.4696 11.0753 49.6175 10.9345C49.9836 10.843 50.23 10.6458 50.4272 10.3853C50.575 10.2093 50.6806 9.97693 50.7299 9.73754C51.0256 9.24468 51.0468 8.67436 50.7862 8.08997C50.6595 7.79425 50.4835 7.5619 50.2793 7.38588C50.2159 7.23098 50.1244 7.062 49.9554 7.01272L49.9343 7.07608C49.9132 6.9071 49.7653 7.04088 49.6808 7.04792C49.6667 7.04792 49.6597 7.04088 49.6456 7.03384C49.6315 7.01976 49.6245 6.99159 49.6245 6.93527H49.6386C49.6245 6.84373 49.5682 6.92118 49.5118 6.99863C49.4344 6.97751 49.3499 6.96343 49.2654 6.94935C49.2513 6.94935 49.2372 6.94935 49.2232 6.94935C49.202 6.94935 49.188 6.94935 49.1668 6.94935C49.1457 6.93527 49.1246 6.90006 49.1387 6.79445C49.1809 6.79445 49.0823 6.65363 49.188 6.59026C49.1598 6.55506 49.026 6.55506 49.026 6.70292C49.019 6.78741 48.9979 6.85782 48.9908 6.93527C48.4557 6.96343 48.0121 7.11833 47.646 7.47037C47.1954 7.90691 46.7518 8.35048 46.3012 8.78702C46.3716 8.68141 46.442 8.57579 46.5265 8.46314C46.5265 8.47722 46.5476 8.4913 46.5547 8.50538C46.5476 8.47018 46.5195 8.41385 46.5406 8.39977C46.5617 8.40681 46.5687 8.42793 46.5687 8.44202C46.7659 8.46314 46.7096 8.16742 46.8504 8.19558C46.8574 8.16742 46.8152 8.11813 46.7729 8.09701C47.0264 7.79425 47.2728 7.4915 47.5193 7.10425C47.5545 7.10425 47.5826 7.13945 47.6108 7.1817C47.6742 6.96343 47.8432 6.80853 48.0403 6.73108C48.2374 6.64659 48.4487 6.62547 48.6388 6.61843C48.6388 6.54802 48.5895 6.55506 48.6176 6.47761C48.4698 6.41424 48.4135 6.68179 48.2726 6.5973V6.53394C48.167 6.51985 48.3008 6.69588 48.1882 6.63955C48.1318 6.5973 48.167 6.5621 48.1529 6.5621C47.984 6.64659 47.7587 6.69588 47.6953 6.92823C47.5756 6.83669 47.5263 7.04088 47.3855 6.99159C47.3855 7.06904 47.3362 7.09017 47.3855 7.16762C46.9278 7.51262 46.6251 8.01252 46.2097 8.39977C46.2378 8.74477 45.752 8.77998 45.5971 9.05457C45.5901 9.05457 45.583 9.04753 45.576 9.04049C45.5549 9.1461 45.4774 9.2658 45.3648 9.33621L45.3929 9.46294C44.6607 9.87131 44.2734 10.4768 43.6468 10.9697C43.3088 11.2584 42.9568 11.5259 42.654 11.8076C42.5836 11.885 42.4991 11.9273 42.4498 12.0399C42.4005 12.1526 42.4076 12.3286 42.4921 12.4342C42.5836 12.5469 42.7033 12.6525 42.8371 12.737" fill="#E77622"/>
<path id="Vector_28" d="M10.421 6.32269L10.3928 6.41422L10.4351 6.35789L10.421 6.32269Z" fill="#E77622"/>
<path id="Vector_29" d="M10.3577 6.36492C10.2803 6.23114 10.2873 6.66063 10.238 6.57614C10.2451 6.59022 10.2451 6.61839 10.2521 6.63247C10.2803 6.54094 10.3155 6.45645 10.3507 6.36492" fill="#E77622"/>
<path id="Vector_30" d="M10.1953 6.55513C10.139 6.50585 10.132 6.62554 10.132 6.66779C10.132 6.57626 10.2235 6.68187 10.1953 6.55513Z" fill="#E77622"/>
<path id="Vector_31" d="M11.4844 12.4836L11.4984 12.4977C11.4984 12.5118 11.4914 12.5118 11.4844 12.5259V12.4766V12.4836ZM11.1816 12.1808C11.2661 12.2653 11.3506 12.3428 11.428 12.4273C11.2872 12.4554 11.2379 12.3146 11.1816 12.1808ZM10.9704 11.9767C10.9704 11.9767 10.9845 11.9907 10.9915 11.9978C10.9774 11.9978 10.9704 11.9907 10.9563 11.9907L10.9704 11.9767ZM10.8436 11.8499C10.8436 11.8499 10.9 11.9063 10.9281 11.9274C10.8929 11.9133 10.8577 11.8851 10.8436 11.8499ZM8.59055 9.98409C8.59055 9.98409 8.57647 9.99817 8.56943 9.99817C8.68912 10.0615 8.80882 10.1672 8.87923 10.2868C8.93555 10.2868 8.98484 10.2868 9.04117 10.2868C9.40729 10.9698 10.0621 11.3782 10.5409 11.9767C11.1112 12.6244 11.6041 13.3426 12.3222 13.589C12.3152 13.6172 12.3152 13.6313 12.2941 13.6313C12.4842 13.7439 12.6109 13.9904 12.7869 14.096V14.1241C13.0122 14.2086 13.2094 14.4198 13.4136 14.624C13.5192 14.7296 13.6177 14.8282 13.7234 14.9127C13.8219 14.9902 13.9205 15.0887 14.0684 15.0465C14.1599 15.0465 14.2162 14.969 14.2796 14.9057C14.343 14.8353 14.4063 14.7719 14.4697 14.6944C14.5823 14.5607 14.695 14.4198 14.8077 14.2861C15.0259 14.0185 15.2442 13.7439 15.4554 13.4834L15.4906 13.5186C15.7934 13.0469 16.3566 12.9131 16.7157 12.4766C16.7509 12.4484 16.7932 12.4132 16.8284 12.3428C16.8636 12.2724 16.8566 12.1527 16.8213 12.0964C16.7509 11.9767 16.6876 11.9485 16.6383 11.9063C16.5256 11.8218 16.3919 11.7514 16.2651 11.6739C16.1665 11.6176 16.068 11.5542 15.9764 11.4908C15.8708 11.3923 15.7723 11.2867 15.6666 11.1881C15.6526 11.167 15.6314 11.1458 15.6174 11.1177C15.5892 10.9064 15.3991 10.822 15.209 10.7375C15.0682 10.5966 14.9273 10.4629 14.7865 10.3221C14.6175 9.70246 14.1388 9.41378 13.6107 9.16735C13.0474 8.61112 12.4771 8.05489 11.9138 7.5057C11.8646 7.45641 11.8082 7.42121 11.7519 7.37896C11.7519 7.37896 11.7519 7.37896 11.7519 7.37192C11.6815 7.21702 11.5829 7.04804 11.4139 6.99875L11.3999 7.06212C11.3717 6.89314 11.2168 7.05508 11.1323 7.04804H11.1182C11.0971 7.03396 11.083 7.0058 11.0901 6.94243H11.1041C11.0901 6.84386 11.0337 6.93539 10.9774 7.01284C10.9 6.99876 10.8296 6.98467 10.7451 6.97763C10.7239 6.95651 10.6958 6.97059 10.6606 6.97059H10.6465C10.6183 6.97059 10.5972 6.92835 10.6042 6.80865C10.6465 6.80865 10.5479 6.66783 10.6465 6.60447C10.6183 6.56222 10.4845 6.5763 10.4916 6.72416C10.4845 6.80865 10.4634 6.8861 10.4634 6.95651C9.69597 7.01284 9.07637 7.37192 8.75249 8.13234C8.58351 8.52663 8.54127 8.91388 8.62576 9.27296C8.56943 9.15327 8.52718 9.01949 8.5131 8.87867C8.52014 8.88571 8.54831 8.89275 8.56239 8.89979C8.52718 8.87867 8.47086 8.84347 8.4779 8.8153C8.49902 8.8153 8.52014 8.82234 8.52718 8.83643C8.68912 8.75194 8.46382 8.51255 8.60463 8.4703C8.59759 8.4351 8.53422 8.40693 8.48494 8.41397C8.55535 8.0056 8.73137 7.59019 8.99892 7.18182C9.02709 7.18182 9.06229 7.20998 9.09045 7.25927C9.14678 7.03396 9.31576 6.87906 9.50587 6.79457C9.69597 6.70304 9.9072 6.67487 10.1043 6.66079C10.1043 6.59038 10.048 6.59742 10.0762 6.51998C9.92128 6.46365 9.87903 6.7312 9.73117 6.65375V6.59038C9.62556 6.58334 9.75934 6.75232 9.64668 6.70304C9.59036 6.66783 9.62556 6.62559 9.61148 6.62559C9.4425 6.71712 9.22423 6.77345 9.1679 7.0058C9.04821 6.91426 9.00596 7.12549 8.86515 7.07621C8.86515 7.15365 8.81586 7.17478 8.86515 7.25927C8.60463 7.47049 8.44269 7.78029 8.35116 8.08305C8.25259 8.39285 8.22443 8.72377 8.23851 9.06173C8.37933 9.20959 8.39341 9.35745 8.41453 9.53347C8.43565 9.70246 8.46382 9.90664 8.59759 10.0334" fill="#E77622"/>
<path id="Vector_32" d="M50.6882 29.6563H50.7163C50.7163 29.6563 50.7023 29.6775 50.7023 29.6915L50.6882 29.6563ZM50.315 29.6352C50.315 29.6352 50.2869 29.5718 50.2869 29.5366C50.3291 29.6211 50.4206 29.6563 50.5826 29.6563H50.6178C50.4699 29.7619 50.3643 29.7267 50.308 29.6352M50.2446 29.2761C50.2446 29.2761 50.2446 29.3043 50.2446 29.3113C50.2376 29.2973 50.2376 29.2902 50.2235 29.2761H50.2446ZM50.2446 29.0931C50.2446 29.1353 50.2446 29.1776 50.2446 29.2128C50.2305 29.1705 50.2235 29.1283 50.2446 29.0931ZM58.8908 28.1637C59.0528 28.0229 59.0105 27.7835 58.919 27.5934C58.919 27.5934 58.919 27.5863 58.919 27.5793C58.9049 27.3892 58.8627 27.1991 58.7993 27.0301C58.8627 26.6499 58.6373 26.3049 58.3416 26.1218C58.1234 25.9951 57.8769 25.9458 57.6305 25.9458C57.4052 25.8683 57.1658 25.8191 56.9053 25.8191C56.2927 25.8191 55.6731 25.8191 55.0606 25.8191C54.9127 25.7416 54.7578 25.6571 54.6029 25.6782L54.617 25.7486C54.5395 25.6149 54.4551 25.7768 54.3917 25.8191H54.3424C54.3424 25.8191 54.3072 25.7838 54.3002 25.7346L54.3142 25.7205C54.2861 25.643 54.2509 25.7346 54.2157 25.8191H53.9622C53.9622 25.8191 53.9481 25.8191 53.934 25.8191H53.8636C53.8636 25.8191 53.8284 25.7698 53.8284 25.6712C53.8707 25.6712 53.765 25.5374 53.8566 25.467C53.8284 25.4318 53.7087 25.4459 53.7228 25.5937C53.7228 25.6712 53.7017 25.7486 53.7017 25.8191C52.5892 25.8191 51.4768 25.8191 50.3643 25.8191C50.3713 25.8191 50.3784 25.8191 50.3854 25.8191C50.491 25.7979 50.5966 25.7768 50.7093 25.7627C50.7093 25.7698 50.7234 25.7979 50.7163 25.805C50.7163 25.7768 50.7163 25.7205 50.7445 25.7275C50.7656 25.7486 50.7586 25.7698 50.7586 25.7768C50.9417 25.9176 51.0121 25.6853 51.1388 25.7979C51.1599 25.7838 51.1388 25.7205 51.1036 25.6782C51.4838 25.643 51.8922 25.6078 52.2724 25.4881C52.3005 25.5093 52.3146 25.5515 52.3217 25.6008C52.6103 25.3544 53.0258 25.4459 53.3848 25.4811C53.3919 25.4177 53.3426 25.4107 53.3778 25.3403C53.2511 25.2628 53.1736 25.5022 53.0539 25.3896V25.3262C52.9765 25.2839 53.061 25.4881 52.9694 25.4036C52.9272 25.3473 52.9694 25.3262 52.9483 25.3192C52.7864 25.3473 52.5963 25.291 52.4695 25.4459C52.3991 25.3121 52.2935 25.4459 52.1949 25.3121C52.1668 25.3684 52.1175 25.3544 52.1245 25.4388C51.519 25.3755 50.9769 25.5093 50.3925 25.5022C50.3361 25.636 50.1812 25.5797 49.9911 25.643C49.794 25.7346 49.7658 25.9317 49.8081 26.1711C49.801 26.1711 49.7869 26.1711 49.7799 26.1641C49.8151 26.2485 49.8574 26.3401 49.8785 26.4316C49.9066 26.5302 49.9066 26.5724 49.8926 26.6428L50.0193 26.7344C49.8503 27.4596 50.0475 28.1707 49.9348 28.8889C49.9278 29.0156 49.9066 29.1142 49.8996 29.2902C49.8855 29.4521 49.8855 29.6071 49.9418 29.7408C50.0545 30.0365 50.4418 30.0929 50.5826 30.0788C50.9769 30.0929 51.3923 30.0506 51.864 29.8816C51.857 29.9098 51.857 29.9239 51.8288 29.9309C52.0823 29.8746 52.2653 29.9732 52.5118 29.9169V29.945C53.1173 29.7267 53.6524 29.9732 54.2297 29.7408C54.8634 29.762 55.6027 29.7408 56.2786 29.6704V29.7267C56.5532 29.6634 56.8067 29.7267 57.0883 29.7479C57.3629 29.776 57.6727 29.7479 57.9192 29.5859C58.2219 29.5155 58.4402 29.248 58.5669 28.9734C58.6233 28.8537 58.6655 28.741 58.7078 28.6284C58.7641 28.5157 58.8134 28.4031 58.8556 28.2763C58.8697 28.2411 58.8838 28.2059 58.9049 28.1778" fill="#E77622"/>
<path id="Vector_33" d="M10.5194 49.1525L10.5475 49.061L10.5123 49.1173L10.5194 49.1525Z" fill="#E77622"/>
<path id="Vector_34" d="M10.5833 49.1101C10.6466 49.2509 10.6466 48.8144 10.6889 48.9059C10.6818 48.8918 10.6818 48.8637 10.6748 48.8496C10.6466 48.9341 10.6185 49.0256 10.5833 49.1101Z" fill="#E77622"/>
<path id="Vector_35" d="M10.724 48.9342C10.7733 48.9906 10.7803 48.8709 10.7803 48.8286C10.7803 48.9202 10.7029 48.8075 10.724 48.9342Z" fill="#E77622"/>
<path id="Vector_36" d="M15.3844 44.6111C15.3844 44.6111 15.3281 44.6393 15.2999 44.6534C15.3985 44.5478 15.4267 44.4773 15.3562 44.3717C15.5393 44.4281 15.49 44.5618 15.3844 44.6111ZM15.1309 44.8223C15.1309 44.8223 15.145 44.8083 15.1521 44.8012C15.1521 44.8153 15.145 44.8223 15.1521 44.8364L15.1309 44.8223ZM15.0112 44.935C15.0112 44.935 15.0676 44.8787 15.0957 44.8576C15.0887 44.8928 15.0605 44.928 15.0112 44.935ZM15.3562 44.3013C15.3562 44.3013 15.3351 44.3224 15.3281 44.3295C15.3281 44.3295 15.3281 44.3154 15.314 44.3084C15.3281 44.3084 15.3351 44.3084 15.3562 44.3013ZM15.4759 43.8296L15.3492 43.7028L15.2506 43.6184C15.1169 43.5127 14.969 43.4212 14.7859 43.3508C14.8071 43.3367 14.8141 43.3226 14.8352 43.3297C14.6662 43.21 14.624 43.0128 14.4621 42.9002L14.4832 42.8861C14.0114 42.6608 13.9129 42.1257 13.4341 41.8793C13.3426 41.7455 13.251 41.6117 13.1454 41.499C13.0961 41.4427 12.9976 41.4216 12.9342 41.4709C12.8638 41.5131 12.8215 41.5765 12.7652 41.6258C12.554 41.8511 12.3357 42.0905 12.1386 42.3299L12.1245 42.2735C11.8217 42.7101 11.4063 42.7594 11.0965 43.1748C10.8219 43.3367 10.6529 43.7169 10.4488 44.0126C10.3431 44.1112 10.2446 44.2168 10.139 44.3154C10.1249 44.3224 10.1108 44.3365 10.0967 44.3436C9.91364 44.3436 9.83619 44.5125 9.76579 44.6886C9.63905 44.8153 9.51231 44.935 9.39262 45.0617C9.23772 45.0899 9.0969 45.1462 8.97721 45.2237C8.85047 45.3152 8.7519 45.4419 8.68149 45.5828C8.58996 45.7869 8.57588 46.0123 8.61108 46.2235C8.52659 46.5896 8.56883 46.9839 8.74486 47.3852C8.89976 47.7373 9.12506 48.0048 9.38558 48.1879C9.44895 48.3287 9.53344 48.4766 9.68129 48.5118L9.69538 48.4484C9.7165 48.6033 9.83619 48.4695 9.9066 48.4484C9.92068 48.4484 9.93477 48.4554 9.94885 48.4625C9.96293 48.4766 9.96997 48.5047 9.96293 48.554L9.94885 48.5681C9.95589 48.6526 10.0122 48.5681 10.0615 48.4907C10.1319 48.5047 10.1953 48.5188 10.2657 48.5329C10.2798 48.5399 10.2868 48.5399 10.3079 48.5329C10.322 48.5329 10.3361 48.5329 10.3502 48.5329C10.3713 48.547 10.3854 48.5822 10.3713 48.6878C10.3361 48.6878 10.4206 48.8286 10.3291 48.892C10.3502 48.9272 10.4699 48.9201 10.4699 48.7723C10.4769 48.6878 10.498 48.6174 10.5051 48.5399C11.0895 48.5118 11.5542 48.3217 11.9414 47.9415C12.2512 47.6387 12.5681 47.3289 12.8779 47.0261C12.8215 47.1177 12.7582 47.2162 12.6878 47.3148C12.6878 47.3007 12.6666 47.2867 12.6596 47.2726C12.6737 47.3078 12.7018 47.3641 12.6807 47.3711C12.6596 47.3641 12.6525 47.3359 12.6525 47.3289C12.4695 47.2937 12.5399 47.5824 12.4061 47.5401C12.4061 47.5683 12.4413 47.6176 12.4906 47.6457C12.2723 47.9063 12.0822 48.1949 11.8006 48.5188C11.7724 48.5118 11.7443 48.4766 11.7232 48.4273C11.5753 48.8286 11.1458 48.8709 10.8149 48.8709C10.8149 48.9413 10.8571 48.9342 10.836 49.0117C10.9627 49.0821 11.012 48.8145 11.1317 48.9131V48.9765C11.2232 48.9976 11.1106 48.8145 11.2021 48.8709C11.2514 48.9131 11.2162 48.9553 11.2303 48.9553C11.3781 48.8849 11.5753 48.8709 11.6387 48.6596C11.7372 48.7652 11.7936 48.5751 11.9133 48.6596C11.9133 48.5892 11.9625 48.5751 11.9133 48.4907C12.033 48.4273 12.1526 48.3358 12.2442 48.2372C12.3287 48.1527 12.4132 48.0541 12.4906 47.9626C12.6525 47.7725 12.8004 47.5753 12.9835 47.4064C12.9342 47.0825 13.3848 47.0825 13.5115 46.836C13.5186 46.836 13.5327 46.8431 13.5327 46.8501C13.5397 46.7516 13.6101 46.6389 13.7087 46.5826L13.6735 46.4558C14.3283 46.132 14.6522 45.5898 15.2013 45.1744C15.3562 45.0477 15.5041 44.928 15.652 44.8153C15.7294 44.7519 15.7998 44.6252 15.8139 44.4985C15.8139 44.3647 15.7928 44.252 15.7083 44.1394C15.6308 44.0338 15.5464 43.907 15.4619 43.8296" fill="#E77622"/>
<path id="Vector_37" d="M48.9137 49.1525L48.9419 49.061L48.8997 49.1173L48.9137 49.1525Z" fill="#E77622"/>
<path id="Vector_38" d="M48.97 49.1172C49.0263 49.258 49.0474 48.8214 49.0826 48.92C49.0826 48.9059 49.0826 48.8778 49.0685 48.8637C49.0404 48.9482 49.0052 49.0327 48.97 49.1172Z" fill="#E77622"/>
<path id="Vector_39" d="M49.1182 48.9411C49.1675 48.9974 49.1745 48.8777 49.1815 48.8355C49.1815 48.927 49.1041 48.8144 49.1182 48.9411Z" fill="#E77622"/>
<path id="Vector_40" d="M48.9213 43.8435C48.9213 43.8435 48.9142 43.8365 48.9072 43.8294C48.9072 43.8224 48.9142 43.8153 48.9213 43.8013V43.8435ZM49.1818 44.104C49.1114 44.0336 49.041 43.9632 48.9705 43.8928C49.1043 43.8576 49.1395 43.9843 49.1818 44.104ZM49.3648 44.2871L49.3437 44.266C49.3437 44.266 49.3648 44.273 49.3789 44.266L49.3648 44.28V44.2871ZM49.4775 44.3997L49.4071 44.3293C49.4071 44.3293 49.4634 44.3645 49.4775 44.3997ZM51.2588 46.2656C51.2588 46.2656 51.28 46.2656 51.287 46.2656C51.2025 46.174 51.1391 46.0403 51.1251 45.9206L50.9842 45.8713C50.9631 45.5122 50.7096 45.1883 50.4773 44.9771C50.2449 44.7447 49.9985 44.5335 49.7943 44.266C49.3085 43.7027 48.8861 43.0479 48.2383 42.8719C48.2453 42.8507 48.2453 42.8296 48.2665 42.8367C48.0975 42.7451 47.9919 42.5198 47.837 42.4353V42.4072C47.4427 42.2945 47.1188 41.6679 46.7527 41.5975C46.7034 41.5482 46.6541 41.4919 46.5766 41.4637C46.4992 41.4285 46.4217 41.4919 46.3795 41.5482C46.2739 41.6679 46.1753 41.8087 46.0838 41.9495C45.9078 42.21 45.7529 42.4494 45.598 42.7029L45.5557 42.6677C45.3515 43.1042 44.8446 43.2732 44.6052 43.6745C44.401 43.8153 44.2954 44.0477 44.1827 44.28C44.1546 44.3364 44.1194 44.4138 44.1335 44.4842C44.1405 44.5194 44.1616 44.5476 44.1827 44.5758C44.2039 44.6039 44.225 44.6321 44.2602 44.6603C44.3236 44.7236 44.3869 44.787 44.4503 44.8504C44.4644 44.8715 44.4785 44.8856 44.4925 44.9137C44.5066 45.1109 44.6756 45.1813 44.8516 45.2446C44.9713 45.3643 45.0981 45.484 45.2178 45.6037C45.3304 46.174 45.7529 46.4064 46.2316 46.5965C46.7034 47.0612 47.1751 47.5259 47.6469 47.9906C47.7032 48.0469 47.7736 48.0962 47.837 48.1455C47.8933 48.2863 47.9707 48.4483 48.1116 48.4835L48.1327 48.4201C48.1468 48.582 48.2876 48.4342 48.358 48.4342C48.358 48.4342 48.3721 48.4342 48.3791 48.4342C48.3932 48.4483 48.4002 48.4764 48.3932 48.5398H48.3791C48.3791 48.6313 48.4425 48.5468 48.4918 48.4694C48.5551 48.4905 48.6255 48.5046 48.6889 48.5116C48.703 48.5327 48.7312 48.5187 48.7593 48.5187C48.7593 48.5187 48.7664 48.5187 48.7734 48.5187C48.8016 48.5257 48.8156 48.5609 48.8086 48.6806C48.7664 48.6806 48.8579 48.8214 48.7664 48.8848C48.7875 48.927 48.9213 48.913 48.9142 48.7651C48.9142 48.6806 48.9353 48.6102 48.9424 48.5398C49.8225 48.5398 50.5266 48.0821 50.8223 47.378C50.8927 47.195 50.942 47.019 50.9702 46.85C50.9772 46.9626 50.9772 47.0753 50.9702 47.202C50.9631 47.195 50.935 47.1809 50.9279 47.1739C50.9561 47.202 51.0054 47.2443 50.9913 47.2654C50.9702 47.2654 50.949 47.2443 50.942 47.2372C50.773 47.2654 50.942 47.5259 50.8012 47.5329C50.8012 47.5611 50.8575 47.6033 50.9068 47.6174C50.773 47.9624 50.5195 48.2722 50.2449 48.575C50.2168 48.5679 50.1957 48.5327 50.1675 48.4835C50.0056 48.8777 49.5761 48.9059 49.2522 48.8918C49.2522 48.9622 49.2944 48.9622 49.2663 49.0326C49.393 49.1031 49.4423 48.8425 49.569 48.9411V49.0045C49.6535 49.0256 49.5479 48.8425 49.6465 48.9059C49.6887 48.9482 49.6606 48.9904 49.6746 48.9904C49.8225 48.92 50.0126 48.92 50.083 48.7088C50.1816 48.8214 50.2379 48.6384 50.3576 48.7158C50.3646 48.6454 50.4069 48.6313 50.3717 48.5468C50.9068 48.2933 51.1532 47.6597 51.28 47.1598C51.1814 47.0049 51.2166 46.8781 51.2659 46.7373C51.3081 46.5965 51.3644 46.4275 51.294 46.2726" fill="#E77622"/>
</g>
</svg>
